<?xml version="1.0" encoding="UTF-8" standalone="no"?>
<!-- Creator: CorelDRAW 2019 (64-Bit) -->

<svg
   xmlns:dc="http://purl.org/dc/elements/1.1/"
   xmlns:cc="http://creativecommons.org/ns#"
   xmlns:rdf="http://www.w3.org/1999/02/22-rdf-syntax-ns#"
   xmlns:svg="http://www.w3.org/2000/svg"
   xmlns="http://www.w3.org/2000/svg"
   xmlns:xlink="http://www.w3.org/1999/xlink"
   xmlns:sodipodi="http://sodipodi.sourceforge.net/DTD/sodipodi-0.dtd"
   xmlns:inkscape="http://www.inkscape.org/namespaces/inkscape"
   xml:space="preserve"
   width="50mm"
   height="50mm"
   version="1.1"
   style="shape-rendering:geometricPrecision; text-rendering:geometricPrecision; image-rendering:optimizeQuality; fill-rule:evenodd; clip-rule:evenodd"
   viewBox="0 0 50000 50000"
   id="svg98"
   sodipodi:docname="01d.svg"
   inkscape:version="0.92.5 (2060ec1f9f, 2020-04-08)"><metadata
   id="metadata102"><rdf:RDF><cc:Work
       rdf:about=""><dc:format>image/svg+xml</dc:format><dc:type
         rdf:resource="http://purl.org/dc/dcmitype/StillImage" /><dc:title></dc:title></cc:Work></rdf:RDF></metadata><sodipodi:namedview
   pagecolor="#ffffff"
   bordercolor="#666666"
   borderopacity="1"
   objecttolerance="10"
   gridtolerance="10"
   guidetolerance="10"
   inkscape:pageopacity="0"
   inkscape:pageshadow="2"
   inkscape:window-width="1338"
   inkscape:window-height="739"
   id="namedview100"
   showgrid="false"
   inkscape:zoom="7.0644681"
   inkscape:cx="132.33164"
   inkscape:cy="25.291694"
   inkscape:window-x="0"
   inkscape:window-y="0"
   inkscape:window-maximized="1"
   inkscape:current-layer="svg98" />
 <defs
   id="defs4"><color-profile
   name="sRGB"
   xlink:href="/usr/share/color/icc/sRGB.icc"
   id="color-profile104" />
  <style
   type="text/css"
   id="style2">
   <![CDATA[
    .fil1 {fill:#FEFEFE}
    .fil0 {fill:#2B2A29;fill-rule:nonzero}
    .fil2 {fill:#FFED00;fill-rule:nonzero}
   ]]>
  </style>
 
  
  
 </defs>
 <g
   id="_1846981389920">
   <g
   id="g10">
    <path
   style="fill:#000000;fill-rule:nonzero"
   inkscape:connector-curvature="0"
   id="path7"
   d="m 15546.7,7447.9 6184.6,7100.6 c 239.7,-72.8 482.8,-137.8 729.1,-194.4 L 24268.7,5100 c 144.8,-742.3 1219.8,-710.5 1343.5,16.4 l 1805,9237.7 c 246.4,56.5 489.4,121.6 729.1,194.4 L 34338.8,7439 c 498.4,-572.6 1416.6,-1.6 1154.2,691 l -3053.3,8895.7 c 184.3,172 362.7,350.3 534.7,534.6 l 8916.5,-3060.4 c 715.9,-245.5 1225.7,702.8 656.9,1172.9 l -7096.2,6180.8 c 72.8,239.7 137.5,482.8 194.1,729.2 l 9254.4,1808.3 c 742.7,144.9 710.2,1221.1 -17.5,1343.7 l -9236.7,1804.8 c -56.5,246.4 -121.5,489.4 -194.3,729.1 l 7109.5,6192.5 c 571,497.1 4.5,1413.5 -687.4,1155.5 l -8899.4,-3054.6 c -172,184.2 -350.4,362.5 -534.6,534.4 l 3060.5,8916.8 c 244.3,712.4 -695.2,1223.2 -1168.4,662.1 l -6185.5,-7101.6 c -239.5,72.8 -482.7,137.5 -729,194.1 L 25609,45022.5 c -144,737.7 -1209.5,712.5 -1341.8,-7.7 l -1806.7,-9246.6 c -246.3,-56.5 -489.4,-121.6 -729.1,-194.4 l -6192.5,7109.6 c -495.1,568.7 -1407.9,9.5 -1157.5,-681.4 L 17438,33096.7 c -184.1,-172.1 -362.5,-350.4 -534.5,-534.6 l -8916.7,3060.4 c -735.8,252.3 -1205.6,-694.9 -644.9,-1183.3 l 7084.3,-6170.5 c -72.8,-239.5 -137.5,-482.7 -194.1,-729 L 4977.6,25731.4 c -735.7,-143.6 -713.4,-1204.9 3.7,-1341.1 l 9250.4,-1807.5 c 56.5,-246.3 121.5,-489.5 194.3,-729.2 L 7316.6,15661.2 c -570.2,-496.3 -6.5,-1411 685.1,-1156.2 l 8901.6,3055.3 c 172,-184.3 350.4,-362.6 534.6,-534.6 L 14377.5,8109.1 C 14133,7396 15073.8,6885.8 15546.7,7447.9 Z"
   class="fil0" />
    <path
   style="fill:#fefefe"
   inkscape:connector-curvature="0"
   d="m 15546.7,7447.9 6184.6,7100.6 c 239.7,-72.8 482.8,-137.8 729.1,-194.4 L 24268.7,5100 c 144.8,-742.3 1219.8,-710.5 1343.5,16.4 l 1805,9237.7 c 246.4,56.5 489.4,121.6 729.1,194.4 L 34338.8,7439 c 498.4,-572.6 1416.6,-1.6 1154.2,691 l -3053.3,8895.7 c 184.3,172 362.7,350.3 534.7,534.6 l 8916.5,-3060.4 c 715.9,-245.5 1225.7,702.8 656.9,1172.9 l -7096.2,6180.8 c 72.8,239.7 137.5,482.8 194.1,729.2 l 9254.4,1808.3 c 742.7,144.9 710.2,1221.1 -17.5,1343.7 l -9236.7,1804.8 c -56.5,246.4 -121.5,489.4 -194.3,729.1 l 7109.5,6192.5 c 571,497.1 4.5,1413.5 -687.4,1155.5 l -8899.4,-3054.6 c -172,184.2 -350.4,362.5 -534.6,534.4 l 3060.5,8916.8 c 244.3,712.4 -695.2,1223.2 -1168.4,662.1 l -6185.5,-7101.6 c -239.5,72.8 -482.7,137.5 -729,194.1 L 25609,45022.5 c -144,737.7 -1209.5,712.5 -1341.8,-7.7 l -1806.7,-9246.6 c -246.3,-56.5 -489.4,-121.6 -729.1,-194.4 l -6192.5,7109.6 c -495.1,568.7 -1407.9,9.5 -1157.5,-681.4 L 17438,33096.7 c -184.1,-172.1 -362.5,-350.4 -534.5,-534.6 l -8916.7,3060.4 c -735.8,252.3 -1205.6,-694.9 -644.9,-1183.3 l 7084.3,-6170.5 c -72.8,-239.5 -137.5,-482.7 -194.1,-729 L 4977.6,25731.4 c -735.7,-143.6 -713.4,-1204.9 3.7,-1341.1 l 9250.4,-1807.5 c 56.5,-246.3 121.5,-489.5 194.3,-729.2 L 7316.6,15661.2 c -570.2,-496.3 -6.5,-1411 685.1,-1156.2 l 8901.6,3055.3 c 172,-184.3 350.4,-362.6 534.6,-534.6 L 14377.5,8109.1 C 14133,7396 15073.8,6885.8 15546.7,7447.9 Z m 5918.6,7332.1 -6184.6,-7100.6 -2.7,-5.5 c -69.2,-82.3 -158.2,-116.5 -244.3,-114.3 -57.8,1.5 -117.4,19.3 -171.8,49.9 -52.9,29.7 -97.9,70.4 -128.1,118.3 -44.1,69.7 -58.7,162.1 -22.8,266.9 l 3060.4,8916.6 74,215.6 -167.7,156.5 c -79.2,73.9 -166.8,158.9 -262.8,254.9 -95.3,95.3 -180.3,182.9 -253.9,261.8 l -156.4,167.8 -215.7,-74.1 -8901.6,-3055.3 -6.9,-2.7 c -102.3,-37.7 -196.7,-23.4 -269.7,21.2 -50.6,31 -93.7,75.9 -124.9,128.3 -30.6,51.4 -49.2,109.1 -51.7,166.5 -3.6,82.5 29.9,170.2 114,243.4 l 7109.4,6192.4 171.3,149.2 -66.5,218.8 c -32.2,106.1 -65.6,223.6 -99.7,351.7 -30.8,115.8 -60.2,234.1 -87.7,354.1 l -51.2,223.5 -224.5,43.8 -9250.4,1807.5 h -2.7 c -103.8,19.7 -176.1,78.9 -216.1,153 -28.9,53.5 -43.7,114.3 -44,174.3 -0.3,59.8 13.4,119.6 41.2,171.4 38.5,71.9 110.8,129.7 217.9,150.6 l 9254.5,1808.3 224.5,43.8 51.2,223.5 c 27.7,120.9 57.3,240 88.3,356.6 33.9,127.3 66.9,243.6 98.9,349 l 66.5,218.8 -171.3,149.2 -7084.3,6170.5 c -90.9,79.2 -129.2,179.5 -127.1,274.8 1.3,59.8 18.7,120.3 48.7,174 28.5,51 67.2,93.6 112.6,120.8 66.4,39.9 157.2,51 264.8,14.2 l 8916.7,-3060.4 215.5,-74 156.6,167.7 c 73.4,78.6 157.9,165.7 253.7,261.5 v 1.3 c 97.2,97.3 184.7,182.2 262.9,255.3 l 167.3,156.3 -73.6,214.4 -3056.6,8905.3 -2.7,5.5 c -36.6,101.2 -21.9,195.1 22.9,268.2 30.6,49.9 75.4,92.5 128,123.7 52.6,31.2 110.7,50 167.5,52.2 82.2,3.2 169.4,-30.4 242.3,-114.1 l 6192.5,-7109.6 149.2,-171.3 218.8,66.5 c 105.7,32.1 222.2,65.3 349.7,99.2 h 1.4 c 122.1,32.6 240.5,62.2 354.6,88.3 l 223.5,51.1 43.8,224.6 1806.7,9246.6 v 4.1 c 19.2,104.9 78.4,177.8 152.8,218.1 53.7,29 114.5,44 174.6,44.5 v 0 c 59.1,0.2 118.5,-13.4 170.7,-41.1 72.6,-38.5 131,-110.7 151.9,-217.9 l 1808.3,-9254.6 43.8,-224.5 223.5,-51.2 c 120.9,-27.7 240,-57.3 356.6,-88.3 127.3,-33.9 243.6,-66.9 349,-98.9 l 218.8,-66.5 149.2,171.3 6185.5,7101.6 2.7,4.1 c 69.7,82.7 158.4,117 243.7,114.8 57.7,-1.4 117.4,-19.4 171.8,-50 52.8,-29.7 97.7,-70.5 128.1,-118.6 43.9,-69.5 58.5,-161.8 22.6,-266.5 l -3060.5,-8916.8 -74.1,-215.7 167.8,-156.4 c 79.2,-73.9 166.9,-158.9 262.5,-254.5 95.6,-95.6 180.7,-183.3 254.2,-262 l 156.5,-167.7 215.6,74 8899.4,3054.6 8.3,4.1 c 101.7,37.9 196.3,23.4 269.8,-21.4 50.8,-31 93.9,-75.6 124.9,-127.5 30.8,-51.5 49.6,-109.3 52.3,-167 3.9,-82.7 -29.4,-170.8 -113.8,-244.2 l -7109.5,-6192.5 -171.3,-149.2 66.5,-218.8 c 32,-105.6 65.2,-222.1 99.2,-349.6 31,-116.6 60.6,-235.5 88.2,-356.1 l 51.1,-223.5 224.6,-43.8 9236.7,-1804.8 9.6,-1.4 c 107.1,-18 181.6,-77.4 222.4,-152.3 28.5,-52.2 43.4,-112 44.3,-171.8 0.9,-60.3 -11.9,-120.2 -38.6,-172.1 -37.9,-73.4 -110.7,-133 -220.2,-154.3 l -9254.4,-1808.3 -224.4,-43.8 -51.3,-223.5 c -27.7,-120.7 -57.2,-239.7 -88.2,-356.2 -33.8,-127.2 -66.9,-243.9 -99,-349.6 l -66.5,-218.8 171.3,-149.2 7096.2,-6180.8 6.9,-5.5 c 84.3,-69.6 119.3,-158.4 117.3,-243.7 -1.4,-58.9 -18.7,-118.5 -48.5,-172 -28.9,-51.9 -69.7,-97 -118.7,-128.4 -69.7,-44.7 -162.6,-60 -268.1,-24.2 l 0.1,0.4 -8916.5,3060.4 -215.6,74 -156.5,-167.7 c -73.7,-78.9 -158.5,-166.4 -254.1,-262 -95.6,-95.6 -183.4,-180.7 -262.7,-254.7 l -167.8,-156.4 74.1,-215.7 3053.3,-8895.7 4.1,-9.6 c 38.9,-102.8 25,-197.9 -19.8,-271.5 -30.4,-50 -75.2,-93 -127.8,-124.7 l 0.4,-0.6 c -51.5,-30.8 -109,-49.6 -166.2,-52.5 -83,-4.3 -171.7,29.1 -245.4,113.8 l -6192.5,7109.5 -149.2,171.3 -218.8,-66.5 c -105.6,-32 -222.1,-65.2 -349.6,-99.2 h -1.4 c -122.1,-32.6 -240.6,-62.2 -354.7,-88.3 l -223.5,-51.1 -43.8,-224.6 -1805,-9237.7 -1.4,-9.6 c -18.1,-106.5 -77.4,-180.7 -152.4,-221.5 -52.1,-28.4 -112.1,-43.4 -172.1,-44.2 -60.1,-0.9 -120.2,12.1 -172.3,39 -73.2,37.9 -132.4,110.2 -153.5,218.6 v 1.3 l -1808.3,9254.1 -43.8,224.3 -223.5,51.4 c -119.5,27.5 -237.5,56.8 -352.9,87.5 l 0.1,0.3 c -135.8,36.2 -253.6,69.6 -352.9,99.7 l -218.8,66.5 z"
   class="fil1"
   id="1" />
   </g>
   <g
   id="g16">
    <path
   style="fill:#ffed00;fill-rule:nonzero"
   inkscape:connector-curvature="0"
   id="path12"
   d="m 25980.7,14123.2 -1041.8,-5332 -1041.9,5332 c 720.7,-67.5 1363,-67.5 2083.7,0 z"
   class="fil2" />
    <path
   style="fill:#fefefe"
   inkscape:connector-curvature="0"
   d="m 25546.3,13737.7 -607.4,-3108.7 -607.5,3108.7 c 208.2,-11.9 409.4,-17.9 607.4,-17.9 198.1,0 399.3,6 607.5,17.9 z m 434.4,385.5 -1041.8,-5332 -1041.9,5332 c 720.7,-67.5 1363,-67.5 2083.7,0 z"
   class="fil1"
   id="path14" />
   </g>
   <g
   id="g22">
    <path
   style="fill:#ffed00;fill-rule:nonzero"
   inkscape:connector-curvature="0"
   id="path18"
   d="m 31311.5,16104.6 1761.5,-5132.3 -3563.9,4091.8 c 635.9,290.5 1239.1,639.6 1802.4,1040.5 z"
   class="fil2" />
    <path
   style="fill:#fefefe"
   inkscape:connector-curvature="0"
   d="m 31127.8,15553.9 1025.9,-2989.2 -2076,2383.5 c 179.9,91.4 357.4,187.7 532.2,288.6 h 1.4 c 174.8,101 347.1,206.8 516.5,317.1 z m 183.7,550.7 1761.5,-5132.3 -3563.9,4091.8 c 635.9,290.5 1239.1,639.6 1802.4,1040.5 z"
   class="fil1"
   id="path20" />
   </g>
   <g
   id="g28">
    <path
   style="fill:#ffed00;fill-rule:nonzero"
   inkscape:connector-curvature="0"
   id="path24"
   d="m 34936.1,20490.8 4091.5,-3563.8 -5131.9,1761.4 c 400.9,563.4 750,1166.5 1040.4,1802.4 z"
   class="fil2" />
    <path
   style="fill:#fefefe"
   inkscape:connector-curvature="0"
   d="m 35052.1,19922.2 2383.2,-2075.9 -2988.9,1025.8 c 110.4,169.5 216.2,341.8 317.2,516.8 v 1.4 c 100.8,174.7 197.1,352.1 288.5,531.9 z m -116,568.6 4091.5,-3563.8 -5131.9,1761.4 c 400.9,563.4 750,1166.5 1040.4,1802.4 z"
   class="fil1"
   id="path26" />
   </g>
   <g
   id="g34">
    <path
   style="fill:#ffed00;fill-rule:nonzero"
   inkscape:connector-curvature="0"
   id="path30"
   d="m 35876.8,26103 5332,-1041.8 -5331.9,-1041.9 c 67.6,720.2 67.4,1363.6 -0.1,2083.7 z"
   class="fil2" />
    <path
   style="fill:#fefefe"
   inkscape:connector-curvature="0"
   d="m 36262.3,25668.6 3108.8,-607.4 -3109.2,-607.6 c 11.4,204.7 17.1,406.1 17,607.6 h 1.4 c 0,198 -6,399.3 -18,607.4 z m -385.5,434.4 5332,-1041.8 -5331.9,-1041.9 c 67.6,720.2 67.4,1363.6 -0.1,2083.7 z"
   class="fil1"
   id="path32" />
   </g>
   <g
   id="g40">
    <path
   style="fill:#ffed00;fill-rule:nonzero"
   inkscape:connector-curvature="0"
   id="path36"
   d="m 33895.5,31433.9 5132.2,1761.5 -4091.7,-3563.9 c -290.4,635.9 -639.6,1239 -1040.5,1802.4 z"
   class="fil2" />
    <path
   style="fill:#fefefe"
   inkscape:connector-curvature="0"
   d="m 34446,31250.1 2989.4,1026 -2383.4,-2076 c -91.4,179.8 -187.6,357.1 -288.4,531.7 -102.1,176.9 -208,349.7 -317.6,518.3 z m -550.5,183.8 5132.2,1761.5 -4091.7,-3563.9 c -290.4,635.9 -639.6,1239 -1040.5,1802.4 z"
   class="fil1"
   id="path38" />
   </g>
   <g
   id="g46">
    <path
   style="fill:#ffed00;fill-rule:nonzero"
   inkscape:connector-curvature="0"
   id="path42"
   d="m 29509.2,35058.3 3563.9,4091.7 -1761.5,-5132.1 c -563.4,401 -1166.5,750 -1802.4,1040.4 z"
   class="fil2" />
    <path
   style="fill:#fefefe"
   inkscape:connector-curvature="0"
   d="m 30077.8,35174.3 2076,2383.3 -1026,-2989.2 c -168.5,109.5 -341.1,215.3 -517.8,317.3 -174.8,100.9 -352.3,197.2 -532.2,288.6 z m -568.6,-116 3563.9,4091.7 -1761.5,-5132.1 c -563.4,401 -1166.5,750 -1802.4,1040.4 z"
   class="fil1"
   id="path44" />
   </g>
   <g
   id="g52">
    <path
   style="fill:#ffed00;fill-rule:nonzero"
   inkscape:connector-curvature="0"
   id="path48"
   d="m 23897,35999.1 1041.9,5332.1 1041.8,-5332 c -720.4,67.5 -1363.2,67.4 -2083.7,-0.1 z"
   class="fil2" />
    <path
   style="fill:#fefefe"
   inkscape:connector-curvature="0"
   d="m 24331.4,36384.6 607.5,3108.8 607.4,-3108.7 c -208.1,11.9 -409.4,17.9 -607.4,17.9 -198.1,0 -399.3,-6 -607.5,-18 z m -434.4,-385.5 1041.9,5332.1 1041.8,-5332 c -720.4,67.5 -1363.2,67.4 -2083.7,-0.1 z"
   class="fil1"
   id="path50" />
   </g>
   <g
   id="g58">
    <path
   style="fill:#ffed00;fill-rule:nonzero"
   inkscape:connector-curvature="0"
   id="path54"
   d="m 18566.2,34017.8 -1761.6,5132.2 3563.9,-4091.7 c -635.9,-290.4 -1238.9,-639.6 -1802.3,-1040.5 z"
   class="fil2" />
    <path
   style="fill:#fefefe"
   inkscape:connector-curvature="0"
   d="m 18750,34568.3 -1026.1,2989.3 2075.8,-2383.2 c -181.4,-92 -359.1,-188.3 -532.7,-288.5 l 0.4,-0.6 c -176.6,-101.9 -349.1,-207.7 -517.4,-317 z m -183.8,-550.5 -1761.6,5132.2 3563.9,-4091.7 c -635.9,-290.4 -1238.9,-639.6 -1802.3,-1040.5 z"
   class="fil1"
   id="path56" />
   </g>
   <g
   id="g64">
    <path
   style="fill:#ffed00;fill-rule:nonzero"
   inkscape:connector-curvature="0"
   id="path60"
   d="m 14941.8,29631.5 -4091.7,3563.9 5132.1,-1761.5 c -400.9,-563.4 -750,-1166.5 -1040.4,-1802.4 z"
   class="fil2" />
    <path
   style="fill:#fefefe"
   inkscape:connector-curvature="0"
   d="m 14825.8,30200.1 -2383.3,2076 2989,-1025.9 c -110.4,-169.5 -216.2,-341.8 -317.2,-516.8 v -1.4 c -100.8,-174.7 -197.1,-352.1 -288.5,-531.9 z m 116,-568.6 -4091.7,3563.9 5132.1,-1761.5 c -400.9,-563.4 -750,-1166.5 -1040.4,-1802.4 z"
   class="fil1"
   id="path62" />
   </g>
   <g
   id="g70">
    <path
   style="fill:#ffed00;fill-rule:nonzero"
   inkscape:connector-curvature="0"
   id="path66"
   d="m 14000.9,24019.4 -5332,1041.8 5331.9,1041.9 c -67.5,-720.1 -67.4,-1363.7 0.1,-2083.7 z"
   class="fil2" />
    <path
   style="fill:#fefefe"
   inkscape:connector-curvature="0"
   d="m 13615.4,24453.8 -3108.8,607.4 3108.7,607.5 c -11.9,-208.2 -17.9,-409.5 -17.9,-607.5 0,-198 6,-399.3 18,-607.4 z m 385.5,-434.4 -5332,1041.8 5331.9,1041.9 c -67.5,-720.1 -67.4,-1363.7 0.1,-2083.7 z"
   class="fil1"
   id="path68" />
   </g>
   <g
   id="g76">
    <path
   style="fill:#ffed00;fill-rule:nonzero"
   inkscape:connector-curvature="0"
   id="path72"
   d="m 15982,18688.4 -5131.9,-1761.4 4091.5,3563.7 c 290.4,-635.9 639.5,-1238.9 1040.4,-1802.3 z"
   class="fil2" />
    <path
   style="fill:#fefefe"
   inkscape:connector-curvature="0"
   d="m 15431.5,18872.2 -2989.1,-1025.9 2383.2,2075.8 c 91.4,-179.8 187.6,-357.1 288.4,-531.7 102.1,-176.9 208,-349.7 317.5,-518.2 z m 550.5,-183.8 -5131.9,-1761.4 4091.5,3563.7 c 290.4,-635.9 639.5,-1238.9 1040.4,-1802.3 z"
   class="fil1"
   id="path74" />
   </g>
   <g
   id="g82">
    <path
   style="fill:#ffed00;fill-rule:nonzero"
   inkscape:connector-curvature="0"
   id="path78"
   d="m 20368.5,15064.1 -3563.9,-4091.6 1761.6,5132.1 c 563.4,-400.9 1166.4,-750.1 1802.3,-1040.5 z"
   class="fil2" />
    <path
   style="fill:#fefefe"
   inkscape:connector-curvature="0"
   d="m 19799.7,14948 -2075.8,-2383.1 1026.1,2989.2 c 168.3,-109.3 340.8,-215.1 517.4,-317 l -0.4,-0.6 c 173.6,-100.2 351.3,-196.5 532.7,-288.5 z m 568.8,116.1 -3563.9,-4091.6 1761.6,5132.1 c 563.4,-400.9 1166.4,-750.1 1802.3,-1040.5 z"
   class="fil1"
   id="path80" />
   </g>
   <g
   id="g88">
    <path
   style="fill:#ffed00;fill-rule:nonzero"
   inkscape:connector-curvature="0"
   id="path84"
   d="m 19421.1,19543.6 c -3047.3,3047.4 -3047.2,7988.1 0.2,11035.4 3047.4,3047.3 7988.1,3047.1 11035.4,-0.3 3047.2,-3047.5 3047.2,-7988 -0.3,-11035.4 -3047.5,-3047.2 -7988,-3047.2 -11035.3,0.3 z"
   class="fil2" />
    <path
   style="fill:#fefefe"
   inkscape:connector-curvature="0"
   d="m 19670.5,19793 c -1454.6,1454.7 -2182,3361.6 -2182,5268.3 0,1906.7 727.5,3813.6 2182.2,5268.3 1454.7,1454.6 3361.6,2182 5268.3,2182 v 1.4 c 1905.8,0 3812.7,-728.1 5268.3,-2183.7 1454.6,-1454.8 2182,-3361.7 2182,-5268.4 h 1.4 c 0,-1905.8 -728.1,-3812.6 -2183.7,-5268.2 -1454.8,-1454.6 -3361.7,-2182 -5268.4,-2182 v -1.4 c -1905.6,0 -3812.5,728.1 -5268.1,2183.7 z m -249.4,-249.4 c -3047.3,3047.4 -3047.2,7988.1 0.2,11035.4 3047.4,3047.3 7988.1,3047.1 11035.4,-0.3 3047.2,-3047.5 3047.2,-7988 -0.3,-11035.4 -3047.5,-3047.2 -7988,-3047.2 -11035.3,0.3 z"
   class="fil1"
   id="path86" />
   </g>
   <g
   id="g94">
    <path
   style="fill:#ffed00;fill-rule:nonzero"
   inkscape:connector-curvature="0"
   id="path90"
   d="m 18201.5,18324.1 c -3720.8,3721 -3720.6,9753.6 0.3,13474.4 3720.9,3720.9 9753.6,3720.7 13474.4,-0.3 3720.8,-3721 3720.7,-9753.5 -0.3,-13474.4 -3721.1,-3720.8 -9753.5,-3720.8 -13474.4,0.3 z"
   class="fil2" />
    <path
   style="fill:#fefefe"
   inkscape:connector-curvature="0"
   d="m 18450.9,18573.5 c -1791.4,1791.5 -2687.1,4139.8 -2687.1,6487.8 h -1.4 c 0,2347.2 896.4,4695.5 2688.8,6487.8 l 0.2,0.2 c 1791.4,1791.3 4139.6,2687 6487.7,2687 v 1.4 c 2347,0 4695.2,-896.4 6487.5,-2688.7 l 0.2,-0.2 c 1792.3,-1792.4 2688.5,-4140.7 2688.5,-6487.9 h -1.4 c 0,-2348 -895.9,-4696.3 -2687.4,-6487.7 C 29634.9,16781.8 27286.6,15886 24938.6,15886 v -1.4 c -2347.2,0 -4695.4,896.5 -6487.7,2688.9 z m -249.4,-249.4 c -3720.8,3721 -3720.6,9753.6 0.3,13474.4 3720.9,3720.9 9753.6,3720.7 13474.4,-0.3 3720.8,-3721 3720.7,-9753.5 -0.3,-13474.4 -3721.1,-3720.8 -9753.5,-3720.8 -13474.4,0.3 z"
   class="fil1"
   id="path92" />
   </g>
  </g>
</svg>