<?xml version="1.0" encoding="UTF-8" standalone="no"?>
<!-- Creator: CorelDRAW 2019 (64-Bit) -->

<svg
   xmlns:dc="http://purl.org/dc/elements/1.1/"
   xmlns:cc="http://creativecommons.org/ns#"
   xmlns:rdf="http://www.w3.org/1999/02/22-rdf-syntax-ns#"
   xmlns:svg="http://www.w3.org/2000/svg"
   xmlns="http://www.w3.org/2000/svg"
   xmlns:sodipodi="http://sodipodi.sourceforge.net/DTD/sodipodi-0.dtd"
   xmlns:inkscape="http://www.inkscape.org/namespaces/inkscape"
   xml:space="preserve"
   width="50mm"
   height="50mm"
   version="1.1"
   style="shape-rendering:geometricPrecision; text-rendering:geometricPrecision; image-rendering:optimizeQuality; fill-rule:evenodd; clip-rule:evenodd"
   viewBox="0 0 50000 50000"
   id="svg20"
   sodipodi:docname="01n.svg"
   inkscape:version="0.92.5 (2060ec1f9f, 2020-04-08)"><metadata
   id="metadata24"><rdf:RDF><cc:Work
       rdf:about=""><dc:format>image/svg+xml</dc:format><dc:type
         rdf:resource="http://purl.org/dc/dcmitype/StillImage" /></cc:Work></rdf:RDF></metadata><sodipodi:namedview
   pagecolor="#ffffff"
   bordercolor="#666666"
   borderopacity="1"
   objecttolerance="10"
   gridtolerance="10"
   guidetolerance="10"
   inkscape:pageopacity="0"
   inkscape:pageshadow="2"
   inkscape:window-width="640"
   inkscape:window-height="480"
   id="namedview22"
   showgrid="false"
   inkscape:zoom="1.2488333"
   inkscape:cx="94.488189"
   inkscape:cy="94.488189"
   inkscape:window-x="0"
   inkscape:window-y="0"
   inkscape:window-maximized="0"
   inkscape:current-layer="svg20" />
 <defs
   id="defs4">
  <style
   type="text/css"
   id="style2">
   <![CDATA[
    .str0 {stroke:#FEFEFE;stroke-width:352.8;stroke-linejoin:round;stroke-miterlimit:22.9256}
    .fil0 {fill:#FFED00}
    .fil1 {fill:#2B2A29;fill-rule:nonzero}
   ]]>
  </style>
 
  
  
  
  
  
  
  
 </defs>
 <polygon
   style="fill:#ffed00"
   id="polygon7"
   points="48936.7,9584.9 43887,11411.7 44084.7,16778.1 40786.8,12540.1 35744.1,14386.4 38755.6,9940.3 35441.4,5715 40600.6,7205.1 43594.9,2747.4 43771.9,8114.5 "
   class="fil0" /><path
   style="fill:#000000;fill-rule:nonzero;stroke:#fefefe;stroke-width:352.79998779;stroke-linejoin:round;stroke-miterlimit:22.92560005"
   inkscape:connector-curvature="0"
   id="path9"
   d="m 44473.6,2732.6 155.5,4709.8 4548.8,1295.1 c 468,133.2 739.5,620.7 606.3,1088.7 -86,302.1 -319.7,522.3 -600.4,604.6 l -4394.6,1590 174.1,4726.3 c 17.1,485.1 -362.4,892.4 -847.5,909.5 -293,10.3 -557.6,-124.1 -725,-339.1 l -1.9,1.5 -2903.3,-3730.6 -4438.3,1624.8 c -456.6,167.4 -962.6,-67 -1130,-523.6 -109.6,-299 -46.9,-619.2 137.6,-851.6 l 2613,-3857.6 -2919.1,-3721.1 c -300.6,-382.4 -234.2,-936.2 148.2,-1236.8 248.3,-195.1 568.7,-235.6 845.3,-135.3 l 4485.9,1295.7 2636.1,-3924.8 c 270.1,-403.3 816.3,-511.3 1219.6,-241.2 248.5,166.4 384.8,437.6 389.7,715.7 z M 42893.4,8142.1 42806.1,5498 41330.9,7694.4 c -207.3,309.5 -598.2,464 -975,354.9 l -2539.3,-733.5 1631.7,2080 -2,1.5 c 229.9,292.4 256.2,711.2 36.4,1035.5 l -1483.6,2190.2 2447.7,-896 c 358.2,-150 786.2,-48.9 1035.9,272.4 l 1623.2,2085.8 -96.1,-2608.9 c -28.3,-383.1 198.7,-753.9 577.6,-891.2 L 46073,9685.8 43530.7,8962 l 0.6,-2 c -358.2,-101.9 -625.6,-425.9 -637.9,-817.9 z"
   class="fil1 str0" /><path
   style="fill:#ffed00"
   inkscape:connector-curvature="0"
   id="path11"
   d="m 30975.5,10179.6 c 724.4,-8.5 1437,36.9 2134.5,130.7 -5309.9,1106.8 -10650.1,6652.9 -10561.9,14140 88.2,7487.2 5574.4,14330.5 10908.9,15311.8 -695.1,110.3 -1406.4,172.4 -2130.8,181 -8134.7,95.8 -14807.9,-6489.2 -14904.7,-14708.2 -96.8,-8219 6419.3,-14959.4 14554,-15055.3 z"
   class="fil0" /><path
   style="fill:#000000;fill-rule:nonzero;stroke:#fefefe;stroke-width:352.79998779;stroke-linejoin:round;stroke-miterlimit:22.92560005"
   inkscape:connector-curvature="0"
   id="path13"
   d="m 30968.7,9301.1 c 392,-4.5 767.8,4.5 1126.8,26.4 376.2,23 753.9,60.4 1131.6,111.2 481.3,64.6 819.1,507.4 754.5,988.7 -51,379.8 -337.5,670.2 -692.5,744 -2605.8,543.3 -5229.5,2252.6 -7118.8,4782 -1689.4,2261.6 -2782.7,5172.7 -2743.7,8486.7 40.4,3438.2 1286.6,6739.6 3137.7,9337.7 1942,2725.9 4528.2,4655.6 7051.3,5119.7 477.5,87.5 793.7,545.7 706.2,1023.2 -70.2,383.3 -379.4,662.6 -745.6,712.7 -386.1,60.8 -756.7,106.7 -1110.1,136.6 -345.5,29.3 -721.9,46.8 -1129.5,51.6 -4312.4,50.7 -8236.3,-1667.9 -11093.7,-4487.6 -2856.2,-2818.5 -4648.7,-6737.8 -4699.9,-11088.8 -51.2,-4351.1 1647.3,-8310.4 4434.8,-11193.9 2791.5,-2887.8 6674.9,-4699.4 10987.5,-4750.2 z m -6210.8,5598.1 c 1085.8,-1453.6 2393.3,-2670.3 3810.5,-3599.3 -2846.5,542 -5381.8,1963.1 -7322.8,3971 -2480,2565.4 -3991.1,6086.1 -3945.6,9953.7 45.5,3867.7 1638.3,7350.9 4176.3,9855.4 2089.5,2062 4819.2,3460.7 7852.6,3864.8 -1548.9,-1031.8 -2992.8,-2455.9 -4197.8,-4147.2 -2041.8,-2865.8 -3416.6,-6519 -3461.5,-10336.9 -43.9,-3736.4 1186.6,-7015.7 3088.3,-9561.5 z"
   class="fil1 str0" /><polygon
   style="fill:#ffed00"
   id="polygon15"
   points="15960.1,40332 11868.8,41812.1 12029,46160 9357,42726.3 5271.4,44222.2 7711.4,40620 5026.2,37196.6 9206.1,38403.9 11632.2,34792.3 11775.6,39140.7 "
   class="fil0" /><path
   style="fill:#000000;fill-rule:nonzero;stroke:#fefefe;stroke-width:352.79998779;stroke-linejoin:round;stroke-miterlimit:22.92560005"
   inkscape:connector-curvature="0"
   id="path17"
   d="m 12510.9,34777.5 121.9,3691.1 3568.5,1016 c 468,133.2 739.5,620.7 606.3,1088.7 -86,302.1 -319.7,522.3 -600.4,604.6 l -3436.2,1243.3 136.6,3707.8 c 17.1,485.1 -362.4,892.4 -847.5,909.5 -293,10.3 -557.6,-124.1 -725,-339.1 l -1.9,1.5 L 9055.8,43774.6 5574.6,45049 c -456.6,167.4 -962.6,-67 -1130,-523.6 -109.6,-299 -46.9,-619.2 137.6,-851.6 l 2041.4,-3013.7 -2290,-2919.2 c -300.6,-382.4 -234.2,-936.2 148.2,-1236.8 248.3,-195.2 568.7,-235.6 845.3,-135.3 l 3506.7,1012.9 2067.8,-3078.7 c 270.1,-403.3 816.3,-511.3 1219.6,-241.2 248.5,166.4 384.8,437.6 389.7,715.7 z m -1613.8,4390.8 -53.7,-1625.4 -906.9,1350.3 c -207.3,309.5 -598.2,464 -975,354.9 l -1560.1,-450.6 1002.6,1278 -2,1.5 c 229.9,292.4 256.2,711.2 36.4,1035.5 l -912,1346.4 1490.6,-545.7 c 358.2,-150 786.2,-48.9 1035.9,272.4 l 997.3,1281.5 -58.6,-1590.4 c -28.3,-383.1 198.7,-753.9 577.6,-891.2 l 1527.2,-552.6 -1562,-444.7 0.6,-2 c -358.2,-101.9 -625.6,-425.9 -637.9,-817.9 z"
   class="fil1 str0" />
</svg>