<?xml version="1.0" encoding="UTF-8" standalone="no"?>
<!-- Creator: CorelDRAW 2019 (64-Bit) -->

<svg
   xmlns:dc="http://purl.org/dc/elements/1.1/"
   xmlns:cc="http://creativecommons.org/ns#"
   xmlns:rdf="http://www.w3.org/1999/02/22-rdf-syntax-ns#"
   xmlns:svg="http://www.w3.org/2000/svg"
   xmlns="http://www.w3.org/2000/svg"
   xmlns:sodipodi="http://sodipodi.sourceforge.net/DTD/sodipodi-0.dtd"
   xmlns:inkscape="http://www.inkscape.org/namespaces/inkscape"
   xml:space="preserve"
   width="50mm"
   height="50mm"
   version="1.1"
   style="shape-rendering:geometricPrecision; text-rendering:geometricPrecision; image-rendering:optimizeQuality; fill-rule:evenodd; clip-rule:evenodd"
   viewBox="0 0 50000 50000"
   id="svg108"
   sodipodi:docname="02d.svg"
   inkscape:version="0.92.5 (2060ec1f9f, 2020-04-08)"><metadata
   id="metadata112"><rdf:RDF><cc:Work
       rdf:about=""><dc:format>image/svg+xml</dc:format><dc:type
         rdf:resource="http://purl.org/dc/dcmitype/StillImage" /></cc:Work></rdf:RDF></metadata><sodipodi:namedview
   pagecolor="#ffffff"
   bordercolor="#666666"
   borderopacity="1"
   objecttolerance="10"
   gridtolerance="10"
   guidetolerance="10"
   inkscape:pageopacity="0"
   inkscape:pageshadow="2"
   inkscape:window-width="640"
   inkscape:window-height="480"
   id="namedview110"
   showgrid="false"
   inkscape:zoom="14.128936"
   inkscape:cx="56.518967"
   inkscape:cy="121.3209"
   inkscape:window-x="0"
   inkscape:window-y="0"
   inkscape:window-maximized="0"
   inkscape:current-layer="svg108" />
 <defs
   id="defs4">
  <style
   type="text/css"
   id="style2">
   <![CDATA[
    .str0 {stroke:#FEFEFE;stroke-width:352.8;stroke-linejoin:round;stroke-miterlimit:2.61313}
    .fil1 {fill:#FEFEFE}
    .fil3 {fill:#2B2A29}
    .fil4 {fill:#FEFEFE;fill-rule:nonzero}
    .fil5 {fill:#2B2A29;fill-rule:nonzero}
    .fil0 {fill:#2B2A29;fill-rule:nonzero}
    .fil2 {fill:#FFED00;fill-rule:nonzero}
   ]]>
  </style>
 
  
  
 
   
   
  
    
    
    
   
    
    
    
    
    
    
    
    
    
    
    
    
    
    
    
   
     
     
    </defs>
 <path
   class="fil0"
   d="m 14015.4,11845.8 4269.6,4901.9 c 165.4,-50.2 333.2,-95.1 503.3,-134.2 l 1248.4,-6388.7 c 99.9,-512.4 842,-490.4 927.4,11.4 l 1246.1,6377.3 c 170.1,39 337.9,83.9 503.4,134.2 l 4275,-4908.1 c 344,-395.3 978,-1.1 796.8,477 l -2107.9,6141.2 c 127.2,118.8 250.4,241.9 369.2,369.1 l 6155.5,-2112.8 c 494.2,-169.4 846.2,485.2 453.5,809.8 l -4898.9,4266.9 c 50.3,165.5 94.9,333.3 134,503.4 l 6388.8,1248.3 c 512.8,100.1 490.4,843.1 -12,927.7 L 27891,25716.1 c -39.1,170.1 -83.9,337.9 -134.2,503.4 l 4908.1,4275 c 394.2,343.2 3.1,975.8 -474.5,797.7 l -6143.8,-2108.8 c -118.7,127.2 -241.9,250.3 -369.1,369 l 2112.9,6155.7 c 168.6,491.9 -479.9,844.5 -806.7,457.1 l -4270.1,-4902.6 c -165.4,50.2 -333.3,94.9 -503.3,134 l -1248.4,6388.9 c -99.4,509.4 -835,491.9 -926.3,-5.3 l -1247.3,-6383.4 c -170,-39 -337.8,-83.9 -503.3,-134.2 l -4275,4908.2 c -341.8,392.6 -972,6.5 -799.1,-470.5 L 15321,29552.5 c -127.1,-118.8 -250.2,-241.9 -368.9,-369.1 l -6155.8,2112.9 c -507.9,174.1 -832.2,-479.8 -445.2,-817 l 4890.7,-4259.8 c -50.2,-165.4 -94.9,-333.3 -134,-503.3 L 6718.9,24467.8 c -507.9,-99.1 -492.5,-831.7 2.6,-925.8 l 6386,-1247.8 c 39.1,-170.1 84,-337.9 134.2,-503.4 l -4908,-4274.9 c -393.7,-342.7 -4.5,-974.1 472.9,-798.3 l 6145.3,2109.3 c 118.7,-127.2 241.9,-250.3 369.1,-369.1 l -2112.8,-6155.6 c -168.8,-492.3 480.7,-844.5 807.2,-456.4 z"
   id="path7"
   inkscape:connector-curvature="0"
   style="fill:#000000;fill-rule:nonzero" /><path
   id="1"
   class="fil1"
   d="m 14015.4,11845.8 4269.6,4901.9 c 165.4,-50.2 333.2,-95.1 503.3,-134.2 l 1248.4,-6388.7 c 99.9,-512.4 842,-490.4 927.4,11.4 l 1246.1,6377.3 c 170.1,39 337.9,83.9 503.4,134.2 l 4275,-4908.1 c 344,-395.3 978,-1.1 796.8,477 l -2107.9,6141.2 c 127.2,118.8 250.4,241.9 369.2,369.1 l 6155.5,-2112.8 c 494.2,-169.4 846.2,485.2 453.5,809.8 l -4898.9,4266.9 c 50.3,165.5 94.9,333.3 134,503.4 l 6388.8,1248.3 c 512.8,100.1 490.4,843.1 -12,927.7 L 27891,25716.1 c -39.1,170.1 -83.9,337.9 -134.2,503.4 l 4908.1,4275 c 394.2,343.2 3.1,975.8 -474.5,797.7 l -6143.8,-2108.8 c -118.7,127.2 -241.9,250.3 -369.1,369 l 2112.9,6155.7 c 168.6,491.9 -479.9,844.5 -806.7,457.1 l -4270.1,-4902.6 c -165.4,50.2 -333.3,94.9 -503.3,134 l -1248.4,6388.9 c -99.4,509.4 -835,491.9 -926.3,-5.3 l -1247.3,-6383.4 c -170,-39 -337.8,-83.9 -503.3,-134.2 l -4275,4908.2 c -341.8,392.6 -972,6.5 -799.1,-470.5 L 15321,29552.5 c -127.1,-118.8 -250.2,-241.9 -368.9,-369.1 l -6155.8,2112.9 c -507.9,174.1 -832.2,-479.8 -445.2,-817 l 4890.7,-4259.8 c -50.2,-165.4 -94.9,-333.3 -134,-503.3 L 6718.9,24467.8 c -507.9,-99.1 -492.5,-831.7 2.6,-925.8 l 6386,-1247.8 c 39.1,-170.1 84,-337.9 134.2,-503.4 l -4908,-4274.9 c -393.7,-342.7 -4.5,-974.1 472.9,-798.3 l 6145.3,2109.3 c 118.7,-127.2 241.9,-250.3 369.1,-369.1 l -2112.8,-6155.6 c -168.8,-492.3 480.7,-844.5 807.2,-456.4 z m 4003.6,5133.4 -4269.6,-4901.9 1.2,-1 c -1.3,-1.5 -2.6,-3 -3.9,-4.5 -24.1,-28.7 -54.4,-40.8 -83,-40.1 -21.2,0.5 -44.9,8 -67.7,20.8 -21.3,12 -38.9,27.4 -49.7,44.5 -12.7,20.1 -17,48.2 -7.7,82.2 1.1,2.9 2.1,5.7 3.1,8.6 l 2112.8,6155.6 -0.5,0.2 c 43.6,127.4 11.8,274.2 -93.2,371.9 -50.7,47.4 -110.2,105.1 -178.7,173.6 l -0.6,-0.6 c -51.2,51.2 -104,105.8 -158.3,163.7 -90.9,109.3 -243.3,157 -385.7,108.2 l -6145.3,-2109.3 0.1,-0.2 c -2.3,-0.8 -4.7,-1.6 -7,-2.5 -36.1,-13.3 -68.2,-9.1 -91.8,5.3 -17.2,10.5 -32.1,24.6 -43.4,40.7 -2,3.6 -4.1,7.2 -6.2,10.8 -12,20.1 -19.4,42.4 -20.3,63.7 -1.1,25.6 11.3,54.6 41.6,81 l 4908,4274.9 -0.7,0.9 c 101.1,88.1 146.9,230.5 105.5,367.1 -18.6,61.5 -41.1,141.3 -67.2,239 -20.9,78.7 -40,153.9 -56.5,225.2 -25.1,138.7 -132.6,254.5 -279.3,283.1 l -6386,1247.8 -0.1,-0.5 c -0.9,0.1 -1.7,0.3 -2.6,0.5 -35.7,6.7 -60.3,26.2 -73.2,50.2 -11.5,21.4 -17.5,45.7 -17.6,69.2 -0.1,23.4 5.1,46.7 15.6,66.2 12,22.4 36.9,40.9 75.3,48.4 l 6388.9,1248.4 -0.1,0.3 c 132.4,25.9 243.8,127.1 275.8,267 17.8,77.3 36.5,153.2 56,227.1 1.4,4.6 2.7,9.2 4,13.9 22.3,83.7 42.2,154.7 59,211.9 53.1,134.9 18.9,294.4 -96.7,395 l -4890.7,4259.8 -0.7,-0.8 c -35.6,31.3 -50.7,69.9 -49.9,106 0.5,23.7 7.7,48.4 20,70.4 10,17.9 23.4,32.8 38.5,41.9 19.7,11.9 50.7,13.9 91.4,0 l 6155.8,-2112.9 0.2,0.5 c 127.4,-43.6 274.2,-11.8 371.9,93.2 53,56.8 104.7,110.5 154.8,161.1 6.1,5.3 12,10.8 17.8,16.6 62,62 117,115.7 164.2,160.2 109.1,90.9 156.7,243.1 107.9,385.4 l -2110.1,6147.8 -0.7,-0.2 c -0.7,1.9 -1.3,3.8 -2,5.7 -12.8,35.5 -8.3,67.4 6.3,91.3 11.5,18.9 29.4,35.6 50.9,48.3 21.4,12.6 44,20.3 64.5,21.1 25.4,1 54.3,-11.3 80.6,-41.6 l 4275,-4908.2 0.9,0.7 c 88.1,-101.1 230.5,-146.9 367.1,-105.5 69.4,21 148.7,43.6 239.2,67.7 73.2,19.5 148.5,38.3 225.1,56 138.6,25.2 254.4,132.7 282.9,279.3 l 1247.3,6383.4 -0.8,0.2 c 0.3,1.3 0.6,2.6 0.8,3.9 6.7,36.3 26.1,61.2 50.1,74.2 21.6,11.7 46.1,17.8 69.7,18 19.4,0.2 39,-3.6 56.9,-11.1 2.9,-1.7 5.8,-3.3 8.8,-4.9 22.7,-12.1 41.6,-36.9 49,-75 l 1248.4,-6388.9 0.3,0.1 c 25.9,-132.4 127.1,-243.8 267,-275.8 77.3,-17.8 153.2,-36.5 227.1,-56 4.6,-1.4 9.2,-2.7 13.9,-4 83.7,-22.3 154.7,-42.1 211.8,-59 135,-53.1 294.5,-19 395.1,96.7 l 4270.1,4902.6 -0.5,0.4 c 1.1,1.2 2.1,2.5 3.2,3.7 24.7,29.3 54.7,41.6 82.5,40.9 21.3,-0.5 45.1,-8.1 67.9,-20.9 21,-11.8 38.7,-27.4 49.6,-44.8 12.6,-20 16.8,-48 7.6,-81.9 -1.1,-2.8 -2.1,-5.7 -3.1,-8.6 l -2112.9,-6155.7 0.5,-0.2 c -43.6,-127.4 -11.8,-274.2 93.2,-371.9 50.7,-47.3 110,-104.9 178.5,-173.4 61.2,-61.2 114.8,-116.1 159.2,-163.3 90.9,-109.3 243.2,-156.9 385.6,-108.1 l 6143.8,2108.8 -0.3,1 c 2.8,1 5.7,2 8.6,3.1 35.5,13.2 67.5,8.8 91.5,-5.8 19.8,-12.1 37,-30 49.5,-50.9 12.3,-20.5 19.8,-43 20.8,-64.5 1.2,-25.5 -11.1,-54.6 -41.5,-81.1 l -4908.1,-4275 0.7,-0.9 c -101.1,-88.1 -146.9,-230.5 -105.5,-367.1 20.9,-69 43.4,-148.1 67.4,-238.3 19.6,-73.7 38.5,-149.4 56.3,-226.3 25.3,-138.5 132.8,-254.2 279.3,-282.7 l 6376.6,-1245.9 0.1,0.3 c 3.1,-0.6 6.3,-1.2 9.5,-1.7 37.4,-6.3 62.8,-25.6 75.9,-49.6 11.1,-20.3 17.1,-44.6 17.4,-69.2 v 0 c 0.1,-23.6 -4.8,-46.8 -14.8,-66.3 -11.7,-22.7 -36.8,-41.8 -76.1,-49.4 l -6388.8,-1248.3 0.1,-0.3 c -132.4,-25.9 -243.8,-127.1 -275.8,-267 -18.9,-82.7 -39.1,-163.6 -60,-242.4 -20.6,-77.4 -40.2,-147.7 -58.7,-209.8 -53.5,-135.1 -19.5,-295 96.4,-395.8 l 4898.9,-4266.9 0.2,0.2 c 2.2,-1.9 4.4,-3.8 6.7,-5.7 29.8,-24.6 42.3,-54.2 41.7,-81.5 -0.5,-22.7 -7.7,-46.7 -19.8,-68.5 -11.3,-20.4 -27.2,-38 -45.7,-49.9 -20,-12.8 -48.2,-17.2 -82.2,-7.9 -2.8,1 -5.6,2 -8.5,3 l -6155.5,2112.8 -0.2,-0.5 c -127.4,43.6 -274.2,11.8 -371.9,-93.2 -46.8,-50.1 -104.8,-109.7 -172.8,-177.7 -62,-62 -117,-115.6 -164.3,-160.2 -109.1,-90.9 -156.7,-243.1 -107.9,-385.4 l 2107.9,-6141.2 0.6,0.2 c 1.1,-3.3 2.3,-6.5 3.5,-9.8 13.7,-36.3 9.8,-68.6 -4.6,-92.2 -11.7,-19.2 -29.9,-36.3 -51.6,-49.4 l 0.4,-0.6 c -20.5,-12.2 -42.9,-19.6 -64.1,-20.7 -25.7,-1.3 -55,10.9 -81.5,41.4 l -4275,4908.1 -0.9,-0.7 c -88.1,101.1 -230.5,146.9 -367.1,105.5 -65.3,-19.8 -139.9,-41.1 -223.7,-63.5 -5.1,-1.1 -10.2,-2.3 -15.3,-3.7 -78.8,-21 -154.1,-40 -225.3,-56.5 -138.6,-25.2 -254.4,-132.7 -283,-279.3 l -1246.1,-6377.3 0.3,-0.1 c -0.6,-3.1 -1.2,-6.3 -1.7,-9.5 -6.3,-37 -25.7,-62.2 -49.8,-75.3 -20.3,-11.1 -44.1,-17 -68,-17.3 -23.9,-0.3 -47.7,4.7 -67.7,15 -21.1,10.9 -39,33.4 -47.2,67.7 -0.5,2.7 -1,5.4 -1.5,8.1 l -1248.4,6388.7 -0.3,-0.1 c -25.9,132.4 -127.1,243.8 -267,275.8 -82,18.8 -162.4,38.9 -240.8,59.7 -78.3,20.9 -149.1,40.8 -211.6,59.3 -135.1,53.3 -294.8,19.3 -395.5,-96.5 z"
   inkscape:connector-curvature="0"
   style="fill:#fefefe" /><g
   id="g16">
     <path
   style="fill:#ffed00;fill-rule:nonzero"
   inkscape:connector-curvature="0"
   id="path12"
   d="m 21218.5,16454.1 -719.2,-3681 -719.3,3681 c 497.5,-46.6 941,-46.7 1438.5,0 z"
   class="fil2" />
     <path
   style="fill:#fefefe"
   inkscape:connector-curvature="0"
   d="m 20784.8,16072.2 -285.5,-1461.3 -285.6,1461.3 c 97.2,-3.9 192.1,-5.9 285.5,-5.9 93.5,0 188.4,2 285.6,5.9 z m 433.7,381.9 -719.2,-3681 -719.3,3681 c 497.5,-46.6 941,-46.7 1438.5,0 z"
   class="fil1"
   id="path14" />
    </g><g
   id="g22">
     <path
   style="fill:#ffed00;fill-rule:nonzero"
   inkscape:connector-curvature="0"
   id="path18"
   d="m 24898.7,17821.9 1216.1,-3543 -2460.4,2824.7 c 439,200.6 855.4,441.6 1244.3,718.3 z"
   class="fil2" />
     <path
   style="fill:#fefefe"
   inkscape:connector-curvature="0"
   d="m 24713.6,17275.2 481.9,-1404 -975.4,1119.8 c 83.6,44.3 166.4,90.2 248.4,137.5 0.4,0.2 0.7,0.4 1,0.6 l 0.4,-0.6 c 82,47.4 163.3,96.3 243.7,146.7 z m 185.1,546.7 1216.1,-3543 -2460.4,2824.7 c 439,200.6 855.4,441.6 1244.3,718.3 z"
   class="fil1"
   id="path20" />
    </g><g
   id="g28">
     <path
   style="fill:#ffed00;fill-rule:nonzero"
   inkscape:connector-curvature="0"
   id="path24"
   d="m 27400.9,20850 2824.6,-2460.3 -3542.8,1216 c 276.8,388.9 517.8,805.3 718.2,1244.3 z"
   class="fil2" />
     <path
   style="fill:#fefefe"
   inkscape:connector-curvature="0"
   d="m 27513.6,20284.2 1119.6,-975.2 -1404.2,481.9 c 50.2,80.3 99.2,162 147.2,245.1 47.3,82 93.1,164.7 137.4,248.2 z m -112.7,565.8 2824.6,-2460.3 -3542.8,1216 c 276.8,388.9 517.8,805.3 718.2,1244.3 z"
   class="fil1"
   id="path26" />
    </g><g
   id="g34">
     <path
   style="fill:#ffed00;fill-rule:nonzero"
   inkscape:connector-curvature="0"
   id="path30"
   d="m 28050.3,24724.4 3681,-719.2 -3680.9,-719.3 c 46.7,497.2 46.6,941.3 -0.1,1438.5 z"
   class="fil2" />
     <path
   style="fill:#fefefe"
   inkscape:connector-curvature="0"
   d="m 28432.3,24290.7 1461.3,-285.5 -1461.3,-285.6 c 3.9,97.2 5.9,192.1 5.9,285.5 0,93.5 -2,188.4 -5.9,285.6 z m -382,433.7 3681,-719.2 -3680.9,-719.3 c 46.7,497.2 46.6,941.3 -0.1,1438.5 z"
   class="fil1"
   id="path32" />
    </g><g
   id="g40">
     <path
   style="fill:#ffed00;fill-rule:nonzero"
   inkscape:connector-curvature="0"
   id="path36"
   d="m 26682.5,28404.6 3543.1,1216.1 -2824.8,-2460.4 c -200.4,439 -441.5,855.4 -718.3,1244.3 z"
   class="fil2" />
     <path
   style="fill:#fefefe"
   inkscape:connector-curvature="0"
   d="m 27228.8,28219.3 1404.4,482.1 -1119.4,-975 c -44.7,84.4 -90.6,167.4 -137.7,249.1 -3.7,6.4 -7.6,12.6 -11.6,18.6 -44.3,76.3 -89.5,151.4 -135.7,225.2 z m -546.3,185.3 3543.1,1216.1 -2824.8,-2460.4 c -200.4,439 -441.5,855.4 -718.3,1244.3 z"
   class="fil1"
   id="path38" />
    </g><g
   id="g46">
     <path
   style="fill:#ffed00;fill-rule:nonzero"
   inkscape:connector-curvature="0"
   id="path42"
   d="m 23654.4,30906.7 2460.4,2824.7 -1216.1,-3542.9 c -388.9,276.8 -805.3,517.8 -1244.3,718.2 z"
   class="fil2" />
     <path
   style="fill:#fefefe"
   inkscape:connector-curvature="0"
   d="m 24220.2,31019.4 975.3,1119.7 -482,-1404.3 c -80.3,50.2 -162,99.2 -245.1,147.2 -82,47.3 -164.7,93.1 -248.2,137.4 z m -565.8,-112.7 2460.4,2824.7 -1216.1,-3542.9 c -388.9,276.8 -805.3,517.8 -1244.3,718.2 z"
   class="fil1"
   id="path44" />
    </g><g
   id="g52">
     <path
   style="fill:#ffed00;fill-rule:nonzero"
   inkscape:connector-curvature="0"
   id="path48"
   d="m 19780.1,31556.2 719.2,3681 719.3,-3680.9 c -497.4,46.6 -941.2,46.5 -1438.5,-0.1 z"
   class="fil2" />
     <path
   style="fill:#fefefe"
   inkscape:connector-curvature="0"
   d="m 20213.8,31938.1 285.5,1461.4 285.6,-1461.4 c -97.2,3.9 -192.1,5.9 -285.6,5.9 -93.4,0 -188.3,-2 -285.5,-5.9 z m -433.7,-381.9 719.2,3681 719.3,-3680.9 c -497.4,46.6 -941.2,46.5 -1438.5,-0.1 z"
   class="fil1"
   id="path50" />
    </g><g
   id="g58">
     <path
   style="fill:#ffed00;fill-rule:nonzero"
   inkscape:connector-curvature="0"
   id="path54"
   d="m 16099.9,30188.4 -1216.1,3543.1 2460.3,-2824.8 c -439,-200.5 -855.3,-441.5 -1244.2,-718.3 z"
   class="fil2" />
     <path
   style="fill:#fefefe"
   inkscape:connector-curvature="0"
   d="m 16285.1,30734.7 -482,1404.3 974.9,-1119.3 c -84.4,-44.7 -167.5,-90.6 -249.2,-137.8 -6.4,-3.7 -12.5,-7.5 -18.6,-11.6 -76.2,-44.2 -151.3,-89.4 -225.1,-135.6 z m -185.2,-546.3 -1216.1,3543.1 2460.3,-2824.8 c -439,-200.5 -855.3,-441.5 -1244.2,-718.3 z"
   class="fil1"
   id="path56" />
    </g><g
   id="g64">
     <path
   style="fill:#ffed00;fill-rule:nonzero"
   inkscape:connector-curvature="0"
   id="path60"
   d="m 13597.7,27160.3 -2824.7,2460.4 3543,-1216.1 c -276.8,-388.9 -517.8,-805.3 -718.3,-1244.3 z"
   class="fil2" />
     <path
   style="fill:#fefefe"
   inkscape:connector-curvature="0"
   d="m 13485.1,27726 -1119.8,975.4 1404.4,-482.1 c -50.1,-80.2 -99.2,-161.9 -147.1,-244.9 -47.3,-82 -93.2,-164.8 -137.5,-248.4 z m 112.6,-565.7 -2824.7,2460.4 3543,-1216.1 c -276.8,-388.9 -517.8,-805.3 -718.3,-1244.3 z"
   class="fil1"
   id="path62" />
    </g><g
   id="g70">
     <path
   style="fill:#ffed00;fill-rule:nonzero"
   inkscape:connector-curvature="0"
   id="path66"
   d="m 12948.2,23286 -3681,719.2 3681,719.2 c -46.7,-497 -46.6,-941.3 0,-1438.4 z"
   class="fil2" />
     <path
   style="fill:#fefefe"
   inkscape:connector-curvature="0"
   d="m 12566.3,23719.7 -1461.2,285.5 1461.2,285.5 c -3.9,-97.1 -5.9,-192 -5.9,-285.5 0,-93.4 2,-188.3 5.9,-285.5 z m 381.9,-433.7 -3681,719.2 3681,719.2 c -46.7,-497 -46.6,-941.3 0,-1438.4 z"
   class="fil1"
   id="path68" />
    </g><g
   id="g76">
     <path
   style="fill:#ffed00;fill-rule:nonzero"
   inkscape:connector-curvature="0"
   id="path72"
   d="m 14315.9,19605.7 -3542.9,-1216 2824.6,2460.2 c 200.5,-439 441.5,-855.3 718.3,-1244.2 z"
   class="fil2" />
     <path
   style="fill:#fefefe"
   inkscape:connector-curvature="0"
   d="m 13769.6,19790.9 -1404.2,-481.9 1119.2,974.8 c 44.7,-84.4 90.6,-167.5 137.8,-249.2 3.7,-6.4 7.5,-12.5 11.6,-18.6 44.2,-76.2 89.4,-151.3 135.6,-225.1 z m 546.3,-185.2 -3542.9,-1216 2824.6,2460.2 c 200.5,-439 441.5,-855.3 718.3,-1244.2 z"
   class="fil1"
   id="path74" />
    </g><g
   id="g82">
     <path
   style="fill:#ffed00;fill-rule:nonzero"
   inkscape:connector-curvature="0"
   id="path78"
   d="m 17344.1,17103.6 -2460.3,-2824.7 1216.1,3543 c 388.9,-276.7 805.2,-517.8 1244.2,-718.3 z"
   class="fil2" />
     <path
   style="fill:#fefefe"
   inkscape:connector-curvature="0"
   d="m 16778,16990.6 -974.9,-1119.3 482.1,1404.4 c 80,-50 161.4,-99 244.3,-146.8 l -0.4,-0.6 c 81.6,-47.1 164.6,-93 248.9,-137.7 z m 566.1,113 -2460.3,-2824.7 1216.1,3543 c 388.9,-276.7 805.2,-517.8 1244.2,-718.3 z"
   class="fil1"
   id="path80" />
    </g><g
   id="g88">
     <path
   style="fill:#ffed00;fill-rule:nonzero"
   inkscape:connector-curvature="0"
   id="path84"
   d="m 16690,20196.1 c -2103.7,2103.8 -2103.6,5514.6 0.2,7618.3 2103.8,2103.7 5514.6,2103.6 7618.3,-0.2 2103.7,-2103.8 2103.7,-5514.5 -0.1,-7618.3 -2103.9,-2103.7 -5514.6,-2103.7 -7618.4,0.2 z"
   class="fil2" />
     <path
   style="fill:#fefefe"
   inkscape:connector-curvature="0"
   d="m 16939.4,20445.5 c -982.8,982.9 -1474.3,2271.4 -1474.3,3559.8 0,1288.3 491.6,2576.8 1474.5,3559.7 982.9,982.8 2271.4,1474.3 3559.8,1474.3 1288.3,0 2576.8,-491.6 3559.7,-1474.5 982.9,-982.9 1474.4,-2271.4 1474.4,-3559.8 h 1.4 c 0,-1287.4 -492.1,-2575.9 -1475.9,-3559.7 -983.9,-983.8 -2272.4,-1475.7 -3559.9,-1475.7 v 1.4 c -1288.3,0 -2576.8,491.6 -3559.7,1474.5 z m -249.4,-249.4 c -2103.7,2103.8 -2103.6,5514.6 0.2,7618.3 2103.8,2103.7 5514.6,2103.6 7618.3,-0.2 2103.7,-2103.8 2103.7,-5514.5 -0.1,-7618.3 -2103.9,-2103.7 -5514.6,-2103.7 -7618.4,0.2 z"
   class="fil1"
   id="path86" />
    </g><g
   id="g94">
     <path
   style="fill:#ffff00;fill-rule:nonzero"
   inkscape:connector-curvature="0"
   id="path90"
   d="m 15848.1,19354.2 c -2568.7,2568.8 -2568.5,6733.4 0.2,9302.1 2568.8,2568.7 6733.5,2568.6 9302.2,-0.2 2568.6,-2568.8 2568.6,-6733.4 -0.3,-9302.1 -2568.8,-2568.7 -6733.4,-2568.7 -9302.1,0.2 z"
   class="fil2" />
     <path
   style="fill:#fefefe"
   inkscape:connector-curvature="0"
   d="m 16097.5,19603.6 c -1216.2,1216.3 -1824.4,2809.5 -1824.4,4401.6 h 1.4 c 0,1593.1 607.8,3186.3 1823.2,4401.7 1215.4,1215.3 2808.7,1823.1 4401.7,1823.1 v 1.4 c 1592.2,0 3185.4,-608.4 4401.7,-1824.7 1216.2,-1216.3 1824.4,-2809.6 1824.4,-4401.8 h -1.4 c 0,-1593 -607.9,-3186.2 -1823.3,-4401.5 l -0.1,-0.1 c -1215.4,-1215.3 -2808.6,-1823 -4401.6,-1823 -1593,0 -3186.1,607.8 -4401.5,1823.2 z m -249.4,-249.4 c -2568.7,2568.8 -2568.5,6733.4 0.2,9302.1 2568.8,2568.7 6733.5,2568.6 9302.2,-0.2 2568.6,-2568.8 2568.6,-6733.4 -0.3,-9302.1 -2568.8,-2568.7 -6733.4,-2568.7 -9302.1,0.2 z"
   class="fil1"
   id="path92" />
    </g><path
   style="fill:#000000;stroke:#fefefe;stroke-width:352.79998779;stroke-linejoin:round;stroke-miterlimit:2.61313009"
   inkscape:connector-curvature="0"
   id="path98"
   d="m 33533.4,26712 c 1504.7,-100.8 2990.7,486.9 4021,1579.7 1605.1,-346.2 3335.6,121.9 4537.9,1324.4 1921.5,1921.7 1921.2,5039.1 -0.5,6960.7 -1232.8,1232.5 -2993.4,1686.2 -4611.3,1308.1 -2053.4,2707.5 -6127,3185.9 -8756.5,1056.8 -3074.4,1985.8 -7327.7,1273.7 -9556.6,-1685.1 -1249.4,53 -2500.6,-412.6 -3408.7,-1320.9 -1768.1,-1768 -1767.8,-4636.1 0.2,-6403.9 1016.8,-1016.8 2436,-1469.5 3808.7,-1285.9 1567.9,-1731.5 3929.7,-2602.5 6253.7,-2288.1 2306.8,-1919.9 5838.8,-1548.7 7712.1,754.2 z"
   class="fil3 str0" /><path
   style="fill:#fefefe;fill-rule:nonzero;stroke:#fefefe;stroke-width:352.79998779;stroke-linejoin:round;stroke-miterlimit:2.61313009"
   inkscape:connector-curvature="0"
   id="path100"
   d="m 26880.3,28202.8 c -156.9,205.2 -420.5,298.1 -671.2,223.4 -2067.8,-615.6 -4327.1,280.6 -5430.3,2088 -155.6,300.3 -524.7,419.3 -826.6,265.7 -833.2,-423.7 -1863.6,-270.6 -2539.7,405.5 -855.3,855.2 -855.5,2241.4 -0.2,3096.7 607.6,607.6 1547.8,806.3 2342.7,493.7 303.3,-119.9 655.9,-14.4 805.6,295.6 1485.4,3058.8 5620.1,3517.8 7804.4,1135.5 284.3,-309.3 768.7,-407.9 1036.4,17.4 1702.7,2694 5719.6,2044.9 6735.7,-708.9 140.7,-382.7 586.1,-596.6 955.6,-328.9 1021.5,743.1 2442.4,639.5 3345.6,-263.5 1008.9,-1008.8 1009.1,-2644.4 0.2,-3653.3 -830.2,-830.4 -2145.5,-982.2 -3135.9,-402.9 -337.4,197.3 -773.7,188.9 -958.7,-231.6 -578.7,-1305.5 -2083.8,-1915 -3390.2,-1432.5 -316.9,116 -667.1,7.2 -810,-317.5 -956.5,-2170.3 -3883.3,-2411.5 -5263.4,-682.4 z"
   class="fil4 str0" /><path
   style="fill:#000000;fill-rule:nonzero;stroke:#fefefe;stroke-width:352.79998779;stroke-linejoin:round;stroke-miterlimit:2.61313009"
   inkscape:connector-curvature="0"
   id="path102"
   d="m 21836.6,34035.5 c 257.1,-179.6 577.5,-86.7 744.7,153.4 1066.4,1536.6 2814.2,1772.3 4337.4,744.6 245.3,-165.5 575.9,-145 755.3,121 183,271.4 69.9,583.8 -177.7,750.6 -1991.9,1340.6 -4379.9,981.2 -5770.4,-1014.8 -168.5,-242.9 -148.8,-573.5 110.7,-754.8 z"
   class="fil5 str0" />
</svg>