<?xml version="1.0" encoding="UTF-8" standalone="no"?>
<!-- Creator: CorelDRAW 2019 (64-Bit) -->

<svg
   xmlns:dc="http://purl.org/dc/elements/1.1/"
   xmlns:cc="http://creativecommons.org/ns#"
   xmlns:rdf="http://www.w3.org/1999/02/22-rdf-syntax-ns#"
   xmlns:svg="http://www.w3.org/2000/svg"
   xmlns="http://www.w3.org/2000/svg"
   xmlns:sodipodi="http://sodipodi.sourceforge.net/DTD/sodipodi-0.dtd"
   xmlns:inkscape="http://www.inkscape.org/namespaces/inkscape"
   xml:space="preserve"
   width="50mm"
   height="50mm"
   version="1.1"
   style="shape-rendering:geometricPrecision; text-rendering:geometricPrecision; image-rendering:optimizeQuality; fill-rule:evenodd; clip-rule:evenodd"
   viewBox="0 0 50000 50000"
   id="svg146"
   sodipodi:docname="02n.svg"
   inkscape:version="0.92.5 (2060ec1f9f, 2020-04-08)"><metadata
   id="metadata150"><rdf:RDF><cc:Work
       rdf:about=""><dc:format>image/svg+xml</dc:format><dc:type
         rdf:resource="http://purl.org/dc/dcmitype/StillImage" /></cc:Work></rdf:RDF></metadata><sodipodi:namedview
   pagecolor="#ffffff"
   bordercolor="#666666"
   borderopacity="1"
   objecttolerance="10"
   gridtolerance="10"
   guidetolerance="10"
   inkscape:pageopacity="0"
   inkscape:pageshadow="2"
   inkscape:window-width="640"
   inkscape:window-height="480"
   id="namedview148"
   showgrid="false"
   inkscape:zoom="1.2488333"
   inkscape:cx="94.488189"
   inkscape:cy="94.488189"
   inkscape:window-x="0"
   inkscape:window-y="0"
   inkscape:window-maximized="0"
   inkscape:current-layer="svg146" />
 <defs
   id="defs120">
  <style
   type="text/css"
   id="style118">
   <![CDATA[
    .str0 {stroke:#FEFEFE;stroke-width:352.8;stroke-linejoin:round;stroke-miterlimit:22.9256}
    .str1 {stroke:#FEFEFE;stroke-width:352.8;stroke-linejoin:round;stroke-miterlimit:2.61313}
    .fil2 {fill:#2B2A29}
    .fil0 {fill:#FFED00}
    .fil3 {fill:#727271;fill-rule:nonzero}
    .fil1 {fill:#2B2A29;fill-rule:nonzero}
   ]]>
  </style>
 
  
  
  
 
   
   
  
   
   
  
    
   
    
    
   
     
     
     
    </defs>
 <polygon
   class="fil0"
   points="41378,17448.1 38080.1,13210.1 33037.4,15056.4 36048.9,10610.3 32734.7,6385 37893.9,7875.1 40888.2,3417.4 41065.2,8784.5 46230,10254.9 41180.3,12081.7 "
   id="polygon123"
   style="fill:#ffed00" /><path
   class="fil1 str0"
   d="m 41766.9,3402.6 155.5,4709.8 4548.8,1295.1 c 468,133.2 739.5,620.7 606.3,1088.7 -86,302.1 -319.7,522.3 -600.4,604.6 l -4394.6,1590 174.1,4726.3 c 17.1,485.1 -362.4,892.4 -847.5,909.5 -293,10.3 -557.6,-124.1 -725,-339.1 l -1.9,1.5 -2903.3,-3730.6 -4438.3,1624.8 c -456.6,167.4 -962.6,-67 -1130,-523.6 -109.6,-299 -46.9,-619.2 137.6,-851.6 l 2613,-3857.6 -2919.1,-3721.1 c -300.6,-382.4 -234.2,-936.2 148.2,-1236.8 248.3,-195.1 568.7,-235.6 845.3,-135.3 l 4485.9,1295.7 2636.1,-3924.8 c 270.1,-403.3 816.3,-511.3 1219.6,-241.2 248.5,166.4 384.8,437.6 389.7,715.7 z M 40186.7,8812.1 40099.4,6168 38624.2,8364.4 c -207.3,309.5 -598.2,464 -975,354.9 l -2539.3,-733.5 1631.7,2080 -2,1.5 c 229.9,292.4 256.2,711.2 36.4,1035.5 l -1483.6,2190.2 2447.7,-896 c 358.2,-150 786.2,-48.9 1035.9,272.4 l 1623.2,2085.8 -96.1,-2608.9 c -28.3,-383.1 198.7,-753.9 577.6,-891.2 l 2485.6,-899.3 -2542.3,-723.8 0.6,-2 c -358.2,-101.9 -625.6,-425.9 -637.9,-817.9 z"
   id="path125"
   inkscape:connector-curvature="0"
   style="fill:#000000;fill-rule:nonzero;stroke:#fefefe;stroke-width:352.79998779;stroke-linejoin:round;stroke-miterlimit:22.92560005" /><path
   style="fill:#ffed00"
   inkscape:connector-curvature="0"
   id="path128"
   d="m 23229.9,12867.9 c 724.4,-8.5 1437,36.9 2134.5,130.7 -5309.9,1106.8 -10650.1,6652.9 -10561.9,14140 88.2,7487.2 5574.4,14330.5 10908.9,15311.8 -695.1,110.3 -1406.4,172.4 -2130.8,181 -8134.7,95.8 -14807.9,-6489.2 -14904.7,-14708.2 -96.8,-8219 6419.3,-14959.4 14554,-15055.3 z"
   class="fil0" /><path
   style="fill:#000000;fill-rule:nonzero;stroke:#fefefe;stroke-width:352.79998779;stroke-linejoin:round;stroke-miterlimit:22.92560005"
   inkscape:connector-curvature="0"
   id="path130"
   d="m 23223.1,11989.4 c 392,-4.5 767.8,4.5 1126.8,26.4 376.2,23 753.9,60.4 1131.6,111.2 481.3,64.6 819.1,507.4 754.5,988.7 -51,379.8 -337.5,670.2 -692.5,744 -2605.8,543.3 -5229.5,2252.6 -7118.8,4782 -1689.4,2261.6 -2782.7,5172.7 -2743.7,8486.7 40.4,3438.2 1286.6,6739.6 3137.7,9337.7 1942,2725.9 4528.2,4655.6 7051.3,5119.7 477.5,87.5 793.7,545.7 706.2,1023.2 -70.2,383.3 -379.4,662.6 -745.6,712.7 -386.1,60.8 -756.7,106.7 -1110.1,136.6 -345.5,29.3 -721.9,46.8 -1129.5,51.6 -4312.4,50.7 -8236.3,-1667.9 -11093.7,-4487.6 -2856.2,-2818.5 -4648.7,-6737.8 -4699.9,-11088.8 -51.2,-4351.1 1647.3,-8310.4 4434.8,-11193.9 2791.5,-2887.8 6674.9,-4699.4 10987.5,-4750.2 z m -6210.8,5598.1 c 1085.8,-1453.6 2393.3,-2670.3 3810.5,-3599.3 -2846.5,542 -5381.8,1963.1 -7322.8,3971 -2480,2565.4 -3991.1,6086.1 -3945.6,9953.7 45.5,3867.7 1638.3,7350.9 4176.3,9855.4 2089.5,2062 4819.2,3460.7 7852.6,3864.8 -1548.9,-1031.8 -2992.8,-2455.9 -4197.8,-4147.2 -2041.8,-2865.8 -3416.6,-6519 -3461.5,-10336.9 -43.9,-3736.4 1186.6,-7015.7 3088.3,-9561.5 z"
   class="fil1 str0" /><path
   class="fil2 str1"
   d="m 33644,28479.8 c 1783,-119.4 3543.9,576.9 4764.8,1871.9 1902,-410.3 3952.7,144.5 5377.4,1569.5 2277,2277.2 2276.6,5971.3 -0.6,8248.3 -1460.8,1460.5 -3547.1,1998.2 -5464.3,1550.1 -2433.3,3208.4 -7260.4,3775.3 -10376.4,1252.3 -3643.2,2353.2 -8683.3,1509.3 -11324.6,-1996.9 -1480.5,62.9 -2963.1,-488.9 -4039.2,-1565.2 -2095.1,-2095.1 -2094.9,-5493.8 0.3,-7588.6 1204.8,-1204.9 2886.6,-1741.3 4513.3,-1523.8 1857.9,-2051.7 4656.6,-3083.9 7410.5,-2711.3 2733.5,-2275.1 6918.9,-1835.2 9138.8,893.7 z"
   id="path134"
   inkscape:connector-curvature="0"
   style="fill:#000000;stroke:#fefefe;stroke-width:352.79998779;stroke-linejoin:round;stroke-miterlimit:2.61313009" /><path
   class="fil3 str1"
   d="m 25760.2,30246.4 c -186,243.1 -498.4,353.2 -795.5,264.7 -2450.2,-729.4 -5127.6,332.5 -6434.9,2474.3 -184.3,355.8 -621.6,496.8 -979.5,314.8 -987.3,-502 -2208.2,-320.6 -3009.4,480.6 -1013.5,1013.4 -1013.8,2656 -0.3,3669.5 720,720 1834.1,955.4 2776.1,585.1 359.4,-142.1 777.3,-17.1 954.6,350.2 1760.1,3624.7 6659.8,4168.6 9248.2,1345.6 336.9,-366.5 910.9,-483.3 1228.1,20.6 2017.7,3192.4 6777.7,2423.2 7981.7,-840 166.8,-453.5 694.6,-707 1132.4,-389.8 1210.5,880.6 2894.3,757.8 3964.5,-312.2 1195.6,-1195.5 1195.8,-3133.6 0.3,-4329.2 -983.8,-984 -2542.4,-1163.9 -3716,-477.4 -399.9,233.8 -916.9,223.9 -1136.1,-274.5 -685.7,-1547 -2469.3,-2269.2 -4017.3,-1697.5 -375.5,137.5 -790.6,8.5 -959.9,-376.2 -1133.4,-2571.8 -4601.6,-2857.5 -6237,-808.6 z"
   id="path136"
   inkscape:connector-curvature="0"
   style="fill:#727271;fill-rule:nonzero;stroke:#fefefe;stroke-width:352.79998779;stroke-linejoin:round;stroke-miterlimit:2.61313009" /><path
   class="fil1 str1"
   d="m 19783.3,37158.1 c 304.8,-212.8 684.4,-102.7 882.5,181.8 1263.7,1820.9 3334.8,2100.1 5139.9,882.3 290.6,-196.1 682.4,-171.8 894.9,143.4 216.9,321.6 82.9,691.8 -210.6,889.5 -2360.3,1588.6 -5190,1162.7 -6837.8,-1202.6 -199.7,-287.8 -176.3,-679.6 131.1,-894.4 z"
   id="path138"
   inkscape:connector-curvature="0"
   style="fill:#000000;fill-rule:nonzero;stroke:#fefefe;stroke-width:352.79998779;stroke-linejoin:round;stroke-miterlimit:2.61313009" />
</svg>