<?xml version="1.0" encoding="UTF-8" standalone="no"?>
<!-- Creator: CorelDRAW 2019 (64-Bit) -->

<svg
   xmlns:dc="http://purl.org/dc/elements/1.1/"
   xmlns:cc="http://creativecommons.org/ns#"
   xmlns:rdf="http://www.w3.org/1999/02/22-rdf-syntax-ns#"
   xmlns:svg="http://www.w3.org/2000/svg"
   xmlns="http://www.w3.org/2000/svg"
   xmlns:sodipodi="http://sodipodi.sourceforge.net/DTD/sodipodi-0.dtd"
   xmlns:inkscape="http://www.inkscape.org/namespaces/inkscape"
   xml:space="preserve"
   width="50mm"
   height="50mm"
   version="1.1"
   style="shape-rendering:geometricPrecision; text-rendering:geometricPrecision; image-rendering:optimizeQuality; fill-rule:evenodd; clip-rule:evenodd"
   viewBox="0 0 50000 50000"
   id="svg167"
   sodipodi:docname="03d.svg"
   inkscape:version="0.92.5 (2060ec1f9f, 2020-04-08)"><metadata
   id="metadata171"><rdf:RDF><cc:Work
       rdf:about=""><dc:format>image/svg+xml</dc:format><dc:type
         rdf:resource="http://purl.org/dc/dcmitype/StillImage" /></cc:Work></rdf:RDF></metadata><sodipodi:namedview
   pagecolor="#ffffff"
   bordercolor="#666666"
   borderopacity="1"
   objecttolerance="10"
   gridtolerance="10"
   guidetolerance="10"
   inkscape:pageopacity="0"
   inkscape:pageshadow="2"
   inkscape:window-width="640"
   inkscape:window-height="480"
   id="namedview169"
   showgrid="false"
   inkscape:zoom="1.2488333"
   inkscape:cx="94.488189"
   inkscape:cy="94.488189"
   inkscape:window-x="0"
   inkscape:window-y="0"
   inkscape:window-maximized="0"
   inkscape:current-layer="svg167" />
 <defs
   id="defs154">
  <style
   type="text/css"
   id="style152">
   <![CDATA[
    .str0 {stroke:#FEFEFE;stroke-width:352.8;stroke-linejoin:round;stroke-miterlimit:2.61313}
    .fil1 {fill:#D9DADA;fill-rule:nonzero}
    .fil0 {fill:#2B2A29;fill-rule:nonzero}
   ]]>
  </style>
 
  
  
 
   
   
   
   
  </defs>
 <path
   class="fil0 str0"
   d="m 24373.5,10312.9 c 2236.9,731.3 4161.2,2306.7 5326,4357.8 1790.1,-505.1 3720.3,-379.6 5432.7,353 2094.6,896.3 3741,2640.8 4508.9,4802.1 1452,69.3 2757.1,682.9 3714.1,1640.1 2207.2,2207.2 2138.5,5843.4 -3.4,7975.4 498,2917.5 -469.5,5994.9 -2588.2,8113.6 -2488.5,2488.2 -6169.7,3328.7 -9442.1,2264.3 C 29467.1,39216 27818.2,38006.3 26672.8,36427 l -31.5,28.5 c -2792.6,2524.7 -6823,3111.9 -10185.1,1559.2 -2630.5,-1215 -4601.3,-3617.3 -5226.6,-6520.3 -1630,-220.6 -3087.8,-973.5 -4191.2,-2076.9 -2860.8,-2860.8 -2860.4,-7519.4 0.2,-10380 1324.3,-1324.3 3158.8,-2143.6 5189.1,-2143.8 203,-758.8 500.4,-1491.8 884.1,-2177.5 2239.5,-4001.4 7044,-5782.4 11261.7,-4403.3 z"
   id="path157"
   inkscape:connector-curvature="0"
   style="fill:#000000;fill-rule:nonzero;stroke:#fefefe;stroke-width:352.79998779;stroke-linejoin:round;stroke-miterlimit:2.61313009" /><path
   class="fil1 str0"
   d="m 15890.2,16273.6 c -210.8,376.7 -383.8,775.4 -513.6,1190.5 -126.4,404 -213.4,815.5 -256.7,1229.2 -3.9,96.7 -16.7,194.2 -39.1,291.9 -196.1,856.7 -1049.6,1392.2 -1906.3,1196.1 -1334.7,-309.1 -2836.6,67.2 -3880.7,1111.3 -1622.3,1622.3 -1622.6,4247.4 -0.2,5869.7 825.1,825.3 2008.3,1293.3 3165.2,1212.2 895.7,-62 1701.5,566.9 1752.6,1497.4 131,2332.7 1560.5,4320.4 3578,5252.3 2208.8,1020.2 4884.3,637.4 6721.4,-1023.5 198.3,-179.3 397.1,-387.8 594.6,-623.6 170.3,-203.4 327.5,-417.3 470,-640.1 696.8,-1090 2397,-1099.8 2883.2,241.6 640.5,1757.4 2078.1,3137.7 3847.3,3713 2148.7,698.8 4567.4,143.2 6202.5,-1491.9 1590.9,-1590.8 2133.7,-3858.1 1564.6,-5970.7 -185.8,-691.5 20.6,-1408.1 641.1,-1816 695.6,-457.5 1141.8,-1282.1 1107.8,-2119.5 -56.6,-1394.9 -1403.4,-2582.7 -3133.6,-2309.6 -867,137.5 -1681.5,-453.8 -1819.1,-1320.7 -275.9,-1718.3 -1427.2,-3145.9 -2983,-3811.6 -1335.3,-571.1 -2917.9,-568.9 -4195.1,112.5 -866.4,462.2 -1975.7,108.7 -2313,-836.5 -654.1,-1830.1 -2149.1,-3285.7 -3988.9,-3887.1 -2803.5,-916.9 -6008.8,270.6 -7499,2933.1 z"
   id="path159"
   inkscape:connector-curvature="0"
   style="fill:#d9dada;fill-rule:nonzero;stroke:#fefefe;stroke-width:352.79998779;stroke-linejoin:round;stroke-miterlimit:2.61313009" /><path
   class="fil0 str0"
   d="m 26115.6,17478.2 c 129.5,351.8 -49.8,742.5 -401.4,873.4 -352.4,131.1 -744.5,-48.1 -875.7,-400.5 l -0.3,-0.9 -1.2,-3.2 -1.5,0.5 c -71.2,-194.4 -155,-374.7 -249.6,-539.1 -93.9,-163.3 -206.8,-324.7 -336.8,-482.1 -9.5,-11.4 -18.4,-23 -26.9,-34.9 -640.3,-756.7 -1599.3,-1237.5 -2672.1,-1237.5 l -0.3,-2.7 c -963.6,0.1 -1837.9,392.6 -2472.3,1027 -634.2,634.3 -1026.6,1508.4 -1026.8,2471.6 h 2.7 v 0.8 c 0,377.5 -306,683.5 -683.5,683.5 -377.5,0 -683.5,-306 -683.5,-683.5 v -0.8 h 2.7 c 0.2,-1344.1 543.7,-2559.7 1421.9,-3438 878.5,-878.5 2094.3,-1422.1 3438.8,-1422.2 v -2.7 c 1488.8,0 2822.6,672 3716,1729.6 12.2,12.7 23.9,25.7 35.2,39.5 168.3,203.8 324,429.3 465,674.3 140.3,243.8 258.1,493.9 351,747.4 z"
   id="path161"
   inkscape:connector-curvature="0"
   style="fill:#000000;fill-rule:nonzero;stroke:#fefefe;stroke-width:352.79998779;stroke-linejoin:round;stroke-miterlimit:2.61313009" /><path
   class="fil0 str0"
   d="m 35186.2,23293.6 c -393.9,0 -680.8,-320.5 -680.8,-697.1 -3.6,-719.6 -298.7,-1372.6 -773.7,-1847.5 -1074.6,-1074.4 -2827.4,-990.1 -3810.1,91.2 -253.6,278.7 -685.1,299 -963.8,45.4 -278.7,-253.5 -299,-685.1 -45.4,-963.8 1490.7,-1640.2 4158.8,-1766 5785.8,-139.2 693.7,693.7 1133.4,1643.8 1166.8,2698.1 12.6,403.3 -190,812.9 -678.8,812.9 z"
   id="path163"
   inkscape:connector-curvature="0"
   style="fill:#000000;fill-rule:nonzero;stroke:#fefefe;stroke-width:352.79998779;stroke-linejoin:round;stroke-miterlimit:2.61313009" />
</svg>