<?xml version="1.0" encoding="UTF-8" standalone="no"?>
<!-- Creator: CorelDRAW 2019 (64-Bit) -->

<svg
   xmlns:dc="http://purl.org/dc/elements/1.1/"
   xmlns:cc="http://creativecommons.org/ns#"
   xmlns:rdf="http://www.w3.org/1999/02/22-rdf-syntax-ns#"
   xmlns:svg="http://www.w3.org/2000/svg"
   xmlns="http://www.w3.org/2000/svg"
   xmlns:sodipodi="http://sodipodi.sourceforge.net/DTD/sodipodi-0.dtd"
   xmlns:inkscape="http://www.inkscape.org/namespaces/inkscape"
   xml:space="preserve"
   width="50mm"
   height="50mm"
   version="1.1"
   style="shape-rendering:geometricPrecision; text-rendering:geometricPrecision; image-rendering:optimizeQuality; fill-rule:evenodd; clip-rule:evenodd"
   viewBox="0 0 50000 50000"
   id="svg217"
   sodipodi:docname="04d.svg"
   inkscape:version="0.92.5 (2060ec1f9f, 2020-04-08)"><metadata
   id="metadata221"><rdf:RDF><cc:Work
       rdf:about=""><dc:format>image/svg+xml</dc:format><dc:type
         rdf:resource="http://purl.org/dc/dcmitype/StillImage" /></cc:Work></rdf:RDF></metadata><sodipodi:namedview
   pagecolor="#ffffff"
   bordercolor="#666666"
   borderopacity="1"
   objecttolerance="10"
   gridtolerance="10"
   guidetolerance="10"
   inkscape:pageopacity="0"
   inkscape:pageshadow="2"
   inkscape:window-width="640"
   inkscape:window-height="480"
   id="namedview219"
   showgrid="false"
   inkscape:zoom="1.2488333"
   inkscape:cx="94.488189"
   inkscape:cy="94.488189"
   inkscape:window-x="0"
   inkscape:window-y="0"
   inkscape:window-maximized="0"
   inkscape:current-layer="svg217" />
 <defs
   id="defs196">
  <style
   type="text/css"
   id="style194">
   <![CDATA[
    .str0 {stroke:#FEFEFE;stroke-width:200;stroke-miterlimit:22.9256}
    .fil0 {fill:#2B2A29}
    .fil1 {fill:#C5C6C6;fill-rule:nonzero}
    .fil2 {fill:#727271;fill-rule:nonzero}
    .fil3 {fill:#2B2A29;fill-rule:nonzero}
   ]]>
  </style>
 
  
  
 
   
  
    
    
    
    
    
    
    
   </defs>
 <path
   style="fill:#000000;stroke:#fefefe;stroke-width:200;stroke-miterlimit:22.92560005"
   inkscape:connector-curvature="0"
   id="path199"
   d="m 18808.5,19017.3 c 1600.2,-1666.4 3956.6,-2486 6237.7,-2150.8 2741.1,-2987.8 7712,-2314.5 9692.4,1118.8 1739.9,130.7 3369.4,1015.7 4422.2,2412.4 1727.2,-127.7 3483.9,485.4 4743.3,1744.9 2369.3,2369 2383.9,6250.1 -43.6,8581.8 -1651.4,1586.2 -3263.3,1865.1 -5090,1534.9 -2239.1,3199.3 -6327.6,3751.8 -9551.3,1619.2 -2873,1703.4 -6645.8,1489.5 -9302.7,-743.5 -1011.2,126.4 -2066.4,-14.7 -3055.3,-463.6 -2664.4,1734.5 -6396.1,1025 -8226.1,-1603.8 -1117.9,-96.5 -2191.4,-579.2 -3016.4,-1404.2 -968.8,-968.6 -1482.3,-2296.1 -1416.9,-3663.4 118.2,-2490.3 2118.5,-4402.6 4456.9,-4605 1215.3,-1576.6 3185.2,-2271.5 5167.4,-1964.2 1034.6,-809.5 2407.9,-1115.8 3777.6,-819.6 465.1,100.6 861.3,236.3 1204.8,406.1 z"
   class="fil0 str0" /><path
   style="fill:#c5c6c6;fill-rule:nonzero;stroke:#fefefe;stroke-width:200;stroke-miterlimit:22.92560005"
   inkscape:connector-curvature="0"
   id="path201"
   d="m 23074.5,31530.8 c 1878.5,825.4 4139.9,414.7 5592.8,-1082.7 326.7,-335.9 864.1,-343.4 1200,-16.6 2312.4,2508 5706.7,2205.6 6968.5,-1014.4 145,-446.2 624.3,-690.2 1070.4,-545.3 1484.7,482.4 2570.2,857.5 3833.3,-355.7 1185.5,-1138.8 1162.1,-3046 -0.4,-4208.3 -883.4,-883.4 -2262.9,-1114.9 -3374.6,-589.8 -506.7,239.2 -1041,-65.2 -1190.1,-569.7 -476.5,-1596.5 -2215,-2456.6 -3730.4,-1990.8 -447.9,137.7 -903.5,-154.9 -988.7,-615.7 -515.7,-2790 -4385.5,-3566 -5714.5,-754.6 -244.4,517.9 -766,556.3 -1225.9,362.6 -1341.1,-563 -2873.4,-298.4 -3994.7,541.9 702.8,220.7 1357.6,602.3 1902.7,1132 542,-48.3 1052.2,-0.6 1709,234.8 3113.6,1112 4151.7,5070.8 2027.6,7590.8 -981.7,1167.5 -2422.6,1732.9 -3873.6,1670.6 -68.7,72.4 -139.3,142.6 -211.4,210.9 z"
   class="fil1 str0" /><path
   style="fill:#727271;fill-rule:nonzero;stroke:#fefefe;stroke-width:200;stroke-miterlimit:22.92560005"
   inkscape:connector-curvature="0"
   id="path203"
   d="m 15382.4,22396.5 c -198.2,425.9 -704.3,610.5 -1130.2,412.2 -1313.1,-612 -2925.8,-334.3 -3448.6,1250.5 -210,638 -754.8,608.8 -1240.8,490.1 -1009.8,-248.9 -2092.2,491.5 -2144.7,1596.9 -22.3,469.3 146,946 505,1304.9 484.9,484.9 1197.4,630 1821.2,400.5 525.4,-192.6 979.5,145.2 1128.1,624.7 662.1,2129.5 3679.4,2787.9 5080.1,789.4 268,-383.7 796.5,-477.4 1180.1,-209.4 348.4,243.2 547.4,533.7 952.3,724.7 1257.5,593.1 2826.5,73.2 3441.2,-1249.6 l 1.3,-3 0.6,-1.3 1.9,-4.1 2,-4.4 5.6,-11.9 0.7,-1.7 c 192.8,-427.7 695.9,-618.2 1123.6,-425.5 746.6,337.1 1635.2,217.7 2155.4,-402.1 749.2,-887.1 408.1,-2334.2 -716,-2735.6 -675.8,-242.3 -1037.3,219.9 -1811.7,50.8 -458.3,-100.1 -642.2,-584 -928.6,-898.6 -496.1,-545.3 -1301.2,-713.3 -1969,-424 -429.6,187.3 -929.7,-9.2 -1117,-438.8 -329,-755.2 -432.9,-1335 -1335,-1530.1 -599.4,-129.5 -1253.4,42.3 -1557.5,695.4 z"
   class="fil2 str0" /><path
   style="fill:#000000;fill-rule:nonzero;stroke:#fefefe;stroke-width:200;stroke-miterlimit:22.92560005"
   inkscape:connector-curvature="0"
   id="path205"
   d="m 30657.8,29777.6 c -224.1,-281.8 -177.2,-692.1 104.6,-916.1 281.9,-224.1 692.1,-177.2 916.2,104.6 1005,1258 2585.1,1303.4 3225.1,-414.3 125.3,-336.8 500.2,-508.2 837,-382.8 336.9,125.4 508.3,500.2 382.9,837.1 -977.3,2622.9 -3763.4,2902.4 -5465.8,771.5 z"
   class="fil3 str0" /><path
   style="fill:#000000;fill-rule:nonzero;stroke:#fefefe;stroke-width:200;stroke-miterlimit:22.92560005"
   inkscape:connector-curvature="0"
   id="path207"
   d="m 28316.6,21052.2 c -188.2,301.6 -573.9,386.2 -861.5,188.9 -287.5,-197.3 -368.1,-601.9 -180,-903.5 1378.7,-2208.7 4232,-1523.2 4675.1,1041.7 60.5,353.7 -164,692 -501.3,755.4 -337.3,63.4 -659.8,-172 -720.2,-525.8 -246.9,-1429 -1637.3,-1797.8 -2412.1,-556.7 z"
   class="fil3 str0" /><path
   style="fill:#000000;fill-rule:nonzero;stroke:#fefefe;stroke-width:200;stroke-miterlimit:22.92560005"
   inkscape:connector-curvature="0"
   id="path209"
   d="m 40050.8,25592.9 c -359.4,-28.2 -627.9,-342.4 -599.7,-701.8 28.2,-359.4 342.5,-627.9 701.8,-599.7 2778.2,218.6 2384.7,4287.8 -344.7,4346.3 -359.4,7 -656.5,-278.7 -663.5,-638.1 -7,-359.3 278.7,-656.4 638,-663.5 1153.7,-24.6 1357,-1657.5 268.1,-1743.2 z"
   class="fil3 str0" /><path
   style="fill:#000000;fill-rule:nonzero;stroke:#fefefe;stroke-width:200;stroke-miterlimit:22.92560005"
   inkscape:connector-curvature="0"
   id="path211"
   d="m 11303.8,28201.2 c -167.7,-318.6 -45.4,-712.8 273.1,-880.5 318.5,-167.6 712.8,-45.4 880.5,273.1 458.7,869.6 1274.3,1352.6 2105.9,615.4 269.2,-238.2 680.5,-213 918.7,56.2 238.2,269.2 213,680.5 -56.2,918.7 -1468.3,1301.6 -3268.1,636 -4122,-982.9 z"
   class="fil3 str0" />
</svg>