<?xml version="1.0" encoding="UTF-8" standalone="no"?>
<!-- Creator: CorelDRAW 2019 (64-Bit) -->

<svg
   xmlns:dc="http://purl.org/dc/elements/1.1/"
   xmlns:cc="http://creativecommons.org/ns#"
   xmlns:rdf="http://www.w3.org/1999/02/22-rdf-syntax-ns#"
   xmlns:svg="http://www.w3.org/2000/svg"
   xmlns="http://www.w3.org/2000/svg"
   xmlns:sodipodi="http://sodipodi.sourceforge.net/DTD/sodipodi-0.dtd"
   xmlns:inkscape="http://www.inkscape.org/namespaces/inkscape"
   xml:space="preserve"
   width="50mm"
   height="50mm"
   version="1.1"
   style="shape-rendering:geometricPrecision; text-rendering:geometricPrecision; image-rendering:optimizeQuality; fill-rule:evenodd; clip-rule:evenodd"
   viewBox="0 0 50000 50000"
   id="svg279"
   sodipodi:docname="09d.svg"
   inkscape:version="0.92.5 (2060ec1f9f, 2020-04-08)"><metadata
   id="metadata283"><rdf:RDF><cc:Work
       rdf:about=""><dc:format>image/svg+xml</dc:format><dc:type
         rdf:resource="http://purl.org/dc/dcmitype/StillImage" /></cc:Work></rdf:RDF></metadata><sodipodi:namedview
   pagecolor="#ffffff"
   bordercolor="#666666"
   borderopacity="1"
   objecttolerance="10"
   gridtolerance="10"
   guidetolerance="10"
   inkscape:pageopacity="0"
   inkscape:pageshadow="2"
   inkscape:window-width="640"
   inkscape:window-height="480"
   id="namedview281"
   showgrid="false"
   inkscape:zoom="1.2488333"
   inkscape:cx="94.488189"
   inkscape:cy="94.488189"
   inkscape:window-x="0"
   inkscape:window-y="0"
   inkscape:window-maximized="0"
   inkscape:current-layer="svg279" />
 <defs
   id="defs254">
  <style
   type="text/css"
   id="style252">
   <![CDATA[
    .str0 {stroke:#FEFEFE;stroke-width:352.8;stroke-linejoin:round;stroke-miterlimit:2.61313}
    .fil0 {fill:#2B2A29}
    .fil1 {fill:#D9DADA;fill-rule:nonzero}
    .fil2 {fill:#2B2A29;fill-rule:nonzero}
    .fil3 {fill:#00A0E3;fill-rule:nonzero}
   ]]>
  </style>
 
  
  
 
   
   
   
   
   
   
   
   
   
   
  </defs>
 <path
   class="fil0 str0"
   d="m 25100.4,9219.3 c 3492.3,-1571.1 7557.4,-428.4 9815.3,2326.1 2351.5,-744.1 4999.9,-153.2 6800,1647 2624.7,2624.2 2624.9,6881.9 0.7,9506.6 -1469.3,1469.6 -3536,2147.4 -5539.4,1919.6 -1684.7,2682.7 -5051.3,3983.7 -8119.7,3071.3 -453.8,379.7 -950.3,708.3 -1481.6,979.1 -3121.1,1591.6 -6929.3,889.9 -9300.8,-1597.4 -1709.4,-211.2 -3297.1,-1088.1 -4390.2,-2412.4 -1768.1,75.5 -3539.3,-583.1 -4819.3,-1863 -2496.3,-2495.7 -2496.6,-6544.7 -0.8,-9040.8 1080.3,-1080.6 2514.9,-1727 4008.7,-1851.3 1350.9,-3015.8 4413.8,-4968.3 7859.4,-4839.7 1952.7,74.8 3767.6,860.9 5167.7,2154.9 z"
   id="path257"
   inkscape:connector-curvature="0"
   style="fill:#000000;stroke:#fefefe;stroke-width:352.79998779;stroke-linejoin:round;stroke-miterlimit:2.61313009" /><path
   class="fil1 str0"
   d="m 25075.7,17824 c -509.1,-154.3 -682.2,-664.2 -546.6,-1125.3 921,-3113.5 -1437.2,-6449 -4713,-6574.7 -2601.6,-97 -4856.7,1648.1 -5324.6,4256.5 -112.5,627.8 -678.3,751.9 -1178.5,641.3 -1100.6,-246.3 -2285.5,100.7 -3083.1,898.5 -1300.8,1300.9 -1300.8,3409.8 0.3,4710.6 894.5,894.4 2270.8,1203.9 3451.3,793.3 519.1,-180.9 904.6,140.1 1104.4,563.7 630.8,1332 2044.2,2158 3507.3,2064.2 371.6,-23.2 615.8,181 812.6,447.7 1413.9,1917 4012.9,2495 6079.1,1441.4 656.2,-334.5 1224.6,-811.6 1669.2,-1401 272.9,-361.5 778.8,-443.6 1150.8,-195.3 2305.6,1390.5 5454,128.3 6082.5,-2569.5 106.6,-457.7 564.1,-742.4 1021.8,-635.8 90.2,21 169.2,58.8 250.7,98.6 1385.1,677.2 3095.3,392 4191.2,-704.1 1429.3,-1429.5 1429.2,-3747.1 -0.3,-5176.5 -1202.6,-1202.6 -3070.5,-1382.9 -4466.5,-554.9 123.9,485.2 194.5,992.1 204.9,1514 9.3,495.3 -258.7,985.4 -847.4,985.4 -511.5,0 -846.5,-415 -848.9,-889 -28.4,-3854.4 -4500.8,-6120.6 -7809.1,-4098.7 717.2,1511.9 848.9,3269.4 374.2,4868.8 -138.1,468.8 -574.1,794.9 -1082.3,640.8 z"
   id="path259"
   inkscape:connector-curvature="0"
   style="fill:#d9dada;fill-rule:nonzero;stroke:#fefefe;stroke-width:352.79998779;stroke-linejoin:round;stroke-miterlimit:2.61313009" /><path
   class="fil2 str0"
   d="m 17059.5,14686.1 c -107.1,343.9 -472.8,535.9 -816.7,428.8 -343.8,-107.1 -535.8,-472.8 -428.7,-816.6 896.6,-2877.8 3703.8,-3803.7 6307.5,-2496.2 321.3,160.7 451.6,551.5 290.9,872.8 -160.6,321.4 -551.4,451.6 -872.8,291 -1892,-950 -3821.9,-393 -4480.2,1720.2 z"
   id="path261"
   inkscape:connector-curvature="0"
   style="fill:#000000;fill-rule:nonzero;stroke:#fefefe;stroke-width:352.79998779;stroke-linejoin:round;stroke-miterlimit:2.61313009" /><path
   class="fil2 str0"
   d="m 19921.7,23656.2 c -193.1,-302.9 -104,-705.2 199,-898.3 303,-193.1 705.2,-103.9 898.3,199 900.4,1414.9 2944.1,1415.8 4044.7,236.3 245.3,-263.5 657.8,-278.4 921.3,-33.1 263.5,245.2 278.4,657.7 33.1,921.3 -1674.2,1794.2 -4745.4,1697.5 -6096.4,-425.2 z"
   id="path263"
   inkscape:connector-curvature="0"
   style="fill:#000000;fill-rule:nonzero;stroke:#fefefe;stroke-width:352.79998779;stroke-linejoin:round;stroke-miterlimit:2.61313009" /><path
   class="fil3 str0"
   d="m 11055.7,31414.7 c -144.4,-347.9 20.5,-747.2 368.4,-891.7 348,-144.4 747.3,20.5 891.7,368.5 l 4707.5,11228.8 c 144.4,347.9 -20.5,747.2 -368.5,891.6 -347.9,144.5 -747.2,-20.4 -891.6,-368.4 z"
   id="path265"
   inkscape:connector-curvature="0"
   style="fill:#00a0e3;fill-rule:nonzero;stroke:#fefefe;stroke-width:352.79998779;stroke-linejoin:round;stroke-miterlimit:2.61313009" /><path
   class="fil3 str0"
   d="m 16232.5,31414.7 c -144.4,-347.9 20.5,-747.2 368.5,-891.7 347.9,-144.4 747.2,20.5 891.6,368.5 l 4707.5,11228.8 c 144.4,347.9 -20.5,747.2 -368.4,891.6 -348,144.5 -747.3,-20.4 -891.7,-368.4 z"
   id="path267"
   inkscape:connector-curvature="0"
   style="fill:#00a0e3;fill-rule:nonzero;stroke:#fefefe;stroke-width:352.79998779;stroke-linejoin:round;stroke-miterlimit:2.61313009" /><path
   class="fil3 str0"
   d="m 21409.4,31414.7 c -144.4,-347.9 20.5,-747.2 368.4,-891.7 348,-144.4 747.3,20.5 891.7,368.5 l 4707.4,11228.8 c 144.5,347.9 -20.4,747.2 -368.4,891.6 -348,144.5 -747.2,-20.4 -891.7,-368.4 z"
   id="path269"
   inkscape:connector-curvature="0"
   style="fill:#00a0e3;fill-rule:nonzero;stroke:#fefefe;stroke-width:352.79998779;stroke-linejoin:round;stroke-miterlimit:2.61313009" /><path
   class="fil3 str0"
   d="m 26586.2,31414.7 c -144.4,-347.9 20.5,-747.2 368.5,-891.7 347.9,-144.4 747.2,20.5 891.6,368.5 l 4707.5,11228.8 c 144.4,347.9 -20.5,747.2 -368.4,891.6 -348,144.5 -747.3,-20.4 -891.7,-368.4 z"
   id="path271"
   inkscape:connector-curvature="0"
   style="fill:#00a0e3;fill-rule:nonzero;stroke:#fefefe;stroke-width:352.79998779;stroke-linejoin:round;stroke-miterlimit:2.61313009" /><path
   class="fil3 str0"
   d="m 31763.1,31414.7 c -144.5,-347.9 20.4,-747.2 368.4,-891.7 347.9,-144.4 747.2,20.5 891.7,368.5 l 4707.4,11228.8 c 144.5,347.9 -20.5,747.2 -368.4,891.6 -348,144.5 -747.2,-20.4 -891.7,-368.4 z"
   id="path273"
   inkscape:connector-curvature="0"
   style="fill:#00a0e3;fill-rule:nonzero;stroke:#fefefe;stroke-width:352.79998779;stroke-linejoin:round;stroke-miterlimit:2.61313009" /><path
   class="fil3 str0"
   d="m 36939.9,31414.7 c -144.5,-347.9 20.4,-747.2 368.4,-891.7 348,-144.4 747.2,20.5 891.7,368.5 l 4707.4,11228.8 c 144.5,347.9 -20.4,747.2 -368.4,891.6 -348,144.5 -747.2,-20.4 -891.7,-368.4 z"
   id="path275"
   inkscape:connector-curvature="0"
   style="fill:#00a0e3;fill-rule:nonzero;stroke:#fefefe;stroke-width:352.79998779;stroke-linejoin:round;stroke-miterlimit:2.61313009" />
</svg>