<?xml version="1.0" encoding="UTF-8" standalone="no"?>
<!-- Creator: CorelDRAW 2019 (64-Bit) -->

<svg
   xmlns:dc="http://purl.org/dc/elements/1.1/"
   xmlns:cc="http://creativecommons.org/ns#"
   xmlns:rdf="http://www.w3.org/1999/02/22-rdf-syntax-ns#"
   xmlns:svg="http://www.w3.org/2000/svg"
   xmlns="http://www.w3.org/2000/svg"
   xmlns:sodipodi="http://sodipodi.sourceforge.net/DTD/sodipodi-0.dtd"
   xmlns:inkscape="http://www.inkscape.org/namespaces/inkscape"
   xml:space="preserve"
   width="50mm"
   height="50mm"
   version="1.1"
   style="shape-rendering:geometricPrecision; text-rendering:geometricPrecision; image-rendering:optimizeQuality; fill-rule:evenodd; clip-rule:evenodd"
   viewBox="0 0 50000 50000"
   id="svg488"
   sodipodi:docname="10dl.svg"
   inkscape:version="0.92.5 (2060ec1f9f, 2020-04-08)"><metadata
   id="metadata492"><rdf:RDF><cc:Work
       rdf:about=""><dc:format>image/svg+xml</dc:format><dc:type
         rdf:resource="http://purl.org/dc/dcmitype/StillImage" /></cc:Work></rdf:RDF></metadata><sodipodi:namedview
   pagecolor="#ffffff"
   bordercolor="#666666"
   borderopacity="1"
   objecttolerance="10"
   gridtolerance="10"
   guidetolerance="10"
   inkscape:pageopacity="0"
   inkscape:pageshadow="2"
   inkscape:window-width="640"
   inkscape:window-height="480"
   id="namedview490"
   showgrid="false"
   inkscape:zoom="4.9953333"
   inkscape:cx="68.93262"
   inkscape:cy="127.19367"
   inkscape:window-x="0"
   inkscape:window-y="0"
   inkscape:window-maximized="0"
   inkscape:current-layer="svg488" />
 <defs
   id="defs361">
  <style
   type="text/css"
   id="style359">
   <![CDATA[
    .str0 {stroke:#FEFEFE;stroke-width:352.8;stroke-linejoin:round;stroke-miterlimit:2.61313}
    .fil0 {fill:#FEFEFE}
    .fil4 {fill:#2B2A29}
    .fil6 {fill:#EBECEC;fill-rule:nonzero}
    .fil5 {fill:#C5C6C6;fill-rule:nonzero}
    .fil7 {fill:#2B2A29;fill-rule:nonzero}
    .fil1 {fill:#2B2A29;fill-rule:nonzero}
    .fil2 {fill:#FFED00;fill-rule:nonzero}
    .fil3 {fill:#00A0E3;fill-rule:nonzero}
   ]]>
  </style>
 
  
  
  
  
 
   
  
   
   
   
   
   
   
   
  
   
   
   
   
   
   
   
   
   
   
   
   
   
   
   
  
    
    
   
    
    
   
    
    
   
    
    
   
    
    
   
    
    
   
    
    
   
    
    
   
    
    
   
    
    
   
    
    
   
    
    
   
    
    
   
    
    
   
    
    
   
    
    
    
    
    
    
    
   </defs>
 <path
   style="fill:#fefefe"
   inkscape:connector-curvature="0"
   id="path364"
   d="m 12149.3,6754.6 4269.6,4901.9 c 165.4,-50.2 333.2,-95.1 503.3,-134.2 l 1248.4,-6388.7 c 99.9,-512.4 842,-490.4 927.4,11.4 l 1246.1,6377.3 c 170.1,39 337.9,83.9 503.4,134.2 l 4275,-4908.1 c 344,-395.3 978,-1.1 796.8,477 l -2107.9,6141.2 c 127.2,118.8 250.4,241.9 369.2,369.1 l 6155.5,-2112.8 c 494.2,-169.4 846.2,485.2 453.5,809.8 l -4898.9,4266.9 c 50.3,165.5 94.9,333.3 134,503.4 l 6388.8,1248.3 c 512.8,100.1 490.4,843.1 -12,927.7 l -6376.6,1245.9 c -39.1,170.1 -83.9,337.9 -134.2,503.4 l 4908.1,4275 c 394.2,343.2 3.1,975.8 -474.5,797.7 l -6143.8,-2108.8 c -118.7,127.2 -241.9,250.3 -369.1,369 l 2112.9,6155.7 c 168.6,491.9 -479.9,844.5 -806.7,457.1 l -4270.1,-4902.6 c -165.4,50.2 -333.3,94.9 -503.3,134 l -1248.4,6388.9 c -99.4,509.4 -835,491.9 -926.3,-5.3 l -1247.3,-6383.4 c -170,-39 -337.8,-83.9 -503.3,-134.2 l -4275,4908.2 c -341.8,392.6 -972,6.5 -799.1,-470.5 l 2110.1,-6147.8 c -127.1,-118.8 -250.2,-241.9 -368.9,-369.1 l -6155.8,2112.9 c -507.9,174.1 -832.2,-479.8 -445.2,-817 l 4890.7,-4259.8 c -50.2,-165.4 -94.9,-333.3 -134,-503.3 L 4852.8,19376.6 c -507.9,-99.1 -492.5,-831.7 2.6,-925.8 l 6386,-1247.8 c 39.1,-170.1 84,-337.9 134.2,-503.4 l -4908,-4274.9 c -393.7,-342.7 -4.5,-974.1 472.9,-798.3 l 6145.3,2109.3 c 118.7,-127.2 241.9,-250.3 369.1,-369.1 L 11342.1,7211 c -168.8,-492.3 480.7,-844.5 807.2,-456.4 z m 4003.6,5133.4 -4269.6,-4901.9 1.2,-1 c -1.3,-1.5 -2.6,-3 -3.9,-4.5 -24.1,-28.7 -54.4,-40.8 -83,-40.1 -21.2,0.5 -44.9,8 -67.7,20.8 -21.3,12 -38.9,27.4 -49.7,44.5 -12.7,20.1 -17,48.2 -7.7,82.2 1.1,2.9 2.1,5.7 3.1,8.6 l 2112.8,6155.6 -0.5,0.2 c 43.6,127.4 11.8,274.2 -93.2,371.9 -50.7,47.4 -110.2,105.1 -178.7,173.6 l -0.6,-0.6 c -51.2,51.2 -104,105.8 -158.3,163.7 -90.9,109.3 -243.3,157 -385.7,108.2 l -6145.3,-2109.3 0.1,-0.2 c -2.3,-0.8 -4.7,-1.6 -7,-2.5 -36.1,-13.3 -68.2,-9.1 -91.8,5.3 -17.2,10.5 -32.1,24.6 -43.4,40.7 -2,3.6 -4.1,7.2 -6.2,10.8 -12,20.1 -19.4,42.4 -20.3,63.7 -1.1,25.6 11.3,54.6 41.6,81 l 4908,4274.9 -0.7,0.9 c 101.1,88.1 146.9,230.5 105.5,367.1 -18.6,61.5 -41.1,141.3 -67.2,239 -20.9,78.7 -40,153.9 -56.5,225.2 -25.1,138.7 -132.6,254.5 -279.3,283.1 l -6386,1247.8 -0.1,-0.5 c -0.9,0.1 -1.7,0.3 -2.6,0.5 -35.7,6.7 -60.3,26.2 -73.2,50.2 -11.5,21.4 -17.5,45.7 -17.6,69.2 -0.1,23.4 5.1,46.7 15.6,66.2 12,22.4 36.9,40.9 75.3,48.4 l 6388.9,1248.4 -0.1,0.3 c 132.4,25.9 243.8,127.1 275.8,267 17.8,77.3 36.5,153.2 56,227.1 1.4,4.6 2.7,9.2 4,13.9 22.3,83.7 42.1,154.7 59,211.8 53.1,135 19,294.5 -96.7,395.1 l -4890.7,4259.8 -0.7,-0.8 c -35.6,31.3 -50.7,69.9 -49.9,106 0.5,23.7 7.7,48.4 20,70.4 10,17.9 23.4,32.8 38.5,41.9 19.7,11.9 50.7,13.9 91.4,0 l 6155.8,-2112.9 0.2,0.5 c 127.4,-43.6 274.2,-11.8 371.9,93.2 53,56.8 104.7,110.5 154.8,161.1 6.1,5.3 12,10.8 17.8,16.6 62,62 117,115.7 164.2,160.2 109.1,90.9 156.7,243.1 107.9,385.4 l -2110.1,6147.8 -0.7,-0.2 c -0.7,1.9 -1.3,3.8 -2,5.7 -12.8,35.5 -8.3,67.4 6.3,91.3 11.5,18.9 29.4,35.6 50.9,48.3 21.4,12.6 44,20.3 64.5,21.1 25.4,1 54.3,-11.3 80.6,-41.6 l 4275,-4908.2 0.9,0.7 c 88.1,-101.1 230.5,-146.9 367.1,-105.5 69.4,21 148.7,43.6 239.2,67.7 73.2,19.5 148.5,38.3 225.1,56 138.6,25.2 254.4,132.7 282.9,279.3 l 1247.3,6383.4 -0.8,0.2 c 0.3,1.3 0.6,2.6 0.8,3.9 6.7,36.3 26.1,61.2 50.1,74.2 21.6,11.7 46.1,17.8 69.7,18 19.4,0.2 39,-3.6 56.9,-11.1 2.9,-1.7 5.8,-3.3 8.8,-4.9 22.7,-12.1 41.6,-36.9 49,-75 l 1248.4,-6388.9 0.3,0.1 c 25.9,-132.4 127.1,-243.8 267,-275.8 77.3,-17.8 153.2,-36.5 227.1,-56 4.6,-1.4 9.2,-2.7 13.9,-4 83.7,-22.3 154.7,-42.1 211.8,-59 135,-53.1 294.5,-19 395.1,96.7 l 4270.1,4902.6 -0.5,0.4 c 1.1,1.2 2.1,2.5 3.2,3.7 24.7,29.3 54.7,41.6 82.5,40.9 21.3,-0.5 45.1,-8.1 67.9,-20.9 21,-11.8 38.7,-27.4 49.6,-44.8 12.6,-20 16.8,-48 7.6,-81.9 -1.1,-2.8 -2.1,-5.7 -3.1,-8.6 l -2112.9,-6155.7 0.5,-0.2 c -43.6,-127.4 -11.8,-274.2 93.2,-371.9 50.7,-47.3 110,-104.9 178.5,-173.4 61.2,-61.2 114.8,-116.1 159.2,-163.3 90.9,-109.3 243.2,-156.9 385.6,-108.1 l 6143.8,2108.8 -0.3,1 c 2.8,1 5.7,2 8.6,3.1 35.5,13.2 67.5,8.8 91.5,-5.8 19.8,-12.1 37,-30 49.5,-50.9 12.3,-20.5 19.8,-43 20.8,-64.5 1.2,-25.5 -11.1,-54.6 -41.5,-81.1 l -4908.1,-4275 0.7,-0.9 c -101.1,-88.1 -146.9,-230.5 -105.5,-367.1 20.9,-69 43.4,-148.1 67.4,-238.3 19.6,-73.7 38.5,-149.4 56.3,-226.3 25.3,-138.5 132.8,-254.2 279.3,-282.7 l 6376.6,-1245.9 0.1,0.3 c 3.1,-0.6 6.3,-1.2 9.5,-1.7 37.4,-6.3 62.8,-25.6 75.9,-49.6 11.1,-20.3 17.1,-44.6 17.4,-69.2 v 0 c 0.1,-23.6 -4.8,-46.8 -14.8,-66.3 -11.7,-22.7 -36.8,-41.8 -76.1,-49.4 l -6388.8,-1248.3 0.1,-0.3 c -132.4,-25.9 -243.8,-127.1 -275.8,-267 -18.9,-82.7 -39.1,-163.6 -60,-242.4 -20.6,-77.4 -40.2,-147.7 -58.7,-209.8 -53.5,-135.1 -19.5,-295 96.4,-395.8 l 4898.9,-4266.9 0.2,0.2 c 2.2,-1.9 4.4,-3.8 6.7,-5.7 29.8,-24.6 42.3,-54.2 41.7,-81.5 -0.5,-22.7 -7.7,-46.7 -19.8,-68.5 -11.3,-20.4 -27.2,-38 -45.7,-49.9 -20,-12.8 -48.2,-17.2 -82.2,-7.9 -2.8,1 -5.6,2 -8.5,3 l -6155.5,2112.8 -0.2,-0.5 c -127.4,43.6 -274.2,11.8 -371.9,-93.2 -46.8,-50.1 -104.8,-109.7 -172.8,-177.7 -62,-62 -116.9,-115.5 -164.3,-160.2 -109.1,-90.9 -156.7,-243.1 -107.9,-385.4 l 2107.9,-6141.2 0.6,0.2 c 1.1,-3.3 2.3,-6.5 3.5,-9.8 13.7,-36.3 9.8,-68.6 -4.6,-92.2 -11.7,-19.2 -29.9,-36.3 -51.6,-49.4 l 0.4,-0.6 c -20.5,-12.2 -42.9,-19.6 -64.1,-20.7 -25.7,-1.3 -55,10.9 -81.5,41.4 l -4275,4908.1 -0.9,-0.7 c -88.1,101.1 -230.5,146.9 -367.1,105.5 -65.3,-19.8 -139.9,-41.1 -223.7,-63.5 -5.1,-1.1 -10.2,-2.3 -15.3,-3.7 -78.8,-21 -154.1,-40 -225.3,-56.5 -138.6,-25.2 -254.4,-132.7 -283,-279.3 l -1246.1,-6377.3 0.3,-0.1 c -0.6,-3.1 -1.2,-6.3 -1.7,-9.5 -6.3,-37 -25.7,-62.2 -49.8,-75.3 -20.3,-11.1 -44.1,-17 -68,-17.3 -23.9,-0.3 -47.7,4.7 -67.7,15 -21.1,10.9 -39,33.4 -47.2,67.7 -0.5,2.7 -1,5.4 -1.5,8.1 l -1248.4,6388.7 -0.3,-0.1 c -25.9,132.4 -127.1,243.8 -267,275.8 -82,18.8 -162.4,38.9 -240.8,59.7 -78.3,20.9 -149.1,40.8 -211.6,59.3 -135.1,53.3 -294.8,19.3 -395.5,-96.5 z"
   class="fil0" /><path
   style="fill:#000000;fill-rule:nonzero"
   inkscape:connector-curvature="0"
   d="m 12149.3,6754.6 4269.6,4901.9 c 165.4,-50.2 333.2,-95.1 503.3,-134.2 l 1248.4,-6388.7 c 99.9,-512.4 842,-490.4 927.4,11.4 l 1246.1,6377.3 c 170.1,39 337.9,83.9 503.4,134.2 l 4275,-4908.1 c 344,-395.3 978,-1.1 796.8,477 l -2107.9,6141.2 c 127.2,118.8 250.4,241.9 369.2,369.1 l 6155.5,-2112.8 c 494.2,-169.4 846.2,485.2 453.5,809.8 l -4898.9,4266.9 c 50.3,165.5 94.9,333.3 134,503.4 l 6388.8,1248.3 c 512.8,100.1 490.4,843.1 -12,927.7 l -6376.6,1245.9 c -39.1,170.1 -83.9,337.9 -134.2,503.4 l 4908.1,4275 c 394.2,343.2 3.1,975.8 -474.5,797.7 l -6143.8,-2108.8 c -118.7,127.2 -241.9,250.3 -369.1,369 l 2112.9,6155.7 c 168.6,491.9 -479.9,844.5 -806.7,457.1 l -4270.1,-4902.6 c -165.4,50.2 -333.3,94.9 -503.3,134 l -1248.4,6388.9 c -99.4,509.4 -835,491.9 -926.3,-5.3 l -1247.3,-6383.4 c -170,-39 -337.8,-83.9 -503.3,-134.2 l -4275,4908.2 c -341.8,392.6 -972,6.5 -799.1,-470.5 l 2110.1,-6147.8 c -127.1,-118.8 -250.2,-241.9 -368.9,-369.1 l -6155.8,2112.9 c -507.9,174.1 -832.2,-479.8 -445.2,-817 l 4890.7,-4259.8 c -50.2,-165.4 -94.9,-333.3 -134,-503.3 L 4852.8,19376.6 c -507.9,-99.1 -492.5,-831.7 2.6,-925.8 l 6386,-1247.8 c 39.1,-170.1 84,-337.9 134.2,-503.4 l -4908,-4274.9 c -393.7,-342.7 -4.5,-974.1 472.9,-798.3 l 6145.3,2109.3 c 118.7,-127.2 241.9,-250.3 369.1,-369.1 L 11342.1,7211 c -168.8,-492.3 480.7,-844.5 807.2,-456.4 z"
   class="fil1"
   id="1" /><path
   style="fill:#fefefe"
   inkscape:connector-curvature="0"
   id="path369"
   d="m 18918.7,10981 -285.5,-1461.3 -285.6,1461.3 c 97.2,-3.9 192.1,-5.9 285.5,-5.9 93.5,0 188.4,2 285.6,5.9 z m 433.7,381.9 -719.2,-3681 -719.3,3681 c 497.5,-46.6 941,-46.7 1438.5,0 z"
   class="fil0" /><path
   style="fill:#ffed00;fill-rule:nonzero"
   inkscape:connector-curvature="0"
   d="m 19352.4,11362.9 -719.2,-3681 -719.3,3681 c 497.5,-46.6 941,-46.7 1438.5,0 z"
   class="fil2"
   id="path371" /><path
   style="fill:#fefefe"
   inkscape:connector-curvature="0"
   id="path375"
   d="m 22847.5,12184 481.9,-1404 -975.4,1119.8 c 83.6,44.3 166.4,90.2 248.4,137.5 0.4,0.2 0.7,0.4 1,0.6 l 0.4,-0.6 c 82,47.4 163.3,96.3 243.7,146.7 z m 185.1,546.7 1216.1,-3543 -2460.4,2824.7 c 439,200.6 855.4,441.6 1244.3,718.3 z"
   class="fil0" /><path
   style="fill:#ffed00;fill-rule:nonzero"
   inkscape:connector-curvature="0"
   d="m 23032.6,12730.7 1216.1,-3543 -2460.4,2824.7 c 439,200.6 855.4,441.6 1244.3,718.3 z"
   class="fil2"
   id="path377" /><path
   style="fill:#fefefe"
   inkscape:connector-curvature="0"
   id="path381"
   d="m 25647.5,15193 1119.6,-975.2 -1404.2,481.9 c 50.2,80.3 99.2,162 147.2,245.1 47.3,82 93.1,164.7 137.4,248.2 z m -112.7,565.8 2824.6,-2460.3 -3542.8,1216 c 276.8,388.9 517.8,805.3 718.2,1244.3 z"
   class="fil0" /><path
   style="fill:#ffed00;fill-rule:nonzero"
   inkscape:connector-curvature="0"
   d="m 25534.8,15758.8 2824.6,-2460.3 -3542.8,1216 c 276.8,388.9 517.8,805.3 718.2,1244.3 z"
   class="fil2"
   id="path383" /><path
   style="fill:#fefefe"
   inkscape:connector-curvature="0"
   id="path387"
   d="m 26566.2,19199.5 1461.3,-285.5 -1461.3,-285.6 c 3.9,97.2 5.9,192.1 5.9,285.5 0,93.5 -2,188.4 -5.9,285.6 z m -382,433.7 3681,-719.2 -3680.9,-719.3 c 46.7,497.2 46.6,941.3 -0.1,1438.5 z"
   class="fil0" /><path
   style="fill:#ffed00;fill-rule:nonzero"
   inkscape:connector-curvature="0"
   d="m 26184.2,19633.2 3681,-719.2 -3680.9,-719.3 c 46.7,497.2 46.6,941.3 -0.1,1438.5 z"
   class="fil2"
   id="path389" /><path
   style="fill:#fefefe"
   inkscape:connector-curvature="0"
   id="path393"
   d="m 25362.7,23128.1 1404.4,482.1 -1119.4,-975 c -44.7,84.4 -90.6,167.4 -137.7,249.1 -3.7,6.4 -7.6,12.6 -11.6,18.6 -44.3,76.3 -89.5,151.4 -135.7,225.2 z m -546.3,185.3 3543.1,1216.1 -2824.8,-2460.4 c -200.4,439 -441.5,855.4 -718.3,1244.3 z"
   class="fil0" /><path
   style="fill:#ffed00;fill-rule:nonzero"
   inkscape:connector-curvature="0"
   d="m 24816.4,23313.4 3543.1,1216.1 -2824.8,-2460.4 c -200.4,439 -441.5,855.4 -718.3,1244.3 z"
   class="fil2"
   id="path395" /><path
   style="fill:#fefefe"
   inkscape:connector-curvature="0"
   id="path399"
   d="m 22354.1,25928.2 975.3,1119.7 -482,-1404.3 c -80.3,50.2 -162,99.2 -245.1,147.2 -82,47.3 -164.7,93.1 -248.2,137.4 z m -565.8,-112.7 2460.4,2824.7 -1216.1,-3542.9 c -388.9,276.8 -805.3,517.8 -1244.3,718.2 z"
   class="fil0" /><path
   style="fill:#ffed00;fill-rule:nonzero"
   inkscape:connector-curvature="0"
   d="m 21788.3,25815.5 2460.4,2824.7 -1216.1,-3542.9 c -388.9,276.8 -805.3,517.8 -1244.3,718.2 z"
   class="fil2"
   id="path401" /><path
   style="fill:#fefefe"
   inkscape:connector-curvature="0"
   id="path405"
   d="m 18347.7,26846.9 285.5,1461.4 285.6,-1461.4 c -97.2,3.9 -192.1,5.9 -285.6,5.9 -93.4,0 -188.3,-2 -285.5,-5.9 z m -433.7,-381.9 719.2,3681 719.3,-3680.9 c -497.4,46.6 -941.2,46.5 -1438.5,-0.1 z"
   class="fil0" /><path
   style="fill:#ffed00;fill-rule:nonzero"
   inkscape:connector-curvature="0"
   d="m 17914,26465 719.2,3681 719.3,-3680.9 c -497.4,46.6 -941.2,46.5 -1438.5,-0.1 z"
   class="fil2"
   id="path407" /><path
   style="fill:#fefefe"
   inkscape:connector-curvature="0"
   id="path411"
   d="m 14419,25643.5 -482,1404.3 974.9,-1119.3 c -84.4,-44.7 -167.5,-90.6 -249.2,-137.8 -6.4,-3.7 -12.5,-7.5 -18.6,-11.6 -76.2,-44.2 -151.3,-89.4 -225.1,-135.6 z m -185.2,-546.3 -1216.1,3543.1 2460.3,-2824.8 c -439,-200.5 -855.3,-441.5 -1244.2,-718.3 z"
   class="fil0" /><path
   style="fill:#ffed00;fill-rule:nonzero"
   inkscape:connector-curvature="0"
   d="m 14233.8,25097.2 -1216.1,3543.1 2460.3,-2824.8 c -439,-200.5 -855.3,-441.5 -1244.2,-718.3 z"
   class="fil2"
   id="path413" /><path
   style="fill:#fefefe"
   inkscape:connector-curvature="0"
   id="path417"
   d="m 11619,22634.8 -1119.8,975.4 1404.4,-482.1 c -50.1,-80.2 -99.2,-161.9 -147.1,-244.9 -47.3,-82 -93.2,-164.8 -137.5,-248.4 z m 112.6,-565.7 -2824.7,2460.4 3543,-1216.1 c -276.8,-388.9 -517.8,-805.3 -718.3,-1244.3 z"
   class="fil0" /><path
   style="fill:#ffed00;fill-rule:nonzero"
   inkscape:connector-curvature="0"
   d="m 11731.6,22069.1 -2824.7,2460.4 3543,-1216.1 c -276.8,-388.9 -517.8,-805.3 -718.3,-1244.3 z"
   class="fil2"
   id="path419" /><path
   style="fill:#fefefe"
   inkscape:connector-curvature="0"
   id="path423"
   d="M 10700.2,18628.5 9239,18914 l 1461.2,285.5 c -3.9,-97.1 -5.9,-192 -5.9,-285.5 0,-93.4 2,-188.3 5.9,-285.5 z m 381.9,-433.7 -3681,719.2 3681,719.2 c -46.7,-497 -46.6,-941.3 0,-1438.4 z"
   class="fil0" /><path
   style="fill:#ffed00;fill-rule:nonzero"
   inkscape:connector-curvature="0"
   d="m 11082.1,18194.8 -3681,719.2 3681,719.2 c -46.7,-497 -46.6,-941.3 0,-1438.4 z"
   class="fil2"
   id="path425" /><path
   style="fill:#fefefe"
   inkscape:connector-curvature="0"
   id="path429"
   d="m 11903.5,14699.7 -1404.2,-481.9 1119.2,974.8 c 44.7,-84.4 90.6,-167.5 137.8,-249.2 3.7,-6.4 7.5,-12.5 11.6,-18.6 44.2,-76.2 89.4,-151.3 135.6,-225.1 z m 546.3,-185.2 -3542.9,-1216 2824.6,2460.2 c 200.5,-439 441.5,-855.3 718.3,-1244.2 z"
   class="fil0" /><path
   style="fill:#ffed00;fill-rule:nonzero"
   inkscape:connector-curvature="0"
   d="m 12449.8,14514.5 -3542.9,-1216 2824.6,2460.2 c 200.5,-439 441.5,-855.3 718.3,-1244.2 z"
   class="fil2"
   id="path431" /><path
   style="fill:#fefefe"
   inkscape:connector-curvature="0"
   id="path435"
   d="m 14911.9,11899.4 -974.9,-1119.3 482.1,1404.4 c 80,-50 161.4,-99 244.3,-146.8 l -0.4,-0.6 c 81.6,-47.1 164.6,-93 248.9,-137.7 z m 566.1,113 -2460.3,-2824.7 1216.1,3543 c 388.9,-276.7 805.2,-517.8 1244.2,-718.3 z"
   class="fil0" /><path
   style="fill:#ffed00;fill-rule:nonzero"
   inkscape:connector-curvature="0"
   d="m 15478,12012.4 -2460.3,-2824.7 1216.1,3543 c 388.9,-276.7 805.2,-517.8 1244.2,-718.3 z"
   class="fil2"
   id="path437" /><path
   style="fill:#fefefe"
   inkscape:connector-curvature="0"
   id="path441"
   d="m 15073.3,15354.3 c -982.8,982.9 -1474.3,2271.4 -1474.3,3559.8 0,1288.3 491.6,2576.8 1474.5,3559.7 982.9,982.8 2271.4,1474.3 3559.8,1474.3 1288.3,0 2576.8,-491.6 3559.7,-1474.5 982.9,-982.9 1474.4,-2271.4 1474.4,-3559.8 h 1.4 c 0,-1287.4 -492.1,-2575.9 -1475.9,-3559.7 -983.9,-983.8 -2272.4,-1475.7 -3559.9,-1475.7 v 1.4 c -1288.3,0 -2576.8,491.6 -3559.7,1474.5 z m -249.4,-249.4 c -2103.7,2103.8 -2103.6,5514.6 0.2,7618.3 2103.8,2103.7 5514.6,2103.6 7618.3,-0.2 2103.7,-2103.8 2103.7,-5514.5 -0.1,-7618.3 -2103.9,-2103.7 -5514.6,-2103.7 -7618.4,0.2 z"
   class="fil0" /><path
   style="fill:#ffed00;fill-rule:nonzero"
   inkscape:connector-curvature="0"
   d="m 14823.9,15104.9 c -2103.7,2103.8 -2103.6,5514.6 0.2,7618.3 2103.8,2103.7 5514.6,2103.6 7618.3,-0.2 2103.7,-2103.8 2103.7,-5514.5 -0.1,-7618.3 -2103.9,-2103.7 -5514.6,-2103.7 -7618.4,0.2 z"
   class="fil2"
   id="path443" /><path
   style="fill:#fefefe"
   inkscape:connector-curvature="0"
   id="path447"
   d="M 14231.4,14512.4 C 13015.2,15728.7 12407,17321.9 12407,18914 h 1.4 c 0,1593.1 607.8,3186.3 1823.2,4401.7 1215.4,1215.3 2808.7,1823.1 4401.7,1823.1 v 1.4 c 1592.2,0 3185.4,-608.4 4401.7,-1824.7 1216.2,-1216.3 1824.4,-2809.6 1824.4,-4401.8 h -1.4 c 0,-1593 -607.9,-3186.2 -1823.3,-4401.5 l -0.1,-0.1 c -1215.4,-1215.3 -2808.6,-1823 -4401.6,-1823 -1593,0 -3186.1,607.8 -4401.5,1823.2 z M 13982,14263 c -2568.7,2568.8 -2568.5,6733.4 0.2,9302.1 2568.8,2568.7 6733.5,2568.6 9302.2,-0.2 2568.6,-2568.8 2568.6,-6733.4 -0.3,-9302.1 -2568.8,-2568.7 -6733.4,-2568.7 -9302.1,0.2 z"
   class="fil0" /><path
   style="fill:#ffed00;fill-rule:nonzero"
   inkscape:connector-curvature="0"
   d="m 13982,14263 c -2568.7,2568.8 -2568.5,6733.4 0.2,9302.1 2568.8,2568.7 6733.5,2568.6 9302.2,-0.2 2568.6,-2568.8 2568.6,-6733.4 -0.3,-9302.1 -2568.8,-2568.7 -6733.4,-2568.7 -9302.1,0.2 z"
   class="fil2"
   id="path449" /><path
   class="fil3 str0"
   d="m 11189.4,36266.8 c -217.2,-421.5 -51.7,-939.3 369.8,-1156.6 421.5,-217.2 939.4,-51.6 1156.6,369.9 l 1561.1,3013.3 c 217.3,421.5 51.7,939.4 -369.8,1156.6 -421.5,217.3 -939.3,51.7 -1156.6,-369.8 z"
   id="path454"
   inkscape:connector-curvature="0"
   style="fill:#00a0e3;fill-rule:nonzero;stroke:#fefefe;stroke-width:352.79998779;stroke-linejoin:round;stroke-miterlimit:2.61313009" /><path
   class="fil3 str0"
   d="m 18450.5,35540.6 c -217.2,-421.4 -51.6,-939.3 369.8,-1156.5 421.5,-217.3 939.4,-51.7 1156.6,369.8 l 1561.2,3013.4 c 217.2,421.4 51.6,939.3 -369.9,1156.5 -421.4,217.3 -939.3,51.7 -1156.5,-369.8 z"
   id="path456"
   inkscape:connector-curvature="0"
   style="fill:#00a0e3;fill-rule:nonzero;stroke:#fefefe;stroke-width:352.79998779;stroke-linejoin:round;stroke-miterlimit:2.61313009" /><path
   class="fil3 str0"
   d="m 24774,40824.3 c -217.2,-421.4 -51.7,-939.3 369.8,-1156.5 421.5,-217.3 939.4,-51.7 1156.6,369.8 l 1561.1,3013.4 c 217.3,421.4 51.7,939.3 -369.8,1156.5 -421.5,217.3 -939.3,51.7 -1156.6,-369.8 z"
   id="path458"
   inkscape:connector-curvature="0"
   style="fill:#00a0e3;fill-rule:nonzero;stroke:#fefefe;stroke-width:352.79998779;stroke-linejoin:round;stroke-miterlimit:2.61313009" /><path
   class="fil3 str0"
   d="m 16825.5,40885.9 c -217.3,-421.5 -51.7,-939.3 369.8,-1156.6 421.5,-217.2 939.3,-51.6 1156.6,369.8 l 1561.1,3013.4 c 217.3,421.5 51.7,939.3 -369.8,1156.6 -421.5,217.2 -939.3,51.6 -1156.6,-369.8 z"
   id="path460"
   inkscape:connector-curvature="0"
   style="fill:#00a0e3;fill-rule:nonzero;stroke:#fefefe;stroke-width:352.79998779;stroke-linejoin:round;stroke-miterlimit:2.61313009" /><path
   class="fil3 str0"
   d="m 28682.3,36266.8 c -217.3,-421.5 -51.7,-939.3 369.8,-1156.6 421.5,-217.2 939.3,-51.6 1156.6,369.9 l 1561.1,3013.3 c 217.2,421.5 51.7,939.4 -369.8,1156.6 -421.5,217.3 -939.4,51.7 -1156.6,-369.8 z"
   id="path462"
   inkscape:connector-curvature="0"
   style="fill:#00a0e3;fill-rule:nonzero;stroke:#fefefe;stroke-width:352.79998779;stroke-linejoin:round;stroke-miterlimit:2.61313009" /><path
   class="fil3 str0"
   d="m 35943.4,35540.6 c -217.3,-421.4 -51.7,-939.3 369.8,-1156.5 421.5,-217.3 939.3,-51.7 1156.6,369.8 l 1561.1,3013.4 c 217.3,421.4 51.7,939.3 -369.8,1156.5 -421.5,217.3 -939.3,51.7 -1156.6,-369.8 z"
   id="path464"
   inkscape:connector-curvature="0"
   style="fill:#00a0e3;fill-rule:nonzero;stroke:#fefefe;stroke-width:352.79998779;stroke-linejoin:round;stroke-miterlimit:2.61313009" /><path
   class="fil3 str0"
   d="m 34439,41117.8 c -217.3,-421.4 -51.7,-939.3 369.8,-1156.5 421.5,-217.3 939.3,-51.7 1156.6,369.8 l 1561.1,3013.4 c 217.3,421.4 51.7,939.3 -369.8,1156.5 -421.5,217.3 -939.3,51.7 -1156.6,-369.8 z"
   id="path466"
   inkscape:connector-curvature="0"
   style="fill:#00a0e3;fill-rule:nonzero;stroke:#fefefe;stroke-width:352.79998779;stroke-linejoin:round;stroke-miterlimit:2.61313009" /><path
   style="fill:#000000;stroke:#fefefe;stroke-width:352.79998779;stroke-linejoin:round;stroke-miterlimit:2.61313009"
   inkscape:connector-curvature="0"
   id="path470"
   d="m 18808.5,19017.3 c 1600.2,-1666.4 3956.6,-2486 6237.7,-2150.8 2741.1,-2987.8 7712,-2314.5 9692.4,1118.8 1739.9,130.7 3369.4,1015.7 4422.2,2412.4 1727.2,-127.7 3483.9,485.4 4743.3,1744.9 2369.3,2369 2383.9,6250.1 -43.6,8581.8 -1651.4,1586.2 -3263.3,1865.1 -5090,1534.9 -2239.1,3199.3 -6327.6,3751.8 -9551.3,1619.2 -2873,1703.4 -6645.8,1489.5 -9302.7,-743.5 -1011.2,126.4 -2066.4,-14.7 -3055.3,-463.6 -2664.4,1734.5 -6396.1,1025 -8226.1,-1603.8 -1117.9,-96.5 -2191.4,-579.2 -3016.4,-1404.2 -968.8,-968.6 -1482.3,-2296.1 -1416.9,-3663.4 118.2,-2490.3 2118.5,-4402.6 4456.9,-4605 1215.3,-1576.6 3185.2,-2271.5 5167.4,-1964.2 1034.6,-809.5 2407.9,-1115.8 3777.6,-819.6 465.1,100.6 861.3,236.3 1204.8,406.1 z"
   class="fil4 str0" /><path
   style="fill:#c5c6c6;fill-rule:nonzero;stroke:#fefefe;stroke-width:352.79998779;stroke-linejoin:round;stroke-miterlimit:2.61313009"
   inkscape:connector-curvature="0"
   id="path472"
   d="m 23074.5,31530.8 c 1878.5,825.4 4139.9,414.7 5592.8,-1082.7 326.7,-335.9 864.1,-343.4 1200,-16.6 2312.4,2508 5706.7,2205.6 6968.5,-1014.4 145,-446.2 624.3,-690.2 1070.4,-545.3 1484.7,482.4 2570.2,857.5 3833.3,-355.7 1185.5,-1138.8 1162.1,-3046 -0.4,-4208.3 -883.4,-883.4 -2262.9,-1114.9 -3374.6,-589.8 -506.7,239.2 -1041,-65.2 -1190.1,-569.7 -476.5,-1596.5 -2215,-2456.6 -3730.4,-1990.8 -447.9,137.7 -903.5,-154.9 -988.7,-615.7 -515.7,-2790 -4385.5,-3566 -5714.5,-754.6 -244.4,517.9 -766,556.3 -1225.9,362.6 -1341.1,-563 -2873.4,-298.4 -3994.7,541.9 702.8,220.7 1357.6,602.3 1902.7,1132 542,-48.3 1052.2,-0.6 1709,234.8 3113.6,1112 4151.7,5070.8 2027.6,7590.8 -981.7,1167.5 -2422.6,1732.9 -3873.6,1670.6 -68.7,72.4 -139.3,142.6 -211.4,210.9 z"
   class="fil5 str0" /><path
   style="fill:#ebecec;fill-rule:nonzero;stroke:#fefefe;stroke-width:352.79998779;stroke-linejoin:round;stroke-miterlimit:2.61313009"
   inkscape:connector-curvature="0"
   id="path474"
   d="m 15382.4,22396.5 c -198.2,425.9 -704.3,610.5 -1130.2,412.2 -1313.1,-612 -2925.8,-334.3 -3448.6,1250.5 -210,638 -754.8,608.8 -1240.8,490.1 -1009.8,-248.9 -2092.2,491.5 -2144.7,1596.9 -22.3,469.3 146,946 505,1304.9 484.9,484.9 1197.4,630 1821.2,400.5 525.4,-192.6 979.5,145.2 1128.1,624.7 662.1,2129.5 3679.4,2787.9 5080.1,789.4 268,-383.7 796.5,-477.4 1180.1,-209.4 348.4,243.2 547.4,533.7 952.3,724.7 1257.5,593.1 2826.5,73.2 3441.2,-1249.6 l 1.3,-3 0.6,-1.3 1.9,-4.1 2,-4.4 5.6,-11.9 0.7,-1.7 c 192.8,-427.7 695.9,-618.2 1123.6,-425.5 746.6,337.1 1635.2,217.7 2155.4,-402.1 749.2,-887.1 408.1,-2334.2 -716,-2735.6 -675.8,-242.3 -1037.3,219.9 -1811.7,50.8 -458.3,-100.1 -642.2,-584 -928.6,-898.6 -496.1,-545.3 -1301.2,-713.3 -1969,-424 -429.6,187.3 -929.7,-9.2 -1117,-438.8 -329,-755.2 -432.9,-1335 -1335,-1530.1 -599.4,-129.5 -1253.4,42.3 -1557.5,695.4 z"
   class="fil6 str0" /><path
   style="fill:#000000;fill-rule:nonzero;stroke:#fefefe;stroke-width:352.79998779;stroke-linejoin:round;stroke-miterlimit:2.61313009"
   inkscape:connector-curvature="0"
   id="path476"
   d="m 30657.8,29777.6 c -224.1,-281.8 -177.2,-692.1 104.6,-916.1 281.9,-224.1 692.1,-177.2 916.2,104.6 1005,1258 2585.1,1303.4 3225.1,-414.3 125.3,-336.8 500.2,-508.2 837,-382.8 336.9,125.4 508.3,500.2 382.9,837.1 -977.3,2622.9 -3763.4,2902.4 -5465.8,771.5 z"
   class="fil7 str0" /><path
   style="fill:#000000;fill-rule:nonzero;stroke:#fefefe;stroke-width:352.79998779;stroke-linejoin:round;stroke-miterlimit:2.61313009"
   inkscape:connector-curvature="0"
   id="path478"
   d="m 28316.6,21052.2 c -188.2,301.6 -573.9,386.2 -861.5,188.9 -287.5,-197.3 -368.1,-601.9 -180,-903.5 1378.7,-2208.7 4232,-1523.2 4675.1,1041.7 60.5,353.7 -164,692 -501.3,755.4 -337.3,63.4 -659.8,-172 -720.2,-525.8 -246.9,-1429 -1637.3,-1797.8 -2412.1,-556.7 z"
   class="fil7 str0" /><path
   style="fill:#000000;fill-rule:nonzero;stroke:#fefefe;stroke-width:352.79998779;stroke-linejoin:round;stroke-miterlimit:2.61313009"
   inkscape:connector-curvature="0"
   id="path480"
   d="m 40050.8,25592.9 c -359.4,-28.2 -627.9,-342.4 -599.7,-701.8 28.2,-359.4 342.5,-627.9 701.8,-599.7 2778.2,218.6 2384.7,4287.8 -344.7,4346.3 -359.4,7 -656.5,-278.7 -663.5,-638.1 -7,-359.3 278.7,-656.4 638,-663.5 1153.7,-24.6 1357,-1657.5 268.1,-1743.2 z"
   class="fil7 str0" /><path
   style="fill:#000000;fill-rule:nonzero;stroke:#fefefe;stroke-width:352.79998779;stroke-linejoin:round;stroke-miterlimit:2.61313009"
   inkscape:connector-curvature="0"
   id="path482"
   d="m 11303.8,28201.2 c -167.7,-318.6 -45.4,-712.8 273.1,-880.5 318.5,-167.6 712.8,-45.4 880.5,273.1 458.7,869.6 1274.3,1352.6 2105.9,615.4 269.2,-238.2 680.5,-213 918.7,56.2 238.2,269.2 213,680.5 -56.2,918.7 -1468.3,1301.6 -3268.1,636 -4122,-982.9 z"
   class="fil7 str0" />
</svg>