<?xml version="1.0" encoding="UTF-8" standalone="no"?>
<!-- Creator: CorelDRAW 2019 (64-Bit) -->

<svg
   xmlns:dc="http://purl.org/dc/elements/1.1/"
   xmlns:cc="http://creativecommons.org/ns#"
   xmlns:rdf="http://www.w3.org/1999/02/22-rdf-syntax-ns#"
   xmlns:svg="http://www.w3.org/2000/svg"
   xmlns="http://www.w3.org/2000/svg"
   xmlns:sodipodi="http://sodipodi.sourceforge.net/DTD/sodipodi-0.dtd"
   xmlns:inkscape="http://www.inkscape.org/namespaces/inkscape"
   xml:space="preserve"
   width="50mm"
   height="50mm"
   version="1.1"
   style="shape-rendering:geometricPrecision; text-rendering:geometricPrecision; image-rendering:optimizeQuality; fill-rule:evenodd; clip-rule:evenodd"
   viewBox="0 0 50000 50000"
   id="svg529"
   sodipodi:docname="10n.svg"
   inkscape:version="0.92.5 (2060ec1f9f, 2020-04-08)"><metadata
   id="metadata533"><rdf:RDF><cc:Work
       rdf:about=""><dc:format>image/svg+xml</dc:format><dc:type
         rdf:resource="http://purl.org/dc/dcmitype/StillImage" /></cc:Work></rdf:RDF></metadata><sodipodi:namedview
   pagecolor="#ffffff"
   bordercolor="#666666"
   borderopacity="1"
   objecttolerance="10"
   gridtolerance="10"
   guidetolerance="10"
   inkscape:pageopacity="0"
   inkscape:pageshadow="2"
   inkscape:window-width="640"
   inkscape:window-height="480"
   id="namedview531"
   showgrid="false"
   inkscape:zoom="1.2488333"
   inkscape:cx="94.488189"
   inkscape:cy="94.488189"
   inkscape:window-x="0"
   inkscape:window-y="0"
   inkscape:window-maximized="0"
   inkscape:current-layer="svg529" />
 <defs
   id="defs496">
  <style
   type="text/css"
   id="style494">
   <![CDATA[
    .str0 {stroke:#FEFEFE;stroke-width:352.8;stroke-linejoin:round;stroke-miterlimit:2.61313}
    .fil1 {fill:#2B2A29}
    .fil2 {fill:#727271;fill-rule:nonzero}
    .fil3 {fill:#2B2A29;fill-rule:nonzero}
    .fil0 {fill:#00A0E3;fill-rule:nonzero}
   ]]>
  </style>
 
  
  
 
   
   
   
   
   
   
   
   
   
   
   
   
   
   
  </defs>
 <path
   class="fil0 str0"
   d="m 13338.2,29475.7 c -215.1,-417.2 -51.1,-929.9 366.1,-1144.9 417.3,-215.1 929.9,-51.2 1145,366.1 l 1545.5,2983.1 c 215,417.3 51.1,929.9 -366.1,1145 -417.3,215.1 -929.9,51.1 -1145,-366.1 z"
   id="path499"
   inkscape:connector-curvature="0"
   style="fill:#00a0e3;fill-rule:nonzero;stroke:#fefefe;stroke-width:352.79998779;stroke-linejoin:round;stroke-miterlimit:2.61313009" /><path
   class="fil0 str0"
   d="m 11658.2,34808.9 c -215,-417.3 -51.1,-930 366.2,-1145 417.2,-215.1 929.9,-51.2 1144.9,366.1 l 1545.5,2983.1 c 215.1,417.3 51.2,929.9 -366.1,1145 -417.3,215.1 -929.9,51.1 -1145,-366.1 z"
   id="path501"
   inkscape:connector-curvature="0"
   style="fill:#00a0e3;fill-rule:nonzero;stroke:#fefefe;stroke-width:352.79998779;stroke-linejoin:round;stroke-miterlimit:2.61313009" /><path
   class="fil0 str0"
   d="m 18846.5,34090 c -215,-417.3 -51.1,-929.9 366.1,-1145 417.3,-215.1 929.9,-51.2 1145,366.1 l 1545.5,2983.1 c 215.1,417.3 51.1,929.9 -366.1,1145 -417.3,215.1 -929.9,51.2 -1145,-366.1 z"
   id="path503"
   inkscape:connector-curvature="0"
   style="fill:#00a0e3;fill-rule:nonzero;stroke:#fefefe;stroke-width:352.79998779;stroke-linejoin:round;stroke-miterlimit:2.61313009" /><path
   class="fil0 str0"
   d="m 24136,31211.1 c -207.6,-420.9 -34.7,-930.7 386.2,-1138.3 420.9,-207.7 930.7,-34.8 1138.3,386.1 l 1359.1,2735.1 c 207.7,420.9 34.8,930.7 -386.2,1138.3 -420.9,207.7 -930.6,34.8 -1138.3,-386.1 z"
   id="path505"
   inkscape:connector-curvature="0"
   style="fill:#00a0e3;fill-rule:nonzero;stroke:#fefefe;stroke-width:352.79998779;stroke-linejoin:round;stroke-miterlimit:2.61313009" /><path
   class="fil0 str0"
   d="m 25969.1,39320.7 c -215.1,-417.3 -51.1,-929.9 366.1,-1145 417.3,-215.1 929.9,-51.2 1145,366.1 l 1545.5,2983.1 c 215,417.3 51.1,929.9 -366.1,1145 -417.3,215.1 -929.9,51.2 -1145,-366.1 z"
   id="path507"
   inkscape:connector-curvature="0"
   style="fill:#00a0e3;fill-rule:nonzero;stroke:#fefefe;stroke-width:352.79998779;stroke-linejoin:round;stroke-miterlimit:2.61313009" /><path
   class="fil0 str0"
   d="m 17237.8,39381.6 c -215.1,-417.3 -51.1,-929.9 366.1,-1145 417.3,-215 929.9,-51.1 1145,366.1 l 1545.5,2983.2 c 215,417.2 51.1,929.9 -366.2,1144.9 -417.2,215.1 -929.9,51.2 -1144.9,-366.1 z"
   id="path509"
   inkscape:connector-curvature="0"
   style="fill:#00a0e3;fill-rule:nonzero;stroke:#fefefe;stroke-width:352.79998779;stroke-linejoin:round;stroke-miterlimit:2.61313009" /><path
   class="fil0 str0"
   d="m 31518.1,29475.7 c -215,-417.2 -51.1,-929.9 366.1,-1144.9 417.3,-215.1 930,-51.2 1145,366.1 l 1545.5,2983.1 c 215.1,417.3 51.1,929.9 -366.1,1145 -417.3,215.1 -929.9,51.1 -1145,-366.1 z"
   id="path511"
   inkscape:connector-curvature="0"
   style="fill:#00a0e3;fill-rule:nonzero;stroke:#fefefe;stroke-width:352.79998779;stroke-linejoin:round;stroke-miterlimit:2.61313009" /><path
   class="fil0 str0"
   d="m 29838.2,34808.9 c -215.1,-417.3 -51.2,-930 366.1,-1145 417.2,-215.1 929.9,-51.2 1144.9,366.1 l 1545.5,2983.1 c 215.1,417.3 51.2,929.9 -366.1,1145 -417.2,215.1 -929.9,51.1 -1145,-366.1 z"
   id="path513"
   inkscape:connector-curvature="0"
   style="fill:#00a0e3;fill-rule:nonzero;stroke:#fefefe;stroke-width:352.79998779;stroke-linejoin:round;stroke-miterlimit:2.61313009" /><path
   class="fil0 str0"
   d="m 37026.4,34090 c -215,-417.3 -51.1,-929.9 366.2,-1145 417.2,-215.1 929.9,-51.2 1144.9,366.1 l 1545.5,2983.1 c 215.1,417.3 51.2,929.9 -366.1,1145 -417.3,215.1 -929.9,51.2 -1145,-366.1 z"
   id="path515"
   inkscape:connector-curvature="0"
   style="fill:#00a0e3;fill-rule:nonzero;stroke:#fefefe;stroke-width:352.79998779;stroke-linejoin:round;stroke-miterlimit:2.61313009" /><path
   class="fil0 str0"
   d="m 35537.1,39611.2 c -215,-417.2 -51.1,-929.9 366.1,-1145 417.3,-215 929.9,-51.1 1145,366.2 l 1545.5,2983.1 c 215.1,417.3 51.1,929.9 -366.1,1145 -417.3,215 -929.9,51.1 -1145,-366.1 z"
   id="path517"
   inkscape:connector-curvature="0"
   style="fill:#00a0e3;fill-rule:nonzero;stroke:#fefefe;stroke-width:352.79998779;stroke-linejoin:round;stroke-miterlimit:2.61313009" /><path
   class="fil1 str0"
   d="m 25100.4,9228.4 c 3492.3,-1571.1 7557.4,-428.4 9815.3,2326.1 2351.5,-744.1 4999.9,-153.2 6800,1647 2624.7,2624.2 2624.9,6881.9 0.7,9506.6 -1469.3,1469.6 -3536,2147.4 -5539.4,1919.6 -1684.7,2682.7 -5051.3,3983.7 -8119.7,3071.3 -453.8,379.7 -950.3,708.3 -1481.6,979.1 -3121.1,1591.6 -6929.3,889.9 -9300.8,-1597.4 -1709.4,-211.2 -3297.1,-1088.1 -4390.2,-2412.4 -1768.1,75.5 -3539.3,-583.1 -4819.3,-1863 -2496.3,-2495.7 -2496.6,-6544.7 -0.8,-9040.8 1080.3,-1080.6 2514.9,-1727 4008.7,-1851.3 1350.9,-3015.8 4413.8,-4968.3 7859.4,-4839.7 1952.7,74.8 3767.6,860.9 5167.7,2154.9 z"
   id="path519"
   inkscape:connector-curvature="0"
   style="fill:#000000;stroke:#fefefe;stroke-width:352.79998779;stroke-linejoin:round;stroke-miterlimit:2.61313009" /><path
   class="fil2 str0"
   d="m 25075.7,17833.1 c -509.1,-154.3 -682.2,-664.2 -546.6,-1125.3 921,-3113.5 -1437.2,-6449 -4713,-6574.7 -2601.6,-97 -4856.7,1648.1 -5324.6,4256.5 -112.5,627.8 -678.3,751.9 -1178.5,641.3 -1100.6,-246.3 -2285.5,100.7 -3083.1,898.5 -1300.8,1300.9 -1300.8,3409.8 0.3,4710.6 894.5,894.4 2270.8,1203.9 3451.3,793.3 519.1,-180.9 904.6,140.1 1104.4,563.7 630.8,1332 2044.2,2158 3507.3,2064.2 371.6,-23.2 615.8,181 812.6,447.7 1413.9,1917 4012.9,2495 6079.1,1441.4 656.2,-334.5 1224.6,-811.6 1669.2,-1401 272.9,-361.5 778.8,-443.6 1150.8,-195.3 2305.6,1390.5 5454,128.3 6082.5,-2569.5 106.6,-457.7 564.1,-742.4 1021.8,-635.8 90.2,21 169.2,58.8 250.7,98.6 1385.1,677.2 3095.3,392 4191.2,-704.1 1429.3,-1429.5 1429.2,-3747.1 -0.3,-5176.5 -1202.6,-1202.6 -3070.5,-1382.9 -4466.5,-554.9 123.9,485.2 194.5,992.1 204.9,1514 9.3,495.3 -258.7,985.4 -847.4,985.4 -511.5,0 -846.5,-415 -848.9,-889 -28.4,-3854.4 -4500.8,-6120.6 -7809.1,-4098.7 717.2,1511.9 848.9,3269.4 374.2,4868.8 -138.1,468.8 -574.1,794.9 -1082.3,640.8 z"
   id="path521"
   inkscape:connector-curvature="0"
   style="fill:#727271;fill-rule:nonzero;stroke:#fefefe;stroke-width:352.79998779;stroke-linejoin:round;stroke-miterlimit:2.61313009" /><path
   class="fil3 str0"
   d="m 17059.5,14695.2 c -107.1,343.9 -472.8,535.9 -816.7,428.8 -343.8,-107.1 -535.8,-472.8 -428.7,-816.6 896.6,-2877.8 3703.8,-3803.7 6307.5,-2496.2 321.3,160.7 451.6,551.5 290.9,872.8 -160.6,321.4 -551.4,451.6 -872.8,291 -1892,-950 -3821.9,-393 -4480.2,1720.2 z"
   id="path523"
   inkscape:connector-curvature="0"
   style="fill:#000000;fill-rule:nonzero;stroke:#fefefe;stroke-width:352.79998779;stroke-linejoin:round;stroke-miterlimit:2.61313009" /><path
   class="fil3 str0"
   d="m 19921.7,23665.3 c -193.1,-302.9 -104,-705.2 199,-898.3 303,-193.1 705.2,-103.9 898.3,199 900.4,1414.9 2944.1,1415.8 4044.7,236.3 245.3,-263.5 657.8,-278.4 921.3,-33.1 263.5,245.2 278.4,657.7 33.1,921.3 -1674.2,1794.2 -4745.4,1697.5 -6096.4,-425.2 z"
   id="path525"
   inkscape:connector-curvature="0"
   style="fill:#000000;fill-rule:nonzero;stroke:#fefefe;stroke-width:352.79998779;stroke-linejoin:round;stroke-miterlimit:2.61313009" />
</svg>