<?xml version="1.0" encoding="UTF-8" standalone="no"?>
<!-- Creator: CorelDRAW 2019 (64-Bit) -->

<svg
   xmlns:dc="http://purl.org/dc/elements/1.1/"
   xmlns:cc="http://creativecommons.org/ns#"
   xmlns:rdf="http://www.w3.org/1999/02/22-rdf-syntax-ns#"
   xmlns:svg="http://www.w3.org/2000/svg"
   xmlns="http://www.w3.org/2000/svg"
   xmlns:sodipodi="http://sodipodi.sourceforge.net/DTD/sodipodi-0.dtd"
   xmlns:inkscape="http://www.inkscape.org/namespaces/inkscape"
   xml:space="preserve"
   width="50mm"
   height="50mm"
   version="1.1"
   style="shape-rendering:geometricPrecision; text-rendering:geometricPrecision; image-rendering:optimizeQuality; fill-rule:evenodd; clip-rule:evenodd"
   viewBox="0 0 50000 50000"
   id="svg554"
   sodipodi:docname="11d.svg"
   inkscape:version="0.92.5 (2060ec1f9f, 2020-04-08)"><metadata
   id="metadata558"><rdf:RDF><cc:Work
       rdf:about=""><dc:format>image/svg+xml</dc:format><dc:type
         rdf:resource="http://purl.org/dc/dcmitype/StillImage" /></cc:Work></rdf:RDF></metadata><sodipodi:namedview
   pagecolor="#ffffff"
   bordercolor="#666666"
   borderopacity="1"
   objecttolerance="10"
   gridtolerance="10"
   guidetolerance="10"
   inkscape:pageopacity="0"
   inkscape:pageshadow="2"
   inkscape:window-width="640"
   inkscape:window-height="480"
   id="namedview556"
   showgrid="false"
   inkscape:zoom="1.2488333"
   inkscape:cx="94.488189"
   inkscape:cy="94.488189"
   inkscape:window-x="0"
   inkscape:window-y="0"
   inkscape:window-maximized="0"
   inkscape:current-layer="svg554" />
 <defs
   id="defs537">
  <style
   type="text/css"
   id="style535">
   <![CDATA[
    .str0 {stroke:#FEFEFE;stroke-width:352.8;stroke-linejoin:round;stroke-miterlimit:2.61313}
    .fil0 {fill:#2B2A29}
    .fil1 {fill:#B2B3B3;fill-rule:nonzero}
    .fil3 {fill:#727271;fill-rule:nonzero}
    .fil2 {fill:#FFED00;fill-rule:nonzero}
   ]]>
  </style>
 
  
  
 
   
  
    
    
    
    
    
   </defs>
 <path
   style="fill:#000000;stroke:#fefefe;stroke-width:352.79998779;stroke-linejoin:round;stroke-miterlimit:2.61313009"
   inkscape:connector-curvature="0"
   id="path540"
   d="m 43233.9,25928.8 c -1419.8,1420 -3423,1988.3 -5308.6,1611.5 -201.8,215.3 -418.7,415.2 -649.2,597.9 l 837.6,2496.4 c 194,578.9 -280.3,1151.1 -866.5,1120.8 l -1130.1,-38.7 994.9,2697 c 206.8,562.2 -224.8,1130.1 -797.3,1147.7 l -1392,78.9 1149.8,6637.3 c 172.2,1001.1 -1209.6,1377 -1628.6,473.5 L 29632,33335 c -301.7,-590.5 138.7,-1158.6 728.6,-1242.7 l 1799.7,-238.2 -1568.3,-2778 c -140.1,-248.5 -137.9,-511 -41.1,-732.7 -189.6,-129.9 -372.8,-270.3 -548.6,-420.7 -2296.2,742.3 -4878.2,-18.4 -6404.2,-1887.2 -1121,142.1 -2223.3,-83.3 -3182.8,-578.7 -272.9,186.9 -554.6,351.5 -842.8,495.5 l 1121,4083.3 c 174.1,636.6 -376.9,1115.9 -974.6,1065 l -1309.5,-148.5 1278.2,4304.2 c 246.6,834.7 -571,1159.2 -1207.1,1034.2 l -1472.8,-289.1 716,6726.7 c 100.9,948.5 -1169.2,1287.6 -1606,481.4 L 10136.8,32684.6 c -319.9,-563.3 103.7,-1255.1 725.8,-1272.7 l 3255.5,-129.1 -2024.9,-3586.4 c -349.5,-619.9 158.5,-1236.5 778.6,-1274.1 l 1140.3,-68.4 c -1860.6,-586.5 -3500.4,-1877 -4416.4,-3728.4 -1065,-264.1 -2059.7,-813.3 -2837.2,-1590.7 -3581.9,-3581.1 -1374.1,-9604.4 3437.2,-10242.9 642.3,-1485.4 1739.6,-2726.3 3257.1,-3513.2 1962.8,-1017.8 4347.9,-1089.9 6368.4,-191.3 442.7,196.8 853.1,431.8 1229.4,700.3 2574.3,-1607.6 5953.8,-1433.3 8329.1,501.6 1494.3,-16 2963,432.5 4186.4,1282.1 246.3,-36 496.7,-58.9 806.3,-46.8 1822.6,73.8 3490.2,1032.2 4470.3,2566 l 807.1,1262.9 c 4361.4,2386.5 7214.4,8945 3584.1,12575.3 z"
   class="fil0 str0" /><path
   style="fill:#b2b3b3;fill-rule:nonzero;stroke:#fefefe;stroke-width:352.79998779;stroke-linejoin:round;stroke-miterlimit:2.61313009"
   inkscape:connector-curvature="0"
   id="path542"
   d="m 34173.5,26281 c 858,-145.5 1680.9,-754.9 2099,-1724.9 235.8,-626.4 888.6,-643.9 1375.8,-355.6 1099.1,651.4 2505.4,478.4 3420.4,-436.7 834.1,-834.1 1007.8,-2010.7 638.5,-2996.7 l -202.2,486.5 c -432.4,1044.4 -2037.8,345.2 -1541.4,-724 483.3,-1024.5 446.3,-2210.6 -90.9,-3209.9 -1216.9,-2263.9 -4273.4,-2482.5 -5877.4,-649.4 412.2,929.5 549.9,1996.7 367.8,3016.4 -197,1103.4 -1879.8,802.9 -1682.7,-300.4 485.8,-2719.6 -2254.5,-4947.5 -4817.4,-3886.8 -1274.5,527.4 -2127.3,1738.4 -2192.3,3093.7 -56,1196 -1723.7,1396.2 -1706.2,93.9 1.8,-129.4 8.5,-257.5 19.4,-384.4 -1401.7,-685.3 -3227.7,268.1 -3528.2,1785.7 -341.1,1867.4 1764,3760 3743.1,2551.2 494.4,-301.6 1133.3,-20.4 1272.2,520.2 613.6,1989.4 3021.2,2569.5 4502.6,1344.2 363.3,-300.5 901.5,-249.7 1202,113.5 744.2,1249.3 1913,1833.8 2997.9,1663.5 z"
   class="fil1 str0" /><path
   style="fill:#ffed00;fill-rule:nonzero;stroke:#fefefe;stroke-width:352.79998779;stroke-linejoin:round;stroke-miterlimit:2.61313009"
   inkscape:connector-curvature="0"
   id="path544"
   d="m 18717.7,29269.7 -1106.2,-4029.1 c -440.9,99.5 -806.6,149.3 -1278.3,156.7 l 573.5,1101.4 c 438.3,514.5 100,1362.9 -599.1,1404.5 l -2061.8,145.5 1622.4,3671.3 c 327.6,540.1 -10.1,1288.6 -681.7,1315.1 l -2875.9,24.7 3283.7,5778.6 c -59.1,-555 -452.3,-3769.2 -395.3,-4061.4 90.3,-462.8 538.9,-764.8 1001.7,-674.5 l 1450,284.7 -1234.2,-4155.7 c -181.6,-572.8 277.6,-1190.4 902.1,-1120.6 z"
   class="fil2 str0" /><path
   style="fill:#ffed00;fill-rule:nonzero;stroke:#fefefe;stroke-width:352.79998779;stroke-linejoin:round;stroke-miterlimit:2.61313009"
   inkscape:connector-curvature="0"
   id="path546"
   d="m 36107.2,30011.8 -769.1,-2292.4 -626.7,127 c 536.8,631.9 193.8,1437.2 -534.6,1480.5 l -1432.2,101.6 1173.9,2686.6 c 310.8,515.1 22.2,1222.6 -606.7,1305.2 l -1615.3,213.8 2022.5,4378.7 -620.2,-2900 c -91.1,-527.2 153.5,-1086.4 772.9,-1120.9 l 1239.4,-70.3 -993.9,-2693.9 c -209.4,-568.3 71.9,-1280.4 786.8,-1257 z"
   class="fil2 str0" /><path
   style="fill:#727271;fill-rule:nonzero;stroke:#fefefe;stroke-width:352.79998779;stroke-linejoin:round;stroke-miterlimit:2.61313009"
   inkscape:connector-curvature="0"
   id="path548"
   d="m 12619.3,13534.6 c -99.6,983.7 -1453.6,1372.4 -1694.7,265.9 -2535.4,83.9 -3868.3,3202.3 -2001.2,5069 589.8,589.7 1442.8,903.5 2234.3,869.7 420.8,-18.1 783.4,272.3 869.5,670.4 812.3,3273.4 4929.4,4250.2 7195.1,2084.6 -1847.4,-3429.2 1657.9,-7262.4 5193.5,-5869.2 1624,-3419 6074.3,-4162.7 8658.5,-1453.3 865.6,-823.3 1992.1,-1331.5 3188.3,-1432.3 -427.9,-669.7 -1166.1,-1121 -2013.2,-1155.3 -650.8,-25.6 -1382.9,434 -1951.8,-107.8 -881.4,-840.1 -2095.5,-1231.7 -3291,-1100.9 -425.3,46.5 -749.8,127.3 -1073.7,-241.9 -1562.6,-1781.8 -4330.9,-1823.9 -5988.2,-169.7 383.6,752 609.5,1599.1 633.1,2497.2 31.5,1205.8 -1677,1371.5 -1701.5,74.5 -105,-5214.1 -7705.6,-5487.9 -8257,-0.9 z"
   class="fil3 str0" />
</svg>