<?xml version="1.0" encoding="UTF-8" standalone="no"?>
<!-- Creator: CorelDRAW 2019 (64-Bit) -->

<svg
   xmlns:dc="http://purl.org/dc/elements/1.1/"
   xmlns:cc="http://creativecommons.org/ns#"
   xmlns:rdf="http://www.w3.org/1999/02/22-rdf-syntax-ns#"
   xmlns:svg="http://www.w3.org/2000/svg"
   xmlns="http://www.w3.org/2000/svg"
   xmlns:sodipodi="http://sodipodi.sourceforge.net/DTD/sodipodi-0.dtd"
   xmlns:inkscape="http://www.inkscape.org/namespaces/inkscape"
   xml:space="preserve"
   width="50mm"
   height="50mm"
   version="1.1"
   style="shape-rendering:geometricPrecision; text-rendering:geometricPrecision; image-rendering:optimizeQuality; fill-rule:evenodd; clip-rule:evenodd"
   viewBox="0 0 50000 50000"
   id="svg645"
   sodipodi:docname="13n.svg"
   inkscape:version="0.92.5 (2060ec1f9f, 2020-04-08)"><metadata
   id="metadata649"><rdf:RDF><cc:Work
       rdf:about=""><dc:format>image/svg+xml</dc:format><dc:type
         rdf:resource="http://purl.org/dc/dcmitype/StillImage" /></cc:Work></rdf:RDF></metadata><sodipodi:namedview
   pagecolor="#ffffff"
   bordercolor="#666666"
   borderopacity="1"
   objecttolerance="10"
   gridtolerance="10"
   guidetolerance="10"
   inkscape:pageopacity="0"
   inkscape:pageshadow="2"
   inkscape:window-width="640"
   inkscape:window-height="480"
   id="namedview647"
   showgrid="false"
   inkscape:zoom="1.2488333"
   inkscape:cx="94.488189"
   inkscape:cy="94.488189"
   inkscape:window-x="0"
   inkscape:window-y="0"
   inkscape:window-maximized="0"
   inkscape:current-layer="svg645" />
 <defs
   id="defs620">
  <style
   type="text/css"
   id="style618">
   <![CDATA[
    .str0 {stroke:#FEFEFE;stroke-width:352.8;stroke-linejoin:round;stroke-miterlimit:2.61313}
    .fil1 {fill:#5B5B5B;fill-rule:nonzero}
    .fil0 {fill:#2B2A29;fill-rule:nonzero}
   ]]>
  </style>
 
  
  
 
   
   
   
   
   
   
   
   
   
   
  </defs>
 <path
   class="fil0 str0"
   d="m 19713.8,28239.7 c -3319.5,2966.2 -8426.4,2816.6 -11580.6,-337.8 -2413.1,-2413.3 -3122.4,-6142 -1803.3,-9256.4 934.1,-2205.2 2777.7,-3931.6 5059.2,-4708.8 240.3,-2117.7 1198.1,-4014.3 2623.4,-5439.6 2166.6,-2166.6 5201.6,-3049.3 8074,-2546.9 2071.8,362.2 3969.8,1442.9 5348.1,3030.1 4271.5,151.3 8146.5,2798.9 9803.9,6817.5 1863.2,128.1 3536.4,933.3 4773.5,2170.4 2920,2920.1 2920,7675.2 -0.3,10595.2 -2499.4,2499.3 -6522.9,2875 -9416.2,958.5 -3151,1853.8 -7113.8,1992.2 -10400.1,381.7 -898.9,-440.6 -1732.7,-997.8 -2481.6,-1663.9 z"
   id="path623"
   inkscape:connector-curvature="0"
   style="fill:#000000;fill-rule:nonzero;stroke:#fefefe;stroke-width:352.79998779;stroke-linejoin:round;stroke-miterlimit:2.61313009" /><path
   class="fil0 str0"
   d="m 17673.4,35733.9 c 328.3,0 594.5,266.2 594.5,594.5 0,328.3 -266.2,594.5 -594.5,594.5 h -1660.3 l 829.3,1436.3 c 164.2,283.4 67.5,646.3 -215.9,810.4 -283.5,164.2 -646.3,67.5 -810.4,-215.9 l -831,-1439.3 -831,1439.3 c -164.1,283.4 -527,380.1 -810.4,215.9 -283.4,-164.1 -380.1,-527 -215.9,-810.4 l 829.3,-1436.3 h -1660.2 c -328.3,0 -594.5,-266.2 -594.5,-594.5 0,-328.3 266.2,-594.5 594.5,-594.5 h 1660.2 l -829.4,-1436.4 c -164.1,-283.4 -67.4,-646.3 215.9,-810.4 283.5,-164.2 646.3,-67.5 810.5,215.9 l 831,1439.3 831,-1439.3 c 164.1,-283.4 526.9,-380.1 810.4,-215.9 283.4,164.1 380.1,527 215.9,810.4 l -829.3,1436.4 z"
   id="path625"
   inkscape:connector-curvature="0"
   style="fill:#000000;fill-rule:nonzero;stroke:#fefefe;stroke-width:352.79998779;stroke-linejoin:round;stroke-miterlimit:2.61313009" /><path
   class="fil0 str0"
   d="m 29054.4,38999.4 c 495.9,0 898,402 898,897.9 0,495.9 -402.1,897.9 -898,897.9 h -2507.9 l 1252.7,2169.7 c 248,428.1 102,976.2 -326.1,1224.1 -428.1,247.9 -976.2,101.9 -1224.1,-326.2 l -1255.2,-2174 -1255.2,2174 c -247.9,428.1 -796,574.1 -1224.1,326.2 -428.1,-247.9 -574.1,-796 -326.1,-1224.1 L 23441,40795.2 h -2507.7 c -495.9,0 -897.9,-402 -897.9,-897.9 0,-495.9 402,-897.9 897.9,-897.9 H 23441 l -1252.7,-2169.7 c -248,-428 -101.9,-976.2 326.2,-1224.1 428,-247.9 976.1,-101.9 1224.1,326.2 l 1255.2,2174 1255.2,-2174 c 247.9,-428.1 796,-574.1 1224.1,-326.2 428.1,247.9 574.1,796.1 326.1,1224.1 l -1252.7,2169.7 z"
   id="path627"
   inkscape:connector-curvature="0"
   style="fill:#000000;fill-rule:nonzero;stroke:#fefefe;stroke-width:352.79998779;stroke-linejoin:round;stroke-miterlimit:2.61313009" /><path
   class="fil0 str0"
   d="m 38082.1,34860.1 c 377.5,0 683.5,306 683.5,683.5 0,377.5 -306,683.5 -683.5,683.5 h -1908.8 l 953.4,1651.4 c 188.8,325.9 77.6,743 -248.2,931.8 -325.9,188.7 -743,77.6 -931.8,-248.3 l -955.4,-1654.7 -955.4,1654.7 c -188.7,325.9 -605.9,437 -931.7,248.3 -325.9,-188.8 -437,-605.9 -248.3,-931.8 l 953.5,-1651.4 h -1908.8 c -377.4,0 -683.4,-306 -683.4,-683.5 0,-377.5 306,-683.5 683.4,-683.5 h 1908.8 l -953.5,-1651.5 c -188.8,-325.8 -77.6,-743 248.2,-931.8 325.9,-188.7 743.1,-77.6 931.8,248.3 l 955.4,1654.8 955.4,-1654.8 c 188.8,-325.9 605.9,-437 931.8,-248.3 325.8,188.8 437,606 248.2,931.8 l -953.5,1651.5 z"
   id="path629"
   inkscape:connector-curvature="0"
   style="fill:#000000;fill-rule:nonzero;stroke:#fefefe;stroke-width:352.79998779;stroke-linejoin:round;stroke-miterlimit:2.61313009" /><path
   class="fil1 str0"
   d="m 18685.2,24667.1 c 684.6,-550.5 1685.9,-441.7 2236.4,242.9 718.6,893.4 1639.3,1635.6 2669.3,2140.4 2594,1271.3 5742.5,976.6 8056.9,-707.2 648.2,-471.9 1499.4,-521.3 2119.6,62.2 1649,1549.3 4336.3,1555.6 5989.1,-97.1 1681.9,-1681.7 1682,-4403.1 0.3,-6084.9 -762.3,-762.3 -1803.4,-1241.6 -2951.2,-1265.8 -1443.8,-29.4 -1902.7,-255.8 -2376.1,-1590 -1106,-3115.1 -4067.4,-5191.6 -7327,-5217.1 -638,-5 -1259.9,-7.5 -1724.3,-652.7 -458.9,-639.2 -1035.5,-1182.6 -1695.7,-1596.4 -119.3,-74.7 -251.2,-150.1 -395.8,-226 -2292.5,-1203.5 -5158.1,-784.1 -7019,1076.9 -1086.1,1086.1 -1758.8,2580.9 -1760.9,4227.4 -0.2,-3.8 -0.2,-2.1 -0.2,7.6 l 0.5,0.4 5.9,-0.4 c 0,93.8 -0.6,121.4 -1.5,117.6 40,794.3 -519.5,1510.9 -1322.9,1647.9 -1776.7,309.8 -3246.8,1511.5 -3930.7,3126.1 -822.2,1941.1 -390.8,4246.5 1130.5,5767.8 1919.8,1920 4979.3,2059 7059.3,340.6 473.6,-391.2 774.6,-947.9 1237.5,-1320.2 z"
   id="path631"
   inkscape:connector-curvature="0"
   style="fill:#5b5b5b;fill-rule:nonzero;stroke:#fefefe;stroke-width:352.79998779;stroke-linejoin:round;stroke-miterlimit:2.61313009" /><polygon
   class="fil0 str0"
   points="14507,14987.3 14506.8,14979.7 "
   id="polygon633"
   style="fill:#2b2a29;fill-rule:nonzero;stroke:#fefefe;stroke-width:352.79998779;stroke-linejoin:round;stroke-miterlimit:2.61313009" /><path
   class="fil0 str0"
   d="m 14507.2,15042.8 c 1.1,12 2.1,24 2.8,36 -1.1,-28.2 -2.2,-71.7 -2.9,-91.1 z"
   id="path635"
   inkscape:connector-curvature="0"
   style="fill:#2b2a29;fill-rule:nonzero;stroke:#fefefe;stroke-width:352.79998779;stroke-linejoin:round;stroke-miterlimit:2.61313009" /><path
   class="fil0 str0"
   d="m 17400.6,14957.2 c -16.1,375.9 -334.1,667.6 -710.1,651.4 -376,-16.2 -667.6,-334.2 -651.5,-710.1 58.7,-1273.3 548.5,-2291.7 1285.4,-3035.9 991.4,-1001.1 2425.9,-1480 3819.6,-1415.8 1236.3,57 2472.4,534.4 3407.8,1460.8 266.9,265.4 268.1,697 2.7,963.9 -265.4,266.8 -697,268 -963.9,2.6 -681.7,-675.2 -1591,-1023.6 -2505.3,-1065.8 -1016.4,-46.8 -2068.9,282.9 -2794.5,1015.5 -509.4,514.4 -848.5,1229 -890.2,2133.4 z"
   id="path637"
   inkscape:connector-curvature="0"
   style="fill:#000000;fill-rule:nonzero;stroke:#fefefe;stroke-width:352.79998779;stroke-linejoin:round;stroke-miterlimit:2.61313009" /><path
   class="fil0 str0"
   d="m 27193.7,13425.7 c 824.4,68.7 1645,247.7 2410.2,565.8 1970.2,819.2 3359.4,2451.8 3694.4,4891.8 50.1,373.1 -211.6,716.2 -584.7,766.3 -373,50.1 -716.1,-211.7 -766.2,-584.7 -261.7,-1906 -1339.5,-3178.3 -2866.8,-3813.3 -631.5,-262.6 -1307,-406.9 -1987.2,-464.2 -967.7,-80 -858.9,-1440.1 100.3,-1361.7 z"
   id="path639"
   inkscape:connector-curvature="0"
   style="fill:#000000;fill-rule:nonzero;stroke:#fefefe;stroke-width:352.79998779;stroke-linejoin:round;stroke-miterlimit:2.61313009" /><path
   class="fil0 str0"
   d="m 13605.5,19177.2 c -704.7,213.1 -1265.7,680.8 -1607.7,1273.2 -769.3,1332.6 -308.7,3047.1 1023.2,3816.1 612.5,353.7 1359.8,475.5 2098.6,283 926.7,-240 1240.5,1110.9 249.5,1344.5 -1067.9,252 -2143.6,65.3 -3031.6,-447.5 -1984.6,-1145.7 -2665.1,-3690.2 -1519.8,-5674.2 518.7,-898.5 1369.4,-1603.9 2435.1,-1914.4 958.9,-278.8 1331.7,1024.2 352.7,1319.3 z"
   id="path641"
   inkscape:connector-curvature="0"
   style="fill:#000000;fill-rule:nonzero;stroke:#fefefe;stroke-width:352.79998779;stroke-linejoin:round;stroke-miterlimit:2.61313009" />
</svg>