<?xml version="1.0" encoding="UTF-8" standalone="no"?>
<!-- Creator: CorelDRAW 2019 (64-Bit) -->

<svg
   xmlns:dc="http://purl.org/dc/elements/1.1/"
   xmlns:cc="http://creativecommons.org/ns#"
   xmlns:rdf="http://www.w3.org/1999/02/22-rdf-syntax-ns#"
   xmlns:svg="http://www.w3.org/2000/svg"
   xmlns="http://www.w3.org/2000/svg"
   xmlns:sodipodi="http://sodipodi.sourceforge.net/DTD/sodipodi-0.dtd"
   xmlns:inkscape="http://www.inkscape.org/namespaces/inkscape"
   xml:space="preserve"
   width="50mm"
   height="50mm"
   version="1.1"
   style="shape-rendering:geometricPrecision; text-rendering:geometricPrecision; image-rendering:optimizeQuality; fill-rule:evenodd; clip-rule:evenodd"
   viewBox="0 0 50000 50000"
   id="svg670"
   sodipodi:docname="50d.svg"
   inkscape:version="0.92.5 (2060ec1f9f, 2020-04-08)"><metadata
   id="metadata674"><rdf:RDF><cc:Work
       rdf:about=""><dc:format>image/svg+xml</dc:format><dc:type
         rdf:resource="http://purl.org/dc/dcmitype/StillImage" /></cc:Work></rdf:RDF></metadata><sodipodi:namedview
   pagecolor="#ffffff"
   bordercolor="#666666"
   borderopacity="1"
   objecttolerance="10"
   gridtolerance="10"
   guidetolerance="10"
   inkscape:pageopacity="0"
   inkscape:pageshadow="2"
   inkscape:window-width="640"
   inkscape:window-height="480"
   id="namedview672"
   showgrid="false"
   inkscape:zoom="1.2488333"
   inkscape:cx="94.488189"
   inkscape:cy="94.488189"
   inkscape:window-x="0"
   inkscape:window-y="0"
   inkscape:window-maximized="0"
   inkscape:current-layer="svg670" />
 <defs
   id="defs653">
  <style
   type="text/css"
   id="style651">
   <![CDATA[
    .str0 {stroke:#FEFEFE;stroke-width:352.8;stroke-linejoin:round;stroke-miterlimit:2.61313}
    .fil0 {fill:#2B2A29;fill-rule:nonzero}
   ]]>
  </style>
 </defs>
 <g
   id="Warstwa_x0020_1"
   style="fill:#000000">
  <metadata
   id="CorelCorpID_0Corel-Layer" />
  <g
   id="_1810391476400"
   style="fill:#000000">
   <path
   class="fil0 str0"
   d="M12808.9 32442.5c-646.9,0 -1171.4,-524.5 -1171.4,-1171.4 0,-647.1 524.5,-1171.6 1171.4,-1171.6l21872.5 0c646.9,0 1171.6,524.5 1171.6,1171.6 0,646.9 -524.7,1171.4 -1171.6,1171.4l-21872.5 0z"
   id="path656"
   style="fill:#000000" />
   <path
   class="fil0 str0"
   d="M18468.9 36176.3c-422.7,0 -765.5,-342.7 -765.5,-765.5 0,-422.7 342.8,-765.4 765.5,-765.4l9415.8 0c422.7,0 765.5,342.7 765.5,765.4 0,422.8 -342.8,765.5 -765.5,765.5l-9415.8 0z"
   id="path658"
   style="fill:#000000" />
   <path
   class="fil0 str0"
   d="M8841.8 27896.7c-498.5,0 -902.7,-342.7 -902.7,-765.4 0,-422.8 404.2,-765.5 902.7,-765.5l16855 0c498.5,0 902.8,342.7 902.8,765.5 0,422.7 -404.3,765.4 -902.8,765.4l-16855 0z"
   id="path660"
   style="fill:#000000" />
   <path
   class="fil0 str0"
   d="M12101.6 24277.5c-837.7,0 -1516.8,-575.8 -1516.8,-1286 0,-710.4 679.1,-1286.2 1516.8,-1286.2l28319.7 0c837.6,0 1516.9,575.8 1516.9,1286.2 0,710.2 -679.3,1286 -1516.9,1286l-28319.7 0z"
   id="path662"
   style="fill:#000000" />
   <path
   class="fil0 str0"
   d="M13021.6 20494c-907,0 -1642.6,-735.3 -1642.6,-1642.6 0,-907 735.6,-1642.3 1642.6,-1642.3l20203.7 0c907,0 1642.6,735.3 1642.6,1642.3 0,907.3 -735.6,1642.6 -1642.6,1642.6l-20203.7 0z"
   id="path664"
   style="fill:#000000" />
   <path
   class="fil0 str0"
   d="M22678.4 15477.2c-422.7,0 -765.5,-342.7 -765.5,-765.5 0,-422.7 342.8,-765.4 765.5,-765.4l9415.8 0c422.7,0 765.5,342.7 765.5,765.4 0,422.8 -342.8,765.5 -765.5,765.5l-9415.8 0z"
   id="path666"
   style="fill:#000000" />
  </g>
 </g>
</svg>