<?xml version="1.0" encoding="UTF-8" standalone="no"?>
<!-- Creator: CorelDRAW 2019 (64-Bit) -->

<svg
   xmlns:dc="http://purl.org/dc/elements/1.1/"
   xmlns:cc="http://creativecommons.org/ns#"
   xmlns:rdf="http://www.w3.org/1999/02/22-rdf-syntax-ns#"
   xmlns:svg="http://www.w3.org/2000/svg"
   xmlns="http://www.w3.org/2000/svg"
   xmlns:sodipodi="http://sodipodi.sourceforge.net/DTD/sodipodi-0.dtd"
   xmlns:inkscape="http://www.inkscape.org/namespaces/inkscape"
   xml:space="preserve"
   width="50mm"
   height="50mm"
   version="1.1"
   style="shape-rendering:geometricPrecision; text-rendering:geometricPrecision; image-rendering:optimizeQuality; fill-rule:evenodd; clip-rule:evenodd"
   viewBox="0 0 50000 50000"
   id="svg805"
   sodipodi:docname="hail_n.svg"
   inkscape:version="0.92.5 (2060ec1f9f, 2020-04-08)"><metadata
   id="metadata809"><rdf:RDF><cc:Work
       rdf:about=""><dc:format>image/svg+xml</dc:format><dc:type
         rdf:resource="http://purl.org/dc/dcmitype/StillImage" /></cc:Work></rdf:RDF></metadata><sodipodi:namedview
   pagecolor="#ffffff"
   bordercolor="#666666"
   borderopacity="1"
   objecttolerance="10"
   gridtolerance="10"
   guidetolerance="10"
   inkscape:pageopacity="0"
   inkscape:pageshadow="2"
   inkscape:window-width="640"
   inkscape:window-height="480"
   id="namedview807"
   showgrid="false"
   inkscape:zoom="3.5322341"
   inkscape:cx="108.80146"
   inkscape:cy="74.363234"
   inkscape:window-x="0"
   inkscape:window-y="0"
   inkscape:window-maximized="0"
   inkscape:current-layer="svg805" />
 <defs
   id="defs758">
  <style
   type="text/css"
   id="style756">
   <![CDATA[
    .str0 {stroke:#FEFEFE;stroke-width:352.8;stroke-linejoin:round;stroke-miterlimit:2.61313}
    .fil0 {fill:#2B2A29}
    .fil2 {fill:#FEFEFE;fill-rule:nonzero}
    .fil3 {fill:#727271;fill-rule:nonzero}
    .fil1 {fill:#2B2A29;fill-rule:nonzero}
   ]]>
  </style>
 
  
  
 
   
  
    
    
    
    
    
    
    
    
    
    
    
    
    
    
    
    
    
    
    
    
   </defs>
 <circle
   style="fill:#000000;stroke:#fefefe;stroke-width:352.79998779;stroke-linejoin:round;stroke-miterlimit:2.61313009"
   id="circle761"
   r="1265.3"
   cy="30935.199"
   cx="32729.5"
   class="fil0 str0" /><circle
   style="fill:#000000;stroke:#fefefe;stroke-width:352.79998779;stroke-linejoin:round;stroke-miterlimit:2.61313009"
   id="circle763"
   r="811.09998"
   cy="34082.199"
   cx="27830.5"
   class="fil0 str0" /><path
   style="fill:#000000;fill-rule:nonzero;stroke:#fefefe;stroke-width:352.79998779;stroke-linejoin:round;stroke-miterlimit:2.61313009"
   inkscape:connector-curvature="0"
   id="path765"
   d="m 24032.9,29246.5 c 806.6,806.5 810.4,2112.2 3.2,2919.9 -806.3,806.4 -2112.3,810.5 -2919.8,3.2 -806.5,-806.3 -810.5,-2112.3 -3.2,-2919.9 806.4,-806.5 2112.1,-810.4 2919.8,-3.2 z"
   class="fil1 str0" /><path
   style="fill:#fefefe;fill-rule:nonzero;stroke:#fefefe;stroke-width:352.79998779;stroke-linejoin:round;stroke-miterlimit:2.61313009"
   inkscape:connector-curvature="0"
   id="path767"
   d="m 22200.7,30331.4 c -205.3,205.3 -209,544.3 -2.7,750.6 205.2,205.2 544.2,209 750.5,2.7 205.3,-205.2 209,-544.3 2.8,-750.6 -205.3,-205.1 -544.3,-209 -750.6,-2.7 z"
   class="fil2 str0" /><circle
   style="fill:#000000;stroke:#fefefe;stroke-width:352.79998779;stroke-linejoin:round;stroke-miterlimit:2.61313009"
   id="circle769"
   r="973.29999"
   cy="33757.801"
   cx="16929.4"
   class="fil0 str0" /><path
   style="fill:#000000;fill-rule:nonzero;stroke:#fefefe;stroke-width:352.79998779;stroke-linejoin:round;stroke-miterlimit:2.61313009"
   inkscape:connector-curvature="0"
   id="path771"
   d="m 14734.7,37249.9 c 1007.6,1007.5 1007.7,2649.4 0.3,3656.9 -1007.4,1007.5 -2649.4,1007.8 -3656.9,0.3 -1007.5,-1007.4 -1007.8,-2649.4 -0.3,-3656.9 1007.5,-1007.5 2649.3,-1007.7 3656.9,-0.3 z"
   class="fil1 str0" /><path
   style="fill:#fefefe;fill-rule:nonzero;stroke:#fefefe;stroke-width:352.79998779;stroke-linejoin:round;stroke-miterlimit:2.61313009"
   inkscape:connector-curvature="0"
   id="path773"
   d="m 12165.4,38337.8 c -410.1,410.2 -409.9,1071.6 0.3,1481.7 410.2,410.1 1071.6,409.9 1481.7,-0.3 410.1,-410.1 409.9,-1071.6 -0.3,-1481.7 -410.2,-410.1 -1071.6,-409.9 -1481.7,0.3 z"
   class="fil2 str0" /><circle
   style="fill:#000000;stroke:#fefefe;stroke-width:352.79998779;stroke-linejoin:round;stroke-miterlimit:2.61313009"
   id="circle775"
   r="1168"
   cy="28112.6"
   cx="12906.4"
   class="fil0 str0" /><circle
   style="fill:#000000;stroke:#fefefe;stroke-width:352.79998779;stroke-linejoin:round;stroke-miterlimit:2.61313009"
   id="circle777"
   r="717"
   cy="33692.898"
   cx="10310.9"
   class="fil0 str0" /><circle
   style="fill:#000000;stroke:#fefefe;stroke-width:352.79998779;stroke-linejoin:round;stroke-miterlimit:2.61313009"
   id="circle779"
   r="1103.1"
   cy="27269"
   cx="37174.199"
   class="fil0 str0" /><path
   style="fill:#000000;fill-rule:nonzero;stroke:#fefefe;stroke-width:352.79998779;stroke-linejoin:round;stroke-miterlimit:2.61313009"
   inkscape:connector-curvature="0"
   id="path781"
   d="m 39792.4,32047.7 c 906.3,906.2 906.3,2383.7 0.2,3290 -906.2,906.4 -2383.6,906.3 -3290,0.3 -906.2,-906.2 -906.2,-2383.8 -0.2,-3290 906.1,-906.3 2383.7,-906.3 3290,-0.3 z"
   class="fil1 str0" /><path
   style="fill:#fefefe;fill-rule:nonzero;stroke:#fefefe;stroke-width:352.79998779;stroke-linejoin:round;stroke-miterlimit:2.61313009"
   inkscape:connector-curvature="0"
   id="path783"
   d="m 37590,33135.6 c -308.8,308.9 -308.6,806 0.2,1114.7 309,308.8 806,308.7 1114.8,-0.2 308.8,-308.9 308.7,-806 -0.2,-1114.8 -308.9,-308.8 -806,-308.5 -1114.8,0.3 z"
   class="fil2 str0" /><circle
   style="fill:#000000;stroke:#fefefe;stroke-width:352.79998779;stroke-linejoin:round;stroke-miterlimit:2.61313009"
   id="circle785"
   r="825.29999"
   cy="37261.699"
   cx="33281"
   class="fil0 str0" /><path
   style="fill:#000000;fill-rule:nonzero;stroke:#fefefe;stroke-width:352.79998779;stroke-linejoin:round;stroke-miterlimit:2.61313009"
   inkscape:connector-curvature="0"
   id="path787"
   d="m 29807.6,37944.7 c 982.3,982.1 982.3,2582.8 0.2,3565.1 -982,982.3 -2582.9,982.4 -3565.1,0.3 -982.3,-982 -982.4,-2583 -0.3,-3565.1 982.2,-982.4 2582.9,-982.4 3565.2,-0.3 z"
   class="fil1 str0" /><path
   style="fill:#fefefe;fill-rule:nonzero;stroke:#fefefe;stroke-width:352.79998779;stroke-linejoin:round;stroke-miterlimit:2.61313009"
   inkscape:connector-curvature="0"
   id="path789"
   d="m 27330,39032.6 c -384.8,384.8 -384.6,1005.1 0.3,1389.9 384.9,384.8 1005.2,384.5 1389.9,-0.3 384.8,-384.9 384.6,-1005.1 -0.3,-1389.9 -384.9,-384.8 -1005.1,-384.6 -1389.9,0.3 z"
   class="fil2 str0" /><circle
   style="fill:#000000;stroke:#fefefe;stroke-width:352.79998779;stroke-linejoin:round;stroke-miterlimit:2.61313009"
   id="circle791"
   r="1297.7"
   cy="38364.801"
   cx="21017.301"
   class="fil0 str0" /><circle
   style="fill:#000000;stroke:#fefefe;stroke-width:352.79998779;stroke-linejoin:round;stroke-miterlimit:2.61313009"
   id="circle793"
   r="1297.7"
   cy="40765.602"
   cx="38277.301"
   class="fil0 str0" /><path
   style="fill:#000000;stroke:#fefefe;stroke-width:352.79998779;stroke-linejoin:round;stroke-miterlimit:2.61313009"
   inkscape:connector-curvature="0"
   id="path795"
   d="m 30613.2,10355.7 c 1876.3,-125.6 3729.4,607.2 5014.2,1970 2001.6,-431.8 4159.5,152 5658.8,1651.6 2396.2,2396.4 2395.9,6283.8 -0.6,8680.1 -1537.3,1536.9 -3732.7,2102.8 -5750.3,1631.2 -2560.7,3376.3 -7640.5,3972.9 -10919.6,1317.8 -3833.8,2476.4 -9137.8,1588.4 -11917.3,-2101.3 -1558,66.1 -3118.2,-514.5 -4250.7,-1647.2 -2204.8,-2204.7 -2204.5,-5781.4 0.3,-7985.8 1267.9,-1268 3037.7,-1832.5 4749.5,-1603.6 1955.2,-2159.1 4900.4,-3245.3 7798.5,-2853.2 2876.6,-2394.2 7281.1,-1931.3 9617.2,940.4 z"
   class="fil0 str0" /><path
   style="fill:#727271;fill-rule:nonzero;stroke:#fefefe;stroke-width:352.79998779;stroke-linejoin:round;stroke-miterlimit:2.61313009"
   inkscape:connector-curvature="0"
   id="path797"
   d="m 22316.6,12214.8 c -195.7,255.9 -524.4,371.7 -837.1,278.6 -2578.5,-767.6 -5395.9,349.9 -6771.7,2603.8 -194,374.4 -654.2,522.9 -1030.8,331.3 -1038.9,-528.3 -2323.8,-337.4 -3166.9,505.7 -1066.6,1066.5 -1066.8,2795 -0.3,3861.6 757.6,757.7 1930.1,1005.5 2921.4,615.7 378.2,-149.5 818,-17.9 1004.5,368.6 1852.3,3814.4 7008.5,4386.8 9732.4,1416.1 354.5,-385.8 958.5,-508.7 1292.4,21.6 2123.3,3359.5 7132.4,2550 8399.5,-884 175.5,-477.2 731,-743.9 1191.7,-410.1 1273.8,926.6 3045.7,797.4 4172,-328.7 1258.2,-1258 1258.3,-3297.6 0.3,-4555.7 -1035.4,-1035.6 -2675.5,-1224.9 -3910.6,-502.4 -420.7,246 -964.8,235.6 -1195.6,-288.8 -721.5,-1628 -2598.5,-2388.1 -4227.5,-1786.4 -395.2,144.6 -832,8.9 -1010.1,-396 -1192.8,-2706.3 -4842.5,-3007.1 -6563.6,-850.9 z"
   class="fil3 str0" /><path
   style="fill:#2b2a29;fill-rule:nonzero;stroke:#fefefe;stroke-width:352.79998779;stroke-linejoin:round;stroke-miterlimit:2.61313009"
   inkscape:connector-curvature="0"
   id="path799"
   d="m 16027,19488.3 c 320.6,-223.9 720.2,-108.1 928.6,191.4 1329.9,1916.1 3509.4,2210 5408.9,928.4 305.9,-206.3 718.1,-180.8 941.8,150.9 228.3,338.5 87.3,728.1 -221.6,936.1 -2483.9,1671.7 -5461.7,1223.5 -7195.7,-1265.5 -210.2,-302.9 -185.6,-715.2 138,-941.3 z"
   class="fil1 str0" />
</svg>