<?xml version="1.0" encoding="UTF-8" standalone="no"?>
<!-- Creator: CorelDRAW 2019 (64-Bit) -->

<svg
   xmlns:dc="http://purl.org/dc/elements/1.1/"
   xmlns:cc="http://creativecommons.org/ns#"
   xmlns:rdf="http://www.w3.org/1999/02/22-rdf-syntax-ns#"
   xmlns:svg="http://www.w3.org/2000/svg"
   xmlns="http://www.w3.org/2000/svg"
   xmlns:sodipodi="http://sodipodi.sourceforge.net/DTD/sodipodi-0.dtd"
   xmlns:inkscape="http://www.inkscape.org/namespaces/inkscape"
   xml:space="preserve"
   width="50mm"
   height="50mm"
   version="1.1"
   style="shape-rendering:geometricPrecision; text-rendering:geometricPrecision; image-rendering:optimizeQuality; fill-rule:evenodd; clip-rule:evenodd"
   viewBox="0 0 50000 50000"
   id="svg861"
   sodipodi:docname="light_rain_n.svg"
   inkscape:version="0.92.5 (2060ec1f9f, 2020-04-08)"><metadata
   id="metadata865"><rdf:RDF><cc:Work
       rdf:about=""><dc:format>image/svg+xml</dc:format><dc:type
         rdf:resource="http://purl.org/dc/dcmitype/StillImage" /></cc:Work></rdf:RDF></metadata><sodipodi:namedview
   pagecolor="#ffffff"
   bordercolor="#666666"
   borderopacity="1"
   objecttolerance="10"
   gridtolerance="10"
   guidetolerance="10"
   inkscape:pageopacity="0"
   inkscape:pageshadow="2"
   inkscape:window-width="640"
   inkscape:window-height="480"
   id="namedview863"
   showgrid="false"
   inkscape:zoom="1.2488333"
   inkscape:cx="94.488189"
   inkscape:cy="94.488189"
   inkscape:window-x="0"
   inkscape:window-y="0"
   inkscape:window-maximized="0"
   inkscape:current-layer="svg861" />
 <defs
   id="defs813">
  <style
   type="text/css"
   id="style811">
   <![CDATA[
    .str0 {stroke:#FEFEFE;stroke-width:352.8;stroke-linejoin:round;stroke-miterlimit:22.9256}
    .str1 {stroke:#FEFEFE;stroke-width:352.8;stroke-linejoin:round;stroke-miterlimit:2.61313}
    .fil1 {fill:none;fill-rule:nonzero}
    .fil4 {fill:#2B2A29}
    .fil0 {fill:#FFED00}
    .fil6 {fill:#9D9E9E;fill-rule:nonzero}
    .fil5 {fill:#5B5B5B;fill-rule:nonzero}
    .fil2 {fill:#2B2A29;fill-rule:nonzero}
    .fil3 {fill:#00A0E3;fill-rule:nonzero}
   ]]>
  </style>
 
  
  
  
  
  
  
 
   
  
   
   
   
   
   
   
   
  
   
   
  
    
    
   
    
    
    
    
    
    
    
   </defs>
 <path
   class="fil0"
   d="m 17899.3,4066.1 c 638.3,-7.5 1266.3,32.5 1881,115.1 -4679.4,975.4 -9385.5,5863 -9307.8,12461.1 77.7,6598.1 4912.5,12628.9 9613.6,13493.7 -612.6,97.1 -1239.4,151.9 -1877.8,159.4 C 11039.5,30379.9 5158.7,24576.7 5073.4,17333.7 4988,10090.6 10730.4,4150.5 17899.3,4066.1 Z"
   id="path816"
   inkscape:connector-curvature="0"
   style="fill:#ffed00" /><path
   style="fill:none;fill-rule:nonzero;stroke:#fefefe;stroke-width:352.79998779;stroke-linejoin:round;stroke-miterlimit:22.92560005"
   inkscape:connector-curvature="0"
   id="path818"
   d="m 17893.3,3291.9 c 345.4,-4 676.6,3.9 993,23.2 331.5,20.3 664.3,53.3 997.2,98 424.2,56.9 721.8,447.2 664.9,871.3 -44.9,334.7 -297.4,590.6 -610.3,655.7 -2296.4,478.8 -4608.5,1985.1 -6273.5,4214.2 -1488.8,1993 -2452.3,4558.5 -2417.9,7479 35.6,3029.9 1133.8,5939.3 2765.1,8228.9 1711.4,2402.2 3990.6,4102.8 6214.1,4511.8 420.8,77.1 699.4,480.9 622.3,901.7 -61.8,337.8 -334.3,583.9 -657.1,628.1 -340.2,53.6 -666.8,94 -978.2,120.4 -304.5,25.8 -636.2,41.2 -995.4,45.4 C 14417.1,31114.3 10959.1,29599.8 8441,27114.9 5924,24631.1 4344.3,21177.1 4299.2,17342.8 4254.1,13508.3 5750.9,10019.1 8207.4,7478 10667.5,4933.1 14089.7,3336.6 17890.3,3291.9 Z M 12419.9,8225.2 C 13376.8,6944.2 14529,5872 15778,5053.3 c -2508.5,477.7 -4742.8,1730 -6453.3,3499.5 -2185.6,2260.8 -3517.2,5363.4 -3477.1,8771.8 40.1,3408.5 1443.7,6478.1 3680.4,8685.2 1841.4,1817.1 4247,3049.8 6920.2,3405.9 -1365,-909.3 -2637.5,-2164.3 -3699.4,-3654.8 C 10949.5,23235.4 9737.9,20016 9698.3,16651.4 9659.6,13358.7 10744,10468.8 12419.9,8225.2 Z"
   class="fil1 str0" /><path
   style="fill:#000000;fill-rule:nonzero"
   inkscape:connector-curvature="0"
   d="m 17893.3,3291.9 c 345.4,-4 676.6,3.9 993,23.2 331.5,20.3 664.3,53.3 997.2,98 424.2,56.9 721.8,447.2 664.9,871.3 -44.9,334.7 -297.4,590.6 -610.3,655.7 -2296.4,478.8 -4608.5,1985.1 -6273.5,4214.2 -1488.8,1993 -2452.3,4558.5 -2417.9,7479 35.6,3029.9 1133.8,5939.3 2765.1,8228.9 1711.4,2402.2 3990.6,4102.8 6214.1,4511.8 420.8,77.1 699.4,480.9 622.3,901.7 -61.8,337.8 -334.3,583.9 -657.1,628.1 -340.2,53.6 -666.8,94 -978.2,120.4 -304.5,25.8 -636.2,41.2 -995.4,45.4 C 14417.1,31114.3 10959.1,29599.8 8441,27114.9 5924,24631.1 4344.3,21177.1 4299.2,17342.8 4254.1,13508.3 5750.9,10019.1 8207.4,7478 10667.5,4933.1 14089.7,3336.6 17890.3,3291.9 Z M 12419.9,8225.2 C 13376.8,6944.2 14529,5872 15778,5053.3 c -2508.5,477.7 -4742.8,1730 -6453.3,3499.5 -2185.6,2260.8 -3517.2,5363.4 -3477.1,8771.8 40.1,3408.5 1443.7,6478.1 3680.4,8685.2 1841.4,1817.1 4247,3049.8 6920.2,3405.9 -1365,-909.3 -2637.5,-2164.3 -3699.4,-3654.8 C 10949.5,23235.4 9737.9,20016 9698.3,16651.4 9659.6,13358.7 10744,10468.8 12419.9,8225.2 Z"
   class="fil2"
   id="1" /><path
   class="fil3 str1"
   d="m 11189.4,36266.8 c -217.2,-421.5 -51.7,-939.3 369.8,-1156.6 421.5,-217.2 939.4,-51.6 1156.6,369.9 l 1561.1,3013.3 c 217.3,421.5 51.7,939.4 -369.8,1156.6 -421.5,217.3 -939.3,51.7 -1156.6,-369.8 z"
   id="path824"
   inkscape:connector-curvature="0"
   style="fill:#00a0e3;fill-rule:nonzero;stroke:#fefefe;stroke-width:352.79998779;stroke-linejoin:round;stroke-miterlimit:2.61313009" /><path
   class="fil3 str1"
   d="m 18450.5,35540.6 c -217.2,-421.4 -51.6,-939.3 369.8,-1156.5 421.5,-217.3 939.4,-51.7 1156.6,369.8 l 1561.2,3013.4 c 217.2,421.4 51.6,939.3 -369.9,1156.5 -421.4,217.3 -939.3,51.7 -1156.5,-369.8 z"
   id="path826"
   inkscape:connector-curvature="0"
   style="fill:#00a0e3;fill-rule:nonzero;stroke:#fefefe;stroke-width:352.79998779;stroke-linejoin:round;stroke-miterlimit:2.61313009" /><path
   class="fil3 str1"
   d="m 24774,40824.3 c -217.2,-421.4 -51.7,-939.3 369.8,-1156.5 421.5,-217.3 939.4,-51.7 1156.6,369.8 l 1561.1,3013.4 c 217.3,421.4 51.7,939.3 -369.8,1156.5 -421.5,217.3 -939.3,51.7 -1156.6,-369.8 z"
   id="path828"
   inkscape:connector-curvature="0"
   style="fill:#00a0e3;fill-rule:nonzero;stroke:#fefefe;stroke-width:352.79998779;stroke-linejoin:round;stroke-miterlimit:2.61313009" /><path
   class="fil3 str1"
   d="m 16825.5,40885.9 c -217.3,-421.5 -51.7,-939.3 369.8,-1156.6 421.5,-217.2 939.3,-51.6 1156.6,369.8 l 1561.1,3013.4 c 217.3,421.5 51.7,939.3 -369.8,1156.6 -421.5,217.2 -939.3,51.6 -1156.6,-369.8 z"
   id="path830"
   inkscape:connector-curvature="0"
   style="fill:#00a0e3;fill-rule:nonzero;stroke:#fefefe;stroke-width:352.79998779;stroke-linejoin:round;stroke-miterlimit:2.61313009" /><path
   class="fil3 str1"
   d="m 28682.3,36266.8 c -217.3,-421.5 -51.7,-939.3 369.8,-1156.6 421.5,-217.2 939.3,-51.6 1156.6,369.9 l 1561.1,3013.3 c 217.2,421.5 51.7,939.4 -369.8,1156.6 -421.5,217.3 -939.4,51.7 -1156.6,-369.8 z"
   id="path832"
   inkscape:connector-curvature="0"
   style="fill:#00a0e3;fill-rule:nonzero;stroke:#fefefe;stroke-width:352.79998779;stroke-linejoin:round;stroke-miterlimit:2.61313009" /><path
   class="fil3 str1"
   d="m 35943.4,35540.6 c -217.3,-421.4 -51.7,-939.3 369.8,-1156.5 421.5,-217.3 939.3,-51.7 1156.6,369.8 l 1561.1,3013.4 c 217.3,421.4 51.7,939.3 -369.8,1156.5 -421.5,217.3 -939.3,51.7 -1156.6,-369.8 z"
   id="path834"
   inkscape:connector-curvature="0"
   style="fill:#00a0e3;fill-rule:nonzero;stroke:#fefefe;stroke-width:352.79998779;stroke-linejoin:round;stroke-miterlimit:2.61313009" /><path
   class="fil3 str1"
   d="m 34439,41117.8 c -217.3,-421.4 -51.7,-939.3 369.8,-1156.5 421.5,-217.3 939.3,-51.7 1156.6,369.8 l 1561.1,3013.4 c 217.3,421.4 51.7,939.3 -369.8,1156.5 -421.5,217.3 -939.3,51.7 -1156.6,-369.8 z"
   id="path836"
   inkscape:connector-curvature="0"
   style="fill:#00a0e3;fill-rule:nonzero;stroke:#fefefe;stroke-width:352.79998779;stroke-linejoin:round;stroke-miterlimit:2.61313009" /><path
   style="fill:#000000;stroke:#fefefe;stroke-width:352.79998779;stroke-linejoin:round;stroke-miterlimit:2.61313009"
   inkscape:connector-curvature="0"
   id="path840"
   d="m 18808.5,19017.3 c 1600.2,-1666.4 3956.6,-2486 6237.7,-2150.8 2741.1,-2987.8 7712,-2314.5 9692.4,1118.8 1739.9,130.7 3369.4,1015.7 4422.2,2412.4 1727.2,-127.7 3483.9,485.4 4743.3,1744.9 2369.3,2369 2383.9,6250.1 -43.6,8581.8 -1651.4,1586.2 -3263.3,1865.1 -5090,1534.9 -2239.1,3199.3 -6327.6,3751.8 -9551.3,1619.2 -2873,1703.4 -6645.8,1489.5 -9302.7,-743.5 -1011.2,126.4 -2066.4,-14.7 -3055.3,-463.6 -2664.4,1734.5 -6396.1,1025 -8226.1,-1603.8 -1117.9,-96.5 -2191.4,-579.2 -3016.4,-1404.2 -968.8,-968.6 -1482.3,-2296.1 -1416.9,-3663.4 118.2,-2490.3 2118.5,-4402.6 4456.9,-4605 1215.3,-1576.6 3185.2,-2271.5 5167.4,-1964.2 1034.6,-809.5 2407.9,-1115.8 3777.6,-819.6 465.1,100.6 861.3,236.3 1204.8,406.1 z"
   class="fil4 str1" /><path
   style="fill:#5b5b5b;fill-rule:nonzero;stroke:#fefefe;stroke-width:352.79998779;stroke-linejoin:round;stroke-miterlimit:2.61313009"
   inkscape:connector-curvature="0"
   id="path842"
   d="m 23074.5,31530.8 c 1878.5,825.4 4139.9,414.7 5592.8,-1082.7 326.7,-335.9 864.1,-343.4 1200,-16.6 2312.4,2508 5706.7,2205.6 6968.5,-1014.4 145,-446.2 624.3,-690.2 1070.4,-545.3 1484.7,482.4 2570.2,857.5 3833.3,-355.7 1185.5,-1138.8 1162.1,-3046 -0.4,-4208.3 -883.4,-883.4 -2262.9,-1114.9 -3374.6,-589.8 -506.7,239.2 -1041,-65.2 -1190.1,-569.7 -476.5,-1596.5 -2215,-2456.6 -3730.4,-1990.8 -447.9,137.7 -903.5,-154.9 -988.7,-615.7 -515.7,-2790 -4385.5,-3566 -5714.5,-754.6 -244.4,517.9 -766,556.3 -1225.9,362.6 -1341.1,-563 -2873.4,-298.4 -3994.7,541.9 702.8,220.7 1357.6,602.3 1902.7,1132 542,-48.3 1052.2,-0.6 1709,234.8 3113.6,1112 4151.7,5070.8 2027.6,7590.8 -981.7,1167.5 -2422.6,1732.9 -3873.6,1670.6 -68.7,72.4 -139.3,142.6 -211.4,210.9 z"
   class="fil5 str1" /><path
   style="fill:#9d9e9e;fill-rule:nonzero;stroke:#fefefe;stroke-width:352.79998779;stroke-linejoin:round;stroke-miterlimit:2.61313009"
   inkscape:connector-curvature="0"
   id="path844"
   d="m 15382.4,22396.5 c -198.2,425.9 -704.3,610.5 -1130.2,412.2 -1313.1,-612 -2925.8,-334.3 -3448.6,1250.5 -210,638 -754.8,608.8 -1240.8,490.1 -1009.8,-248.9 -2092.2,491.5 -2144.7,1596.9 -22.3,469.3 146,946 505,1304.9 484.9,484.9 1197.4,630 1821.2,400.5 525.4,-192.6 979.5,145.2 1128.1,624.7 662.1,2129.5 3679.4,2787.9 5080.1,789.4 268,-383.7 796.5,-477.4 1180.1,-209.4 348.4,243.2 547.4,533.7 952.3,724.7 1257.5,593.1 2826.5,73.2 3441.2,-1249.6 l 1.3,-3 0.6,-1.3 1.9,-4.1 2,-4.4 5.6,-11.9 0.7,-1.7 c 192.8,-427.7 695.9,-618.2 1123.6,-425.5 746.6,337.1 1635.2,217.7 2155.4,-402.1 749.2,-887.1 408.1,-2334.2 -716,-2735.6 -675.8,-242.3 -1037.3,219.9 -1811.7,50.8 -458.3,-100.1 -642.2,-584 -928.6,-898.6 -496.1,-545.3 -1301.2,-713.3 -1969,-424 -429.6,187.3 -929.7,-9.2 -1117,-438.8 -329,-755.2 -432.9,-1335 -1335,-1530.1 -599.4,-129.5 -1253.4,42.3 -1557.5,695.4 z"
   class="fil6 str1" /><path
   style="fill:#000000;fill-rule:nonzero;stroke:#fefefe;stroke-width:352.79998779;stroke-linejoin:round;stroke-miterlimit:2.61313009"
   inkscape:connector-curvature="0"
   id="path846"
   d="m 30657.8,29777.6 c -224.1,-281.8 -177.2,-692.1 104.6,-916.1 281.9,-224.1 692.1,-177.2 916.2,104.6 1005,1258 2585.1,1303.4 3225.1,-414.3 125.3,-336.8 500.2,-508.2 837,-382.8 336.9,125.4 508.3,500.2 382.9,837.1 -977.3,2622.9 -3763.4,2902.4 -5465.8,771.5 z"
   class="fil2 str1" /><path
   style="fill:#000000;fill-rule:nonzero;stroke:#fefefe;stroke-width:352.79998779;stroke-linejoin:round;stroke-miterlimit:2.61313009"
   inkscape:connector-curvature="0"
   id="path848"
   d="m 28316.6,21052.2 c -188.2,301.6 -573.9,386.2 -861.5,188.9 -287.5,-197.3 -368.1,-601.9 -180,-903.5 1378.7,-2208.7 4232,-1523.2 4675.1,1041.7 60.5,353.7 -164,692 -501.3,755.4 -337.3,63.4 -659.8,-172 -720.2,-525.8 -246.9,-1429 -1637.3,-1797.8 -2412.1,-556.7 z"
   class="fil2 str1" /><path
   style="fill:#000000;fill-rule:nonzero;stroke:#fefefe;stroke-width:352.79998779;stroke-linejoin:round;stroke-miterlimit:2.61313009"
   inkscape:connector-curvature="0"
   id="path850"
   d="m 40050.8,25592.9 c -359.4,-28.2 -627.9,-342.4 -599.7,-701.8 28.2,-359.4 342.5,-627.9 701.8,-599.7 2778.2,218.6 2384.7,4287.8 -344.7,4346.3 -359.4,7 -656.5,-278.7 -663.5,-638.1 -7,-359.3 278.7,-656.4 638,-663.5 1153.7,-24.6 1357,-1657.5 268.1,-1743.2 z"
   class="fil2 str1" /><path
   style="fill:#000000;fill-rule:nonzero;stroke:#fefefe;stroke-width:352.79998779;stroke-linejoin:round;stroke-miterlimit:2.61313009"
   inkscape:connector-curvature="0"
   id="path852"
   d="m 11303.8,28201.2 c -167.7,-318.6 -45.4,-712.8 273.1,-880.5 318.5,-167.6 712.8,-45.4 880.5,273.1 458.7,869.6 1274.3,1352.6 2105.9,615.4 269.2,-238.2 680.5,-213 918.7,56.2 238.2,269.2 213,680.5 -56.2,918.7 -1468.3,1301.6 -3268.1,636 -4122,-982.9 z"
   class="fil2 str1" /><polygon
   style="fill:#ffed00"
   id="polygon856"
   points="47044.3,9634.7 43410.8,10949.2 43553.1,14810.5 41180.1,11761.1 37551.7,13089.6 39718.6,9890.5 37333.9,6850.2 41046.1,7922.4 43200.7,4714.9 43328,8576.8 "
   class="fil0" /><path
   style="fill:#000000;fill-rule:nonzero;stroke:#fefefe;stroke-width:352.79998779;stroke-linejoin:round;stroke-miterlimit:22.92560005"
   inkscape:connector-curvature="0"
   id="path858"
   d="m 43832.9,4704.2 111.9,3388.9 3273.1,931.9 c 336.7,95.9 532.1,446.6 436.2,783.4 -61.9,217.3 -230,375.8 -432,435 l -3162.1,1144.1 125.3,3400.7 c 12.3,349.1 -260.8,642.2 -609.8,654.5 -210.9,7.4 -401.2,-89.3 -521.7,-244 l -1.4,1 -2089,-2684.3 -3193.5,1169.1 c -328.6,120.5 -692.7,-48.2 -813.1,-376.7 -78.9,-215.2 -33.8,-445.6 99,-612.8 L 38935.9,9919.3 36835.5,7241.8 c -216.3,-275.1 -168.5,-673.6 106.7,-889.9 178.6,-140.4 409.2,-169.5 608.2,-97.3 l 3227.8,932.3 1896.8,-2824.1 c 194.3,-290.2 587.3,-367.9 877.5,-173.5 178.8,119.7 276.9,314.8 280.4,514.9 z m -1137,3892.4 -62.8,-1902.5 -1061.5,1580.4 c -149.1,222.7 -430.4,333.8 -701.5,255.3 L 39042.9,8002 40217,9498.7 l -1.4,1.1 c 165.4,210.4 184.3,511.7 26.2,745 l -1067.5,1576 1761.2,-644.7 c 257.7,-108 565.7,-35.2 745.3,196 l 1168,1500.8 -69.1,-1877.2 c -20.4,-275.7 142.9,-542.5 415.6,-641.3 l 1788.5,-647 -1829.3,-520.9 0.4,-1.4 c -257.7,-73.3 -450.1,-306.4 -459,-588.5 z"
   class="fil2 str0" />
</svg>