<?xml version="1.0" encoding="UTF-8" standalone="no"?>
<!-- Creator: CorelDRAW 2019 (64-Bit) -->

<svg
   xmlns:dc="http://purl.org/dc/elements/1.1/"
   xmlns:cc="http://creativecommons.org/ns#"
   xmlns:rdf="http://www.w3.org/1999/02/22-rdf-syntax-ns#"
   xmlns:svg="http://www.w3.org/2000/svg"
   xmlns="http://www.w3.org/2000/svg"
   xmlns:sodipodi="http://sodipodi.sourceforge.net/DTD/sodipodi-0.dtd"
   xmlns:inkscape="http://www.inkscape.org/namespaces/inkscape"
   xml:space="preserve"
   width="50mm"
   height="50mm"
   version="1.1"
   style="shape-rendering:geometricPrecision; text-rendering:geometricPrecision; image-rendering:optimizeQuality; fill-rule:evenodd; clip-rule:evenodd"
   viewBox="0 0 50000 50000"
   id="svg1011"
   sodipodi:docname="wind.svg"
   inkscape:version="0.92.5 (2060ec1f9f, 2020-04-08)"><metadata
   id="metadata1015"><rdf:RDF><cc:Work
       rdf:about=""><dc:format>image/svg+xml</dc:format><dc:type
         rdf:resource="http://purl.org/dc/dcmitype/StillImage" /></cc:Work></rdf:RDF></metadata><sodipodi:namedview
   pagecolor="#ffffff"
   bordercolor="#666666"
   borderopacity="1"
   objecttolerance="10"
   gridtolerance="10"
   guidetolerance="10"
   inkscape:pageopacity="0"
   inkscape:pageshadow="2"
   inkscape:window-width="640"
   inkscape:window-height="480"
   id="namedview1013"
   showgrid="false"
   inkscape:zoom="1.2488333"
   inkscape:cx="94.488189"
   inkscape:cy="94.488189"
   inkscape:window-x="0"
   inkscape:window-y="0"
   inkscape:window-maximized="0"
   inkscape:current-layer="svg1011" />
 <defs
   id="defs1004">
  <style
   type="text/css"
   id="style1002">
   <![CDATA[
    .str0 {stroke:#FEFEFE;stroke-width:352.8;stroke-linejoin:round;stroke-miterlimit:2.61313}
    .fil0 {fill:#2B2A29;fill-rule:nonzero}
   ]]>
  </style>
 
  
  
 
   
  </defs>
 <path
   class="fil0 str0"
   d="m 4339.6,25399.1 c -986.3,0 -1786,-799.7 -1786,-1786 0,-986.4 799.7,-1786.1 1786,-1786.1 h 14796.3 c 536.1,-2328.5 2125.3,-4291.2 4259.8,-5319.9 1728.8,-832.9 3752.7,-1003.9 5589.2,-476.1 1682.9,-1381 3853.6,-2074.1 6020.7,-1941.5 2284,141.1 4321.2,1173.8 5787.1,2740.6 1288.7,1377.3 2136.3,3163.1 2323.5,5114.8 408.3,193.3 789.2,416.8 1138.7,666.9 5914.1,4231.2 2623.3,13349.9 -4205.9,13436.9 -996.8,12.6 -1882.9,-703.4 -1882.9,-1778.4 0,-1060.2 853.7,-1767.4 1843.8,-1779.5 4112.6,-61.2 5360.5,-6311.4 995.4,-7551.4 -858.5,-171.3 -1481.3,-953.5 -1428.4,-1852.2 86.4,-1401.8 -419.8,-2803.4 -1379.6,-3829.1 -1867.7,-1996.2 -5005.8,-2164 -7072.4,-373.6 -1139.9,987.9 -1676,888.6 -3355.6,511.4 -1175,-264.5 -2463.3,-13.1 -3453.7,691.3 -1059.9,753.6 -1747.7,1993.9 -1817.5,3299 -54.6,1055.1 -561.1,2012.9 -1785.2,2012.9 z m 7500.3,5907.8 c -422.7,0 -765.5,-342.7 -765.5,-765.5 0,-422.7 342.8,-765.4 765.5,-765.4 h 9415.8 c 422.7,0 765.5,342.7 765.5,765.4 0,422.8 -342.8,765.5 -765.5,765.5 z M 6964.6,28512.8 c -422.7,0 -765.4,-342.7 -765.4,-765.4 0,-422.8 342.7,-765.5 765.4,-765.5 h 14291.1 c 422.7,0 765.5,342.7 765.5,765.5 0,422.7 -342.8,765.4 -765.5,765.4 z m 16837.9,-4898.3 c 58.2,-1840.7 1393.7,-3248.2 3260.1,-3270.2 1160.3,-14.1 1222.9,1511.2 17.9,1524.9 -1049.7,12.4 -1720.7,766.9 -1753.1,1793.1 -38.1,1205.1 -1561.2,1134.8 -1524.9,-47.8 z m 11565.9,-4647 c 1708.3,484.8 2886.7,1892.1 3110.6,3700.2 120.9,991.3 -1398.1,1176.6 -1518.9,185.4 -149.1,-1203.6 -887.9,-2103 -2022.5,-2420.1 -1046.5,-283.3 -628.8,-1765.2 430.8,-1465.5 z m 5858.8,8658.5 c -57.8,-417.7 234.1,-803.3 651.8,-861.1 417.8,-57.8 803.4,234 861.2,651.8 353,2518.6 -1529.5,4332.8 -3979.2,4354 -421.1,3.3 -765.2,-335.4 -768.4,-756.4 -3.2,-421.1 335.4,-765.2 756.5,-768.4 1536.3,-12.8 2702.7,-1016 2478.1,-2619.9 z"
   id="path1007"
   inkscape:connector-curvature="0"
   style="fill:#000000;fill-rule:nonzero;stroke:#fefefe;stroke-width:352.79998779;stroke-linejoin:round;stroke-miterlimit:2.61313009" />
</svg>